<?xml version="1.0" encoding="utf-8"?>
<!-- Generator: Adobe Illustrator 20.1.0, SVG Export Plug-In . SVG Version: 6.00 Build 0)  -->
<svg version="1.1" id="Calque_1" xmlns="http://www.w3.org/2000/svg" xmlns:xlink="http://www.w3.org/1999/xlink" x="0px" y="0px"
	 viewBox="0 0 1052.4 580" style="enable-background:new 0 0 1052.4 580;" xml:space="preserve">
<style type="text/css">
	.st0{fill:#BCBCBC;}
</style>
<g id="layer1">
	
		<image style="overflow:visible;opacity:0.6;" width="1034" height="561" xlink:href="AF8E1433.png"  transform="matrix(1 0 0 1 10 15)">
	</image>
	<g>
		<g>
			<path class="st0" d="M277.4,18c-0.7,0-1.1,0.2-1.2,0.4c-0.3,0.5-1.6,0.6-2.8,0.3c-1.3-0.3-3.2-0.2-4.3,0.3
				c-1.1,0.5-2.6,0.8-3.4,0.7c-1.2-0.2-3,2.5-3.3,5.1c-0.1,0.6-2.3,1-5,0.8c-3.6-0.3-4.9,0-4.6,1.2c0.2,1-0.9,1.5-3.4,1.6
				c-2.1,0-4.1,0.4-4.5,0.9s-2.7,0.9-5,0.9l-4.2,0.1l4,0.7c2.2,0.4,3.8,1.1,3.5,1.6c-0.3,0.5,0.6,1.7,2.1,2.7c2,1.4,3,1.6,4.3,0.5
				c1.1-0.9,2.3-1,3.7-0.3c5.4,2.8,11.2,2.7,17-0.4c4-2.1,6-2.6,6.9-1.8c1.9,1.9-1.1,4-9.1,6.7c-5.1,1.7-7.6,2-9.5,1.2
				c-2.7-1.2-6.1-0.5-6.1,1.3c0,1.8,8.2,6.1,10.4,5.4c2.7-0.9,3.9,1.1,1.7,2.9c-2.4,2-13.9,0.1-13.9-2.3c0-0.9-0.9-2.4-2-3.2
				c-1.1-0.8-1.7-2.3-1.3-3.2c0.4-1,0.2-1.6-0.3-1.5c-1.2,0.3-4.9-1-7.4-2.5c-3.4-2.1-4.7-2.5-6.6-1.7c-1.7,0.7-1.7,0.9-0.3,1.8
				c1.7,1.1,1.4,1.3-2.6,1.6c-0.8,0.1-2.1,0.9-2.8,1.8c-1.7,2.1,1.1,4.5,5.4,4.6c1.6,0,3.7,0.6,4.6,1.2c1.4,0.9,0.9,1.3-2.1,1.9
				c-3.1,0.6-3.5,1-2,1.8c1,0.6,1.6,1.5,1.2,2.1c-0.4,0.6,1.3,1.1,3.8,1.1c3,0,5.2-0.8,6.6-2.3c1.6-1.8,2.4-2,3.7-1
				c0.9,0.7,3.1,2.2,5.1,3.2c1.9,1,3.6,2.4,3.7,3c0.3,2-3.6,2-5.5,0.1c-1-1-1.3-1.8-0.7-1.8c0.6,0,1.5,0.5,1.9,1.2
				c0.4,0.6,1.6,1.2,2.6,1.2c1.5,0,1.3-0.4-0.8-1.9c-2.2-1.5-3.2-1.6-5.7-0.5c-2.7,1.2-2.9,1.5-1,2.5c2.1,1.2,1.7,3.3-0.7,3.3
				c-0.8,0-0.7-0.5,0.4-1.2c1-0.6,1.2-1.1,0.6-1.1c-1.9,0-4.6,2.1-3.8,2.9c0.4,0.4,5.3,0.9,10.8,1.2c5.5,0.2,10.4,0.7,10.7,1
				c0.8,0.8,1.3,0.8,5.6-0.8c4-1.4,5.4-3.4,1.8-2.5c-2.9,0.8-8.7-1.6-7.7-3.2c0.4-0.7,2-0.9,3.6-0.5c1.7,0.4,4.3-0.1,6.5-1.2
				c2-1.1,4.4-2.3,5.4-2.7c0.9-0.4,1.9-1.5,2.2-2.3c0.4-1.1-0.3-1.3-2.4-0.8c-1.6,0.4-3.2,0.4-3.6,0c-1.3-1.3,1.8-3.8,4.7-3.8
				c1.6,0,2.5-0.5,2.1-1.1c-1.2-1.9,1.3-2.3,5.1-0.9c3,1.1,3.9,1.1,4.7-0.3c0.6-0.9,5.1-3.6,10.1-6c5-2.4,8.4-4.3,7.7-4.4
				c-0.7,0-2.3-0.4-3.5-0.8c-1.6-0.5-1.7-0.4-0.6,0.4c1.2,0.9,0.7,1.4-2,2.4c-3.7,1.3-5.8,0.2-3.3-1.8c0.8-0.6,3.8-1.9,6.7-2.9
				c6.9-2.3,11.6-4.5,11.6-5.4c0-0.4-1.4-1.6-3.2-2.6c-2.3-1.3-4.1-1.5-6.7-0.8c-3.8,1.1-6.9,0.5-5.9-1.2c1-1.6-4.9-2.5-11.7-1.9
				c-3.3,0.3-8.4,0.1-11.3-0.4c-1.5-0.3-2.9-0.4-3.9-0.4C277.9,18,277.6,18,277.4,18L277.4,18z M387.4,18c-3.1,0-5.3,0.6-4.8,1.5
				c1.3,2.2-2.6,2.5-6.4,0.5c-2.8-1.5-4.4-1.6-6.3-0.8c-1.8,0.8-3,0.8-3.8,0c-1.6-1.6-4.8-0.3-4.8,2c0,2.3,1.9,2.3,2.8-0.1
				c0.6-1.6,1.1-1.5,3.5,0.8c1.9,1.8,2.4,3.2,1.7,4c-1,1.1-6.8,1.3-12.6,0.4c-4.4-0.7-8,0.1-7.4,1.7c0.9,2.3-1.3,3.3-3,1.3
				c-1.7-2.1-3.6-2.3-3.2-0.3c0.2,1-1.7,1.3-6.7,1.1c-6.6-0.3-14.3,1.9-12.5,3.7c1.2,1.2-2.1,4.4-3.8,3.8c-0.8-0.3-1.8-0.1-2.2,0.5
				c-0.4,0.6-1.3,0.8-2.1,0.5c-1.9-0.7-10.7,3.6-9.2,4.5c0.6,0.4,2.8,0.2,4.8-0.3c4.8-1.4,5.6,0.2,2.4,4.6c-1.8,2.4-3.6,3.5-5.8,3.5
				c-1.8,0-3.5,0.5-3.9,1.2c-0.4,0.6-1.2,0.8-1.8,0.5c-1.4-0.9-9.1,1.7-9.1,3c0,1.1,1.4,1.3,9.7,1.6c2.5,0.1,4.8,0.8,5,1.6
				c0.5,1.6-0.4,2-7.2,3.3c-4.2,0.8-4.3,0.9-1.7,1.6c1.6,0.4,2.6,1.2,2.3,1.7c-0.9,1.5,3.7,2.8,6.4,1.8c1.3-0.5,6.4-0.9,11.5-1
				c5.1-0.1,9.6-0.5,10.1-0.8c0.5-0.3,1.6,0.9,2.5,2.7c0.9,1.8,2.8,4.2,4.1,5.4s2.4,2.8,2.4,3.6c0,0.8,1,2.3,2.2,3.4
				c1.5,1.4,2,3,1.7,5.4c-0.6,3.9,1.3,4.7,2.3,0.9c0.5-2,1-2.2,2.3-1.1c3.9,3.3,2.9,7.3-2.1,8.6c-1.6,0.4-1.2,0.6,1.3,0.7
				c2,0.1,4.4,1.1,5.5,2.3c1.8,2,1.8,2.3-0.4,4.2c-2.2,2-2.2,2.1-0.3,3.5c1.8,1.4,1.8,1.6-1.2,2.7c-1.7,0.7-3.2,1.8-3.2,2.5
				c0,1,0.5,0.9,1.7-0.1c2.7-2.2,4.6-0.2,2.2,2.4c-1.1,1.2-1.5,2.2-0.9,2.2c0.6,0,0.1,0.8-1,1.6c-1.3,1-1.6,1.9-0.8,2.4
				c0.7,0.4,0.9,1.4,0.4,2.1c-0.5,0.9-0.2,0.8,1-0.1c2.1-1.7,3.6-0.3,2.1,2c-0.6,1,0.2,3.3,2.3,6.3c4.5,6.7,7.7,9.3,11.3,9.4
				c1.7,0,3.2,0.7,3.3,1.5c0.1,0.8,0.2,1.7,0.3,2.1c0.3,1.4,7.1-3.6,7.2-5.2c0.1-1,0-2.9-0.1-4.3c-0.1-1.4,0.3-2.8,1-3.3
				c0.7-0.4,1.2-1.7,1.2-2.9c0-2.5,10.2-11.9,11.8-10.9c0.6,0.4,2.6,0,4.4-0.7c3.3-1.4,4.9-3.5,5.1-6.9c0.1-1,0.8-1.6,1.6-1.4
				c0.8,0.2,2.5-0.7,3.7-2c1.8-1.8,3.8-2.2,9.6-2.1c4.5,0.1,8.6-0.6,10.7-1.7c1.9-1,5.3-2.2,7.5-2.7l4-0.9l-4-0.9
				c-2.2-0.5-5.1-0.6-6.5-0.3c-2.9,0.7-4.9-1.6-2.2-2.6c1-0.4,1.7-1.6,1.5-2.6c-0.2-1.3,0.7-2,3-2.2c2.5-0.3,3.4,0.2,3.9,2
				c0.8,2.9,3.8,3.2,3.8,0.3c0-2.7-6.3-6.4-9.3-5.5c-3.2,1-5.1-0.3-3.4-2.4c1-1.2,0.7-1.8-1.2-2.8c-3.3-1.8-1.7-3.8,2.3-2.9
				c2.6,0.6,3.2,0.3,3.1-1.3c-0.2-2.9,3.8-2.7,7.7,0.5c1.8,1.4,4.1,2.6,5.2,2.6c1.5,0,1.3-0.4-0.7-1.8c-3.3-2.3-2.3-4,2.4-4
				c3.4,0,3.5-0.1,1.4-1.7c-1.2-0.9-1.7-1.8-1.1-1.9c0.6-0.1-0.4-0.5-2.2-0.9c-4.4-1-4.5-2.8-0.1-3.8l3.5-0.7l-3.7-0.1
				c-2-0.1-4-0.6-4.4-1.2c-1.1-1.8,3.6-3.6,7.6-2.8c2.8,0.6,3.5,0.4,2.9-0.7c-0.5-0.8-1.1-1.1-1.5-0.8c-1.1,1.1-5.1-1.8-4.6-3.3
				c0.3-0.8,0-2.1-0.7-2.7c-0.9-0.9-0.4-1.6,1.8-2.4c1.7-0.6,3.1-2,3.1-2.9c0-0.9,0.9-2.3,2-3c1.7-1.1,1.6-1.2-1-0.7
				c-3.6,0.8-5-0.3-3.2-2.4c0.7-0.9,3.5-1.6,6.4-1.6c3.4,0,5-0.5,4.8-1.4c-0.2-0.8,0.9-1.6,2.4-1.8c1.4-0.2,4-1.1,5.6-1.9l2.9-1.5
				l-4.6-0.8c-2.5-0.4-5.6-0.3-6.7,0.3c-2.9,1.6-7.6,2.1-9.4,1c-0.8-0.5-3-0.2-4.9,0.8c-3.4,1.7-5.5,0.9-4-1.6
				c0.5-0.8-2-1.1-7.7-0.8c-6.2,0.3-10.4,1.3-15.7,3.7c-4.1,1.9-8,2.9-9.1,2.5c-2.9-1.1-1.1-2.4,9-6.4c5.7-2.3,10.9-3.5,14.6-3.5
				c3.2,0,7.5-0.8,9.6-1.8l3.9-1.8l-6.5,0.7c-6.8,0.7-9.6-0.6-5.9-2.9c2.3-1.5-8.7-0.9-21,1.1c-3.8,0.6-7.3,0.8-7.9,0.4
				c-1.7-1.1,1.1-3,5.7-3.9c4-0.8,3.8-0.9-2.5-0.9c-3.8,0-8-0.2-9.3-0.3C389.6,18.1,388.5,18,387.4,18L387.4,18z M355.4,19.8
				c-1.2,0-2.3,1.1-1.7,2.1c0.4,0.6,1.1,1.1,1.7,1.1c1.6,0,2.5-2.1,1.2-2.9C356.3,19.9,355.8,19.8,355.4,19.8L355.4,19.8z
				 M350.1,21.1c-0.2,0-0.4,0.1-0.5,0.2c-0.6,0.4-0.8,1.2-0.4,1.8c0.4,0.6,1.2,0.8,1.8,0.4c0.6-0.4,0.8-1.2,0.4-1.8
				C351.1,21.3,350.6,21.1,350.1,21.1L350.1,21.1z M448,27.9c-1.2,0-2.3,1.1-1.7,2.1c0.4,0.6,1.1,1.1,1.7,1.1c1.6,0,2.5-2.1,1.2-2.9
				C448.8,28,448.4,27.9,448,27.9L448,27.9z M664.8,29.1c-0.6,0-0.8,0.8-0.5,2.4c0.1,0.6-0.6,0.7-1.5,0.4c-2.3-0.9-3.3,0.4-1.7,2.3
				c1.2,1.5,3.6,1.7,3,0.3c0.2-0.1,0.3-0.2,0.3-0.4c0-0.1-0.1-0.2-0.2-0.3c0.2-0.5,0.6-1.2,1.1-1.9c1-1.2,1.1-2.1,0.3-2.6
				C665.3,29.2,665.1,29.1,664.8,29.1L664.8,29.1z M675.9,30.2c-1.2,0-2.3,1.1-1.7,2.1c0.4,0.6,1.1,1.1,1.7,1.1
				c1.6,0,2.5-2.1,1.2-2.9C676.8,30.3,676.3,30.2,675.9,30.2L675.9,30.2z M329.2,31.3c1.6,0,3.2,1.1,2.5,2.1
				c-0.9,1.5-3.7,1.5-4.6,0.1c-0.4-0.6-0.1-1.4,0.6-1.8C328.2,31.4,328.7,31.3,329.2,31.3L329.2,31.3z M642.8,31.6
				c-0.2,0-0.4,0.1-0.5,0.2c-0.6,0.4-0.8,1.2-0.4,1.8c0.4,0.6,1.2,0.8,1.8,0.4c0.6-0.4,0.8-1.2,0.4-1.8
				C643.8,31.7,643.3,31.5,642.8,31.6L642.8,31.6z M754.6,32.5c-1.2,0-2.3,1.1-1.7,2.1c0.4,0.6,1.1,1.1,1.7,1.1
				c1.6,0,2.5-2.1,1.2-2.9C755.4,32.6,755,32.5,754.6,32.5L754.6,32.5z M656.1,32.7c-0.9,0.1-1.9,0.4-3,1c-0.8,0.5-1.7,0.3-2.1-0.3
				c-0.4-0.7-1.2-0.9-1.8-0.5c-0.6,0.4-0.8,1.2-0.4,1.8c0.4,0.6,1.1,0.8,1.7,0.5c0.5-0.3,1.3-0.1,1.7,0.5c0.4,0.6,1.3,1,2.1,0.8
				c2.4-0.4,4.4-2,3.8-3C657.7,32.9,657,32.6,656.1,32.7L656.1,32.7z M668.2,32.7c-0.2,0-0.4,0.1-0.5,0.2c-0.6,0.4-0.8,1.2-0.4,1.8
				c0.4,0.6,1.2,0.8,1.8,0.4c0.6-0.4,0.8-1.2,0.4-1.8C669.2,32.8,668.7,32.6,668.2,32.7L668.2,32.7z M276.1,33.5
				c-0.8,0.1-2.4,1-5.9,2.9c-5.4,2.9-3.5,3.2,3.7,0.5c1.6-0.6,2.9-1.7,2.9-2.3c0-0.6,0-1-0.4-1C276.3,33.5,276.2,33.5,276.1,33.5
				L276.1,33.5z M305.2,33.5c-0.7,0-1.6,0.3-2.1,0.8c-0.9,0.9-0.4,1,1.5,0.5c1.6-0.4,2.1-0.9,1.2-1.2
				C305.7,33.6,305.5,33.5,305.2,33.5L305.2,33.5z M766.9,34.3c-0.9,0.1-2,0.6-3.9,1.8c-3.7,2.2-3.8,2.5-2.1,3.8
				c2.2,1.6,10,0.9,11.2-1.1c0.4-0.7-0.5-2.1-2.1-3.2C768.7,34.6,767.8,34.2,766.9,34.3L766.9,34.3z M680.5,34.9
				c-0.5,0-1,0.2-1.4,0.4c-0.8,0.5-1.8,0.9-2.3,0.9c-0.5,0-0.9,0.4-0.9,0.9v1.7c0,0.4,0.6,0.2,1.3-0.5c0.7-0.7,2-1,2.8-0.7
				c1.8,0.7,3.4-1.5,1.7-2.5C681.4,34.9,681,34.9,680.5,34.9L680.5,34.9z M633.1,35.2c-2.1,0-5.3,1.2-6.3,2.7c-0.6,1,3.2,4,5.3,4.2
				c0.4,0,1.2,0.4,1.6,0.9c1.1,1.1,3-0.2,2.2-1.5c-0.4-0.6-1.1-0.8-1.6-0.5c-0.5,0.3-1.2-0.2-1.6-1c-0.3-0.9,0.2-1.9,1.2-2.3
				c1.2-0.5,1.5-1.1,0.7-1.9C634.4,35.3,633.8,35.2,633.1,35.2L633.1,35.2z M640.5,35.2c-0.6,0-1.2,0.3-2.2,1
				c-1.9,1.4-2,1.8-0.5,3.6c0.9,1.1,1.6,2.4,1.4,2.7c-0.2,0.4,0.2,0.7,0.8,0.7c0.6,0,1.5,0.4,1.9,0.8c1.1,1.1,3-0.2,2.2-1.5
				c-0.4-0.6-1.1-0.8-1.7-0.5c-0.5,0.3-1.3,0.1-1.6-0.4c-0.4-0.6,0.5-1.3,1.9-1.7c3.5-0.9,3.8-0.9,3.8,0.3c0,2,1.7,2.7,3.4,1.4
				c1.1-0.9,1.9-1,2.4-0.1c0.5,0.8,1.5,0.8,3.1-0.1c1.7-0.9,2-1.6,1.2-2.5c-0.9-0.9-1.7-0.8-2.9,0.1c-1.3,1.1-1.8,0.9-2.4-0.6
				c-0.4-1.1-1.1-1.6-1.5-1.2c-0.4,0.4-1.4,0.2-2.2-0.5c-1-0.8-1.7-0.8-2.2,0.1c-0.6,0.9-1.4,0.7-2.8-0.5
				C641.7,35.6,641.1,35.2,640.5,35.2L640.5,35.2z M672.4,35.2c-1.7,0-5.7,3-5,4.1c0.4,0.6,1.1,1,1.6,1c1.4,0,4.8-4.2,4-5
				C672.8,35.3,672.6,35.2,672.4,35.2L672.4,35.2z M659,36.2c-0.2,0-0.4,0.1-0.5,0.2c-0.6,0.4-0.7,1.3-0.2,2c0.5,0.8,1,1.8,1,2.2
				c0.1,0.5,0.2,1.2,0.3,1.6c0.1,0.4,1.2-0.2,2.4-1.3c2.2-2,2.2-4.8,0-3.5c-0.5,0.3-1.3,0.1-1.7-0.6C660,36.4,659.5,36.1,659,36.2
				L659,36.2z M562.7,39.8c-1.2,0-1.3,0.3-1.3,1.1c0,0.8-0.9,2.2-2,3.1c-1.1,0.9-1.6,1-1.1,0.2c1-1.7-0.8-2.9-5.3-3.4
				c-3-0.3-3.2-0.1-2,1.4c1.2,1.5,1.1,2.1-0.5,3.8c-1.8,1.8-2.1,1.8-3.4,0.1c-2.2-2.9-4.6-3.1-6.7-0.7c-1.3,1.6-2.6,2-4.1,1.4
				c-2.2-0.8-2.2-0.9,0-2.5c2.5-1.8,1.6-2-3.8-0.9c-2,0.4-3.6,1.2-3.6,1.8c0,0.6,0.5,0.8,1.2,0.4c2.4-1.5,3.7,0.8,1.7,3
				c-1.1,1.2-2.5,1.8-3.3,1.4c-0.7-0.4-0.6,0.1,0.3,1.2c1.7,2.1,4.2,1.5,2.9-0.7c-0.4-0.8,0.4-0.4,1.7,0.8c2.3,2,2.7,2,4.5,0.4
				c2.6-2.4,6.3-3,6.9-1.2c0.3,0.8-0.8,1.9-2.5,2.6c-3.4,1.3-4,2.6-1,2.1c3.2-0.5,2.4,2.9-0.9,3.8c-1.6,0.4-2,0.9-1,0.9
				c1,0.1,2.5,0.9,3.3,1.8c2.1,2.5,3,2.2,4.7-1.8c0.8-1.9,2.4-4.8,3.7-6.4c2.1-2.6,2.5-2.7,4.9-1.1c1.4,0.9,3,1.3,3.5,0.8
				c0.5-0.5,0.3,0.3-0.4,1.8c-1.3,2.5-1.2,2.6,2.2,2.4c2-0.2,3.8-0.6,4-1c0.4-0.7-5.1-3.8-9.1-5.1c-1.2-0.4-1.8-1.1-1.4-1.7
				c0.4-0.6-0.5-1.3-2-1.7c-2-0.5-2.2-1-1.2-2.1s2.8-1.1,7.7,0c6,1.3,6.6,1.3,10.5-1.4l4.2-2.8l-3.8-0.8
				C566.2,40.2,563.9,39.8,562.7,39.8L562.7,39.8z M589.5,40.5c-0.5,0-1.1,0.1-1.5,0.4c-0.7,0.4-0.9,1.3-0.6,1.8
				c0.9,1.4,3.7,1.4,4.6-0.1C592.7,41.6,591.1,40.5,589.5,40.5L589.5,40.5z M602.3,40.8c-0.2,0-0.4,0.1-0.5,0.2
				c-0.6,0.4-0.8,1.2-0.4,1.8c0.4,0.6,1.2,0.8,1.8,0.4c0.6-0.4,0.8-1.2,0.4-1.8C603.3,40.9,602.8,40.7,602.3,40.8L602.3,40.8z
				 M665.9,40.8c-0.2,0-0.4,0.1-0.5,0.2c-0.6,0.4-0.8,1.2-0.4,1.8c0.4,0.6,1.2,0.8,1.8,0.4c0.6-0.4,0.8-1.2,0.4-1.8
				C666.9,40.9,666.4,40.7,665.9,40.8L665.9,40.8z M759.7,41c-0.6,0-1.3,0.1-2,0.3c-1.7,0.4-1.8,0.8-0.6,1.5c2,1.3,4.1,1.3,5,0
				C762.7,41.7,761.5,41,759.7,41L759.7,41z M768.4,41.5c-1.7,0.1-3.7,0.8-6.1,2.1l-3.9,2.1l6.5,1.5c3.6,0.8,7.8,2.1,9.4,3
				c3.6,1.9,4.1,1.6,4.4-2.9c0.4-5.3-0.9-6.6-3.4-3.3l-2.1,2.7l-0.7-2.6C771.9,42.3,770.5,41.4,768.4,41.5L768.4,41.5z M214.4,42.1
				c-0.1,0-0.2,0.1-0.3,0.1c-0.6,0.4-0.5,1.4,0.3,2.3c0.7,0.9,1.8,1.3,2.4,0.9c0.6-0.4,0.5-1.3-0.3-2.3
				C215.9,42.4,215,41.9,214.4,42.1L214.4,42.1z M449.6,44.3c-0.2,0-0.4,0.1-0.5,0.2c-0.6,0.4-0.8,1.2-0.4,1.8
				c0.4,0.6,1.2,0.8,1.8,0.4c0.6-0.4,0.8-1.2,0.4-1.8C450.6,44.4,450.1,44.2,449.6,44.3L449.6,44.3z M199.6,45.7
				c-1.6,0.1-1.8,0.7,0.1,1.8c1,0.6,1.6,1.6,1.2,2.2c-0.4,0.7,0.4,0.9,2,0.5c1.9-0.5,3.8,0.3,6.8,2.7c4.9,4.1,6.7,3.6,3.5-0.9
				c-1.4-1.9-4.5-4-7.7-5.1c-2-0.7-3.8-1.1-5.1-1.2C200.1,45.7,199.8,45.7,199.6,45.7L199.6,45.7z M788,46.7c-1.8,0-3.3,1.1-5,3.3
				c-1.6,2.1-2.9,4.1-2.9,4.4c0,0.3,2-0.1,4.3-0.9c2.4-0.9,5.4-1.6,6.8-1.6c3.6-0.1,4.2-1.4,1.6-3.2C790.9,47.4,789.4,46.8,788,46.7
				L788,46.7L788,46.7z M578.7,47.6c-1.2,0-2.3,1.1-1.7,2.1c0.4,0.6,1.1,1.1,1.7,1.1c1.6,0,2.5-2.1,1.2-2.9
				C579.6,47.6,579.2,47.6,578.7,47.6L578.7,47.6z M572.2,48.9c-0.2,0-0.4,0.1-0.5,0.2c-0.6,0.4-0.8,1.2-0.4,1.8
				c0.4,0.6,1.2,0.8,1.8,0.4c0.6-0.4,0.8-1.2,0.4-1.8C573.2,49,572.7,48.8,572.2,48.9L572.2,48.9z M762,51.2c-0.2,0-0.4,0.1-0.5,0.2
				c-0.6,0.4-0.8,1.2-0.4,1.8c0.4,0.6,1.2,0.8,1.8,0.4c0.6-0.4,0.8-1.2,0.4-1.8C763,51.3,762.5,51.1,762,51.2L762,51.2z M799,51.2
				c-0.2,0-0.4,0.1-0.5,0.2c-0.6,0.4-0.8,1.2-0.4,1.8c0.4,0.6,1.2,0.8,1.8,0.4c0.6-0.4,0.8-1.2,0.4-1.8
				C800,51.3,799.5,51.1,799,51.2L799,51.2z M185,51.6c-0.4,0.2-2.4,0.3-4.3,0.3c-1.9,0-3.3,0.4-2.9,1c0.3,0.5,2.3,0.8,4.4,0.6
				s2.8-0.1,1.5,0.3c-4,1-7.5,3.1-6.8,4.1c0.9,1.4,1.5,1.2,5.9-1.5c2.2-1.3,3.7-3,3.5-3.8C186,51.9,185.4,51.5,185,51.6L185,51.6z
				 M220.3,51.9c-0.4,0,0,0.5,0.8,1.6c1.8,2.2,3.2,2.5,4.2,0.8c0.4-0.6,0.2-1.2-0.4-1.2c-0.6,0-2.1-0.4-3.3-0.8
				C221,52,220.5,51.9,220.3,51.9L220.3,51.9z M447.3,53.5c-0.2,0-0.4,0.1-0.5,0.2c-0.6,0.4-0.8,1.2-0.4,1.8
				c0.4,0.6,1.2,0.8,1.8,0.4c0.6-0.4,0.8-1.2,0.4-1.8C448.3,53.7,447.8,53.5,447.3,53.5L447.3,53.5z M758.5,53.5
				c-0.2,0-0.4,0.1-0.5,0.2c-0.6,0.4-0.8,1.2-0.4,1.8c0.4,0.6,1.2,0.8,1.8,0.4c0.6-0.4,0.8-1.2,0.4-1.8
				C759.5,53.7,759,53.5,758.5,53.5L758.5,53.5z M172,54.2c-0.3,0-0.5,0.5-0.5,1.2c0,0.6,0.6,1.2,1.2,1.2c0.7,0,0.9-0.5,0.5-1.2
				C172.9,54.7,172.3,54.2,172,54.2L172,54.2z M198.5,55.8c-0.2,0-0.4,0.1-0.5,0.2c-0.6,0.4-0.8,1.2-0.4,1.8
				c0.4,0.6,1.2,0.8,1.8,0.4c0.6-0.4,0.8-1.2,0.4-1.8C199.5,56,199,55.8,198.5,55.8L198.5,55.8z M752.7,55.8c-0.2,0-0.4,0.1-0.5,0.2
				c-0.6,0.4-0.8,1.2-0.4,1.8c0.4,0.6,1.2,0.8,1.8,0.4c0.6-0.4,0.8-1.2,0.4-1.8C753.7,56,753.2,55.8,752.7,55.8L752.7,55.8z
				 M791.5,56c-1.5,0-2.7,0.8-4.2,2.5c-1.9,2.1-2.3,3.3-1.4,4.4c1.7,2,0.2,3.1-3,2.2c-1.6-0.4-4.6,0.2-7,1.3
				c-3.1,1.5-4.8,1.7-6.1,0.8c-1.3-0.8-3.7-0.7-8.1,0.4c-3.4,0.9-7.9,1.6-9.9,1.6c-3.7,0-10.1,2.2-11,3.7c-0.2,0.4,0.5,1.5,1.7,2.4
				c2.1,1.6,1.6,5-0.5,3.7c-0.6-0.4-4.5-0.8-8.6-1c-7.2-0.3-7.5-0.2-7.5,2.4c0,1.6,0.7,2.7,1.6,2.7c2.8,0,6.4,3.9,6.7,7.5
				c0.3,2.8-0.1,3.5-2,3.5c-1.8,0-2.3-0.7-2.1-3c0.2-2.6-0.6-3.3-5-5c-3.7-1.4-5.6-1.6-6.7-0.7c-1.1,0.9-1.9,0.9-2.9-0.1
				c-0.9-0.9-1.4-1-1.4-0.1c0,0.7,1.4,2.1,3,3.2c4.3,2.8,1.9,4.9-2.9,2.4c-2.3-1.2-4-3.2-4.7-5.6c-0.6-2.1-1.1-2.9-1.2-1.9
				c-0.1,1-0.9,2.5-1.9,3.4c-1,0.9-1.5,2.3-1,3.3c0.7,1.6,1.1,3.9,1.5,7.3c0.1,0.5,1.5,0.9,3.2,0.9c3.6,0,8.5,4.1,8.5,7
				c0,1.1,0.9,2.3,1.9,2.7c1.4,0.5,1.6,1.1,0.7,2c-1.7,1.7-6.1-0.8-6.1-3.4c0-2.4-2.2-4.8-4.3-4.8c-0.8,0-2.3,2-3.3,4.4
				s-3.4,5.6-5.3,7.1c-3.4,2.5-3.6,2.5-7.5,0.7c-2.2-1-3.7-2.4-3.3-3c0.9-1.4,4.8-1.4,5.7,0.1c3.6,5.9,7.6-14.4,4.1-20.7
				c-0.6-1-0.4-2.9,0.3-4.5c1.4-3.2-0.2-4.9-4.8-4.9c-1.9,0-3,0.9-3.8,3.4c-0.7,1.9-2.4,4.2-4,5.2c-2.5,1.6-2.6,2.1-1.4,4.4
				c0.8,1.4,2.4,3.2,3.5,4.1c1.1,0.8,2,2.3,2,3.3c0,2.8-3.4,3.2-6.1,0.7c-1.5-1.4-5-2.7-8.6-3.1c-5.6-0.7-6.2-0.6-8.8,2.4
				c-1.9,2.2-3.3,2.9-4.8,2.4c-1.8-0.7-1.8-1.1-0.5-2.7c1.3-1.5,0.9-1.5-1.8,0.3c-1.9,1.2-5.2,2.8-7.4,3.6c-3.5,1.2-4,1.1-4.5-0.8
				c-0.5-2-0.8-2-3.9-0.5c-1.8,0.9-4.4,1.7-5.8,1.7c-1.4,0-4.3,1.6-6.5,3.5c-4.4,3.9-6.4,4.3-8.5,1.7c-1.2-1.4-1-1.9,1.1-2.6
				c2.3-0.9,2.3-1.1-1.6-2.9c-4.5-2.1-4.8-1.8-2.9,3.7c1.5,4.4-0.3,7.7-3.4,6c-2-1.1-8.8,2.8-7.8,4.5c0.3,0.5-0.1,1.5-1,2.3
				c-1.3,1.1-2.4,1-5.2-0.5c-3.8-2-4.8-1.2-1.5,1.2c1.5,1.1,1.7,1.9,0.7,2.9c-2,2.1-8.3-1.7-9.3-5.5c-0.4-1.7-1.9-4-3.2-5.1
				c-2.1-1.8-2.2-2-0.5-2.7c1.1-0.4,3.5,0.1,5.5,1.1c6.2,3.2,16.3,1.5,16.3-2.7c0-1.9-13.4-9.3-16.7-9.3c-0.9,0-2.2-0.8-3-1.8
				c-1.1-1.3-2.8-1.6-6.9-1c-6.1,0.8-9-1.1-4.4-2.9c2.6-1.1,2.6-1.1-0.4-1.2c-1.7,0-3.4-0.6-3.8-1.2c-0.4-0.6-1.2-1.2-1.9-1.2
				s-0.8,0.7-0.3,1.4c0.7,1.1,0.5,1.2-0.9,0c-1.2-1-2.1-1-3-0.2c-0.9,0.9-1.5,0.8-2.1-0.2c-0.6-1-0.4-1.1,0.6-0.5
				c1,0.6,1.2,0.5,0.7-0.4c-0.6-0.9-1.5-1-2.9-0.2c-1.2,0.6-2.5,0.7-3,0.3c-0.5-0.5-0.5-0.2-0.1,0.5c1.2,2.1-2.7,3.8-6,2.5
				c-2.6-1-2.7-0.9-1.3,1c0.9,1.1,1.1,1.7,0.6,1.2c-0.6-0.5-1.7-0.3-2.6,0.4c-0.9,0.7-1.6,0.9-1.6,0.4s-0.8-0.2-1.7,0.5
				c-0.9,0.8-2.3,1.3-3.2,1.2c-3.6-0.5-4.7,0-3.5,1.6c1.6,1.9-0.2,4.9-2.9,4.9c-1.3,0-2.1,0.9-2.1,2.3c0,1.3-0.3,2.1-0.8,1.7
				c-0.4-0.3-2,0.6-3.6,2c-1.5,1.4-3.2,2.2-3.7,1.7c-0.5-0.5-0.7,0.1-0.3,1.2c0.4,1.2,0.2,2.2-0.7,2.5c-5.7,1.7-6,1.9-4.3,3
				c0.9,0.6,1.7,2.4,1.8,4c0.2,3.4-2.8,5.6-5.4,4c-2.3-1.4-3.5-1.4-3.1,0.2c0.2,0.7-0.7,1.9-1.9,2.6c-5.8,3.5-6.8,5.6-4.9,10
				c0.4,1,0.6,3.3,0.5,5.2c-0.2,3,0.2,3.5,2.7,3.8c1.9,0.2,4.3-0.7,6.6-2.7l3.6-3l1.6,3.3c0.9,1.8,2.3,5.3,3.1,7.8
				c2.1,6.6,2.2,6.7,5.3,4.7c1.5-1,3.9-1.8,5.2-1.8c2,0,2.3-0.5,1.8-2.4c-0.9-3.3,1-8,3.3-8c1,0,1.5-0.5,1.2-1.1
				c-0.4-0.6-0.1-1.4,0.6-1.8c0.8-0.5,0.4-1.7-1.2-3.4c-2-2.2-2.3-3.3-1.5-7.1c0.9-4.2,2.8-6.2,9.2-9.3c0.8-0.4,1.4-1.8,1.4-3.1
				c0-5.4,7.2-8.8,10.4-4.9c1.6,1.9,1.3,2.6-5.8,10c-3.6,3.7-4,4.9-3.7,9c0.6,6.3,2.1,7.3,7.7,5.2c5.5-2,11.8-2.2,14.1-0.3
				c3.3,2.7,0.3,3.7-13.8,4.4c-2.2,0.1-2.8,4.1-0.9,5.3c1.6,1,1.5,4.9-0.2,5.9c-0.7,0.5-2-0.1-2.9-1.3c-2.2-3-5.4-0.2-4.5,4
				c0.5,2.5,0,3.6-2.9,5.7c-2.9,2.1-3.9,2.4-5.2,1.2c-1.3-1.1-2.8-0.8-7.6,1.7c-5.6,2.9-5.9,2.9-6.5,0.8c-0.5-1.9-1-2.1-4-1
				c-2.8,1-3.8,0.8-5.7-0.9c-1.4-1.2-2-2.8-1.6-3.9c1.7-4.3,1.6-6-0.4-5.6c-2,0.4-2.3,2.5-1.3,9.6c0.4,3.2,0.2,3.5-3.3,3.6
				c-2.1,0.1-4.7,1-5.9,2c-1.2,1.1-2.4,1.6-2.9,1.2c-0.4-0.4-0.8,0.2-0.8,1.5c0,2.8-2.1,5.1-4.8,5.1c-1.1,0-2.6,1-3.3,2.3
				c-1.4,2.6-7.6,6.2-9.1,5.3c-0.5-0.3-1.3,0.4-1.6,1.7c-0.5,1.9-1.2,2.2-3.6,1.6c-3.9-1-4,1.5-0.2,2.9c3,1.1,6.1,6.9,6.3,11.6
				c0.1,3.8-3,7.1-6,6.4c-3.8-0.9-13.8-1.5-15.3-0.9c-0.8,0.3-1.1,2.6-0.8,6.1c0.3,3.1,0,6.6-0.7,7.9c-1.8,3.3,0.7,8.4,4.1,8.4
				c1.4,0,3,0.9,3.7,2c0.9,1.6,1.6,1.7,3.8,0.7c1.5-0.7,4-1.6,5.6-1.9c4.3-0.9,7.3-3.5,7.6-6.6c0.2-1.5,0.3-3.2,0.4-3.6
				c0.1-0.5,2.2-1.9,4.7-3.2c3.4-1.7,4.6-3.1,4.6-5.1c0-3.7,2.8-5.7,6.7-5c1.9,0.4,4.1,0,5.4-1c3.3-2.4,6.1-2,8.4,1.3
				c3.1,4.5,9.4,10.2,11.6,10.5c3,0.4,6.2,5,5.4,7.6c-0.5,1.6-0.3,2.1,0.7,1.4c0.8-0.5,1.1-2.2,0.8-4c-0.8-3.8,0.2-5.1,2.3-3.3
				c1,0.9,1.6,0.9,1.6,0.1c0-0.7-2.4-2.4-5.3-3.9c-3.4-1.7-6.1-4.1-7.5-6.7c-1.2-2.2-2.9-5-3.7-6.1c-1.2-1.6-1.1-2.4,0.5-4
				c1.8-1.8,2-1.8,2.7,0c0.4,1.1,1.2,1.7,1.7,1.4c0.5-0.3,1.7,0.7,2.7,2.2c1,1.5,4.1,4.5,7,6.5c3.5,2.5,5.5,4.9,6,7.3
				c0.9,4.2,6.2,11.2,8.4,11.2c0.8,0,1.2-0.5,0.8-1.2c-0.4-0.6-1.3-0.8-2-0.4c-0.8,0.5-0.9,0.2-0.4-0.6c0.7-1.1,1.3-1.1,2.5,0
				c1.9,1.5,1.1,3.4-1.3,3.4c-0.9,0-1.7,0.8-1.7,1.7c0,2.2,0.6,2.2,4.1-0.1c3.5-2.3,3.6-3.5,0.4-6.1c-2.3-1.8-2.2-5.6,0.1-4.2
				c0.5,0.3,1.3-0.2,1.6-1.1c0.5-1.2,1.9-1.6,5.1-1.3c3.5,0.3,4.8-0.1,5.9-1.8c0.9-1.5,1.1-2.8,0.3-3.7c-1.7-2,3.7-12.5,7.9-15.6
				c2.8-2.1,3.9-2.3,5.9-1.3c1.8,0.9,2.1,1.7,1.2,2.7c-0.9,1.1-0.5,1.9,1.5,3c3.5,1.9,6.3,0.5,3.4-1.7c-1.4-1-1.7-1.9-0.9-2.6
				c1.7-1.5,8.8-3.8,9.9-3.1c1.2,0.8,0.8,3.4-1,5.5c-1.2,1.4-0.5,2.5,4.3,6.1c6.7,5.1,7.7,7,5.3,9.7c-2.2,2.4-8.9,2.3-14.8-0.3
				c-5.2-2.3-7.5-2.4-11.3-0.2c-1.6,0.9-4,1.7-5.4,1.7c-1.4,0-2.8,0.9-3.2,1.8s-1.3,1.7-2.1,1.6c-3.4-0.4-4.1,0.2-3.7,3.8
				c0.2,2.1,0.5,3.9,0.6,4c0.1,0.2,0.3,0.8,0.4,1.3c0.2,1.2,1.8,3,2.9,3.1c0.4,0.1,1.7,0.5,2.9,1c1.2,0.5,2.6,0.4,3.3-0.3
				c0.8-0.8,2.4-0.8,5.1,0c2.8,0.9,4.8,0.8,6.9-0.1c4.2-1.9,4.5-0.1,1.8,10.2c-2.7,10.4-5.5,13.4-10,11c-2.2-1.1-3.8-1.2-6.1-0.3
				c-2.5,1-4.8,0.6-11.8-2c-12.8-4.6-12.7-4.7-16.2,2.8c-1.4,3.1-4.4,2.5-11.8-2.2c-4-2.6-8.1-4.7-9.3-4.7c-1.1,0-3.2-1.1-4.4-2.4
				c-1.8-1.8-2.1-2.8-1.1-4.6c1.5-2.7,0.4-7.7-1.8-8.6c-0.9-0.3-4.5-0.1-8.1,0.6c-3.6,0.7-7.2,0.9-8.1,0.6c-0.9-0.3-6,0.9-11.4,2.8
				c-10.3,3.6-14,4.2-15.1,2.3c-1.2-2-2.3-1.3-3.7,2.3c-0.7,1.9-2.9,4.4-4.9,5.5c-3.3,1.9-4.4,4.7-3.7,8.9c0.5,2.5-2.8,7.9-5.8,9.4
				c-1.8,0.9-4.8,4.5-6.8,8c-2,3.5-4.2,6.5-4.9,6.7c-2,0.7-2.5,4.1-2.2,15c0.2,6.7-0.3,11.4-1.4,14.1c-1.6,3.7-1.5,4.2,0.5,6
				c1.2,1.1,2.2,2.6,2.2,3.2c0,0.6,1.9,3.4,4.1,6.1s4,5.8,3.8,6.8c-0.6,2.8,3.6,8.1,9.1,11.5c4.8,3,5.4,3.1,10.4,1.9
				c2.9-0.7,6.7-1,8.4-0.7c1.7,0.4,5.7-0.3,9.4-1.7c3.5-1.3,7.5-2.4,9-2.4c2.6,0,6.5,3,7.4,5.6c0.3,0.9,1.6,1,4.1,0.3
				c5.4-1.6,7.2,1,6.5,9.1c-1,11.4-0.7,14,2.4,17.2c2.7,2.8,5.3,7.9,4.9,9.6c-0.1,0.4,0.7,1.7,1.8,2.9c1.1,1.2,2,3.4,2,5
				c0,1.6,0.4,4.3,0.8,6.1c0.5,2,0.1,4.6-1,7.1c-1,2.2-2.4,6.5-3.2,9.7c-1.2,5.1-1.1,6.4,1,10.8c2.7,5.9,3.6,9.1,4.4,15.5
				c1,8.1,2.9,13.6,7.5,22.6c5,9.6,5.4,11.3,2.9,12.3c-2.8,1.1,3.9,6.5,6.8,5.6c1.3-0.4,5.9-1.1,10.2-1.7c8.4-1,11.9-2.7,15.8-7.8
				c6-7.7,8.5-12.7,8.8-17.4c0.3-4.2,0.9-5.4,4.2-7.6c3.5-2.4,3.8-3.1,3.5-7.6c-0.2-2.7-0.8-5.9-1.4-7.1c-0.9-1.6-0.3-2.9,2.5-5.7
				c2-2,5.1-4.3,6.9-5.3c2.9-1.5,5.8-5,6.4-7.8c0.1-0.5,0.3-1.3,0.4-1.7c0.8-2.9-0.4-13.8-1.8-15.8c-0.9-1.3-1.7-3.8-1.7-5.6
				c0-1.8-0.4-4.2-1-5.2c-2-3.8,7.3-19.5,14.9-25.1c2.2-1.6,5.5-4.9,7.3-7.3c4.3-5.7,11.2-19.9,11.6-24c0.2-1.9,1.3-3.7,2.5-4.2
				c2.7-1.2,0.1-0.8-11.1,1.7c-7.1,1.6-7.7,1.6-10.7-0.6c-1.8-1.2-2.9-2.7-2.6-3.3c0.3-0.5,0.1-1.3-0.6-1.7
				c-0.7-0.4-2.5-2.8-4.1-5.4c-1.6-2.5-3.9-5.6-5.2-6.8c-1.3-1.3-2.3-3-2.3-4s-1-2.2-2.3-2.9c-1.8-1-2.3-2.4-2.3-6.7
				c0-3-0.7-6.5-1.6-7.8c-0.9-1.3-1.9-3.6-2.3-5.2c-0.4-1.6-2.6-5.7-4.8-9.1c-2.2-3.4-4.1-6.9-4.1-7.7c0-2.8,2.3-3.1,3.3-0.4
				c0.9,2.4,1,2.4,1.8,0.4c0.8-2.1,1-2,3.1,0.7c2.9,3.6,5.7,10,5.7,12.9c0,1.2,0.8,2.2,1.7,2.2c2.2,0,4.1,3.6,4.1,7.8
				c0,3.5,1.9,6.9,6.8,12.2c1.9,2.1,3,4.7,3.1,7.5c0.4,9.6,2.4,12.2,7.2,9.7c1.1-0.6,5.9-3,10.7-5.3c4.8-2.3,10.3-5.2,12.4-6.3
				c4.2-2.4,12.5-9.3,11.1-9.4c-0.5,0,0.3-1,1.7-2.2c1.4-1.2,2.2-2.5,1.8-2.9c-0.4-0.4,0.2-1.7,1.3-3c2-2.2,1.9-2.3-2.7-5.2
				c-2.7-1.7-5-4.2-5.5-5.9l-0.8-2.9l-1.7,2.5c-2,2.8-9,6.2-10.7,5.1c-0.6-0.4-1.1-1.4-1.1-2.2s-0.8-2.2-1.7-3
				c-1-0.8-1.7-2.3-1.7-3.3c0-1-1.6-4.2-3.5-7.1c-3.1-4.6-3.3-5.3-1.7-6.5c2.6-1.9,6.2-0.6,8,2.9c2.7,5.2,8.3,8.6,13,7.7
				c3.4-0.6,4.2-0.4,4.7,1.5c0.8,2.9,4.6,4,15.9,4.2c8.3,0.2,9.4,0.4,11.6,3.2c1.3,1.7,3.8,3.4,5.6,3.8c3.9,1,5.1,2.6,2.6,3.6
				c-1.4,0.5-1.5,1.1-0.5,2.3c1.9,2.3,4.2,2,4.9-0.8c1.1-4.4,3.1-1,3,5.1c-0.1,3.3,0.1,6.8,0.4,7.7c0.3,1,1.1,4.2,2,7.3
				c0.8,3,1.9,5.8,2.5,6.1c0.6,0.3,1,1.6,1,2.7s1.8,5.6,4,9.8l4,7.7l1.8-2.8c2.7-4.1,4-9.8,4-16.6c0-5.1,0.4-6.2,2.6-7.4
				c3.4-1.8,16.4-14.9,17.4-17.5c0.5-1.3,2-2,4.5-2c2,0,4.6-0.8,5.7-1.8c1.9-1.7,2.2-1.6,4.4,2c1.3,2.1,3.5,5.1,4.8,6.7
				c1.9,2.2,2.4,4,2.1,7.8c-0.3,4.1,0,5,1.6,5c1.1,0,3-1.1,4.2-2.4c2.7-2.8,3.1-2.3,4.2,5.3c0.5,3.2,1.3,6.4,1.9,7.1
				c0.6,0.7,0.8,4.7,0.5,8.9c-0.5,6.3-0.2,8.1,1.7,10.4c1.2,1.6,2.2,3.6,2.2,4.6c0,5.3,7.7,16.7,9.8,14.5c0.2-0.2-0.2-3.2-1-6.6
				c-0.9-4.2-2.4-7-4.4-8.7c-1.6-1.3-3.4-3.8-3.9-5.4c-0.5-1.6-1.6-3.4-2.5-4.1c-1.5-1.1-1.5-2,0-7c1.6-5.3,2-5.7,5-5.4
				c5,0.5,6.2,1.1,6.2,3.4c0,1.1,1,2.7,2.3,3.5c1.3,0.8,2.3,2.7,2.3,4.4c0,2.9,0.1,2.9,5.8-2l5.8-5l-0.4-6.5
				c-0.3-5-1.2-7.7-3.8-11.4c-1.9-2.6-4.1-5.8-5-7c-1.4-2-1.2-2.7,2.6-6.5c4-4,4.3-4.1,6.4-2.3c1.9,1.7,2.2,1.7,2.8,0.1
				c0.4-1,1.7-1.8,2.8-1.8c1.2,0,2.6-0.5,3.3-1.2c0.6-0.6,3.4-1.5,6.1-1.8c3.9-0.5,6-1.8,10-6.1c2.8-3,5.2-6.1,5.2-6.9
				c0-0.8,1.3-3.2,2.9-5.3c3.4-4.5,3.6-6,0.9-7c-1.9-0.7-1.9-0.9,0.2-2.4c1.9-1.4,1.9-1.7,0.4-1.7c-2.9,0-3.7-2.4-1.1-3.1
				c2.2-0.6,2.2-0.8-1.2-5.7c-3.3-5-3.4-5.3-1.5-8.1c1.1-1.6,3.6-3.7,5.6-4.6l3.7-1.7l-5.1,0.5c-5.3,0.6-10.5-1.7-10.5-4.5
				c0-2.5,10.8-9.8,12.4-8.4c1.1,0.9,1,1.8-0.4,4c-1,1.6-1.6,3.1-1.2,3.5c0.4,0.4,1.2-0.4,2-1.8c1.4-2.6,4.7-3.1,8.2-1.2
				c1.8,0.9,2,1.7,1.1,3.4c-0.9,1.7-0.6,2.5,1.6,3.9c2.2,1.4,2.7,2.6,2.5,6.4c-0.3,4.6-0.2,4.6,2.8,3.3c5-2.1,5.1-2.6,2-10.1
				l-2.9-7.3l2.7-3c1.5-1.7,4.6-5.1,6.8-7.6c3.3-3.7,4.4-4.3,5.7-3.1c2.4,2,4.7,0.7,9.7-5.4c9.4-11.5,13.1-20.2,13.3-31.8
				c0.1-4-2.9-7.5-5.1-5.8c-1.8,1.4-6.1,1.4-6.1,0c0-0.6-1.2-1.5-2.7-2c-2.4-0.9-2.5-1.2-1-3.4c0.9-1.3,6-6,11.2-10.4
				c9.1-7.7,14.1-9.8,16.7-7.2c1.1,1.1,9,0.4,10.7-1c0.9-0.7,2.3-0.6,4,0.3c3.4,1.9,11.7,2.2,10.2,0.4c-1.6-2,9-10.5,13.5-10.8
				c3.7-0.3,6,1.3,3.9,2.7c-0.6,0.4-1.2,1.5-1.2,2.6c0,1.5,0.5,1.5,2.7-0.6c1.5-1.4,3.3-2.5,4-2.5c0.8,0,1.4-0.7,1.4-1.6
				c0-2.1,3-4.6,4.5-3.7c1.6,1-2.5,8.1-4.9,8.5c-1.1,0.2-4.6,3.2-7.9,6.7c-3.3,3.5-6.5,6.3-7.3,6.3c-0.7,0-2.2,1.5-3.3,3.4
				c-2.3,3.9-2.5,12.3-0.4,19.2l1.4,4.6l2.8-3.8c1.5-2.1,3.5-3.8,4.4-3.8c0.9,0,1.2-0.5,0.8-1.2c-1.2-1.9,2.8-7.2,4.9-6.4
				c1.3,0.5,1.6,0.2,1.1-1.2c-0.9-2.2,1.3-6.6,2.8-5.7c0.6,0.4,1.1,0.2,1.1-0.5s-0.5-1.5-1.2-1.9c-0.6-0.4-0.9-1.3-0.5-1.9
				c0.4-0.6,0.2-1.8-0.5-2.6c-1.6-2,2.8-9.3,5-8.5c0.9,0.3,2.2-0.1,3-1c0.8-0.9,2-1.6,2.7-1.5c0.7,0.1,2.8-0.2,4.6-0.7
				c2.4-0.7,3.8-0.4,5.1,0.9c1.6,1.6,2.2,1.5,5.5-1c6.1-4.7,16.1-8.6,18.4-7.2c1.3,0.7,2.5,0.7,3.1,0.1c1.4-1.4-2.1-8.4-4.1-8.4
				c-2.1,0-4.5-3.1-3.1-3.9c0.6-0.4,2.4-0.2,4.1,0.4c4,1.5,6.5,0.4,6.5-2.9c0-3.6,2.3-4.9,3.1-1.8c0.7,2.8,0.9,2.8,3.8,1.3
				c1.6-0.8,2.6-0.6,4.2,1.2c1.1,1.3,2.7,2.3,3.5,2.3c0.8,0,2.1,0.8,2.9,1.7c1.6,2,4,2.4,2.9,0.5c-0.9-1.4,2.6-5.7,4.6-5.7
				c0.7,0,1.9-0.6,2.7-1.4c1-1,0.2-1.9-3.4-3.5c-6-2.7-6.4-2.6-7.2,0.3c-0.7,2.9-3.1,1.9-3.1-1.3c0-5.2-15.1-12.4-28.1-13.4
				c-5.2-0.4-10.4-1.2-11.6-1.8c-1.9-1-2.1-0.7-1.4,2.4c1,4.5-0.7,5.4-5.4,2.7c-2.8-1.6-5.9-2.1-11.9-2c-9.6,0.2-13.3-0.9-13.3-3.9
				c0-3.2-2.5-3.8-12.9-3c-7.5,0.6-9.2,0.4-9.8-1c-0.4-1-1.4-1.5-2.2-1.2c-1.5,0.6-3.4-1.4-3.5-3.6c0-2.2-4.1-1.9-8,0.5
				c-4.3,2.6-6.4,2-3.6-1.1c1.7-1.9,1.4-2-4.9-2c-3.7,0-7.4-0.2-8.4-0.4c-1.1-0.3-1.7,0.7-1.7,3.1c-0.1,2.8-0.6,3.5-2.6,3.5
				c-1.4,0-2.8,0.3-3.3,0.8c-0.4,0.4-2.1,0.1-3.7-0.8c-2.3-1.2-3.5-1.2-5.1-0.2c-1.6,1-2.7,1-4.4,0c-1.8-1.2-2.3-1-2.8,0.9
				c-1.1,4.2-4,3.8-9.9-1.4c-5.8-5.1-6.4-6.8-2.4-6.8c1.9,0,2-0.3,0.9-2.1c-1-1.6-2.7-2.1-7.2-2c-3.4,0-6.4,0.7-7.1,1.6
				c-1.6,2-14,1.4-13.6-0.7c0.4-1.9-10.3-2-12.1-0.2c-0.9,0.9-1.7,0.5-2.8-1.4c-0.8-1.5-1.5-3-1.6-3.5c-0.1-1.7-1.4-1.9-5.2-1
				c-3.3,0.8-3.5,1-1.2,1.1c2.8,0.2,8.6,3.5,6.1,3.5c-0.7,0-1.6-0.5-2-1.2c-0.4-0.6-2.1-1.2-3.8-1.2c-2.9,0-2.9,0.1-0.8,1.7
				c2.2,1.6,2.2,1.7-0.1,2.4c-1.3,0.4-3.1,1.2-4,1.6c-2.5,1.2-8.7,0.9-8.7-0.5c0-0.6,1.7-2,3.8-3.1c2.1-1.1,4.8-2.7,5.9-3.8
				c1.1-1,3-1.9,4.3-1.9c3.4-0.1,8-2.9,6.4-3.9c-1-0.6-1-1.3,0.1-2.7c1.3-1.5,1.2-1.7-0.3-1.2c-1,0.3-2.6-0.1-3.6-1
				c-1.5-1.3-3-1.4-7.2-0.4c-3.4,0.8-6.1,0.8-7.4,0.1c-1.1-0.6-3.1-1.4-4.3-1.8c-2.2-0.7-2.2-0.8-0.3-2.2c1.9-1.4,1.8-1.6-1.2-2.2
				C792.5,56,792,55.9,791.5,56L791.5,56z M241.3,57c-0.2,0-0.4,0.1-0.5,0.2c-0.6,0.4-0.8,1.2-0.4,1.8c0.4,0.6,1.2,0.8,1.8,0.4
				c0.6-0.4,0.8-1.2,0.4-1.8C242.3,57.1,241.8,56.9,241.3,57L241.3,57z M770.1,57c-0.2,0-0.4,0.1-0.5,0.2c-0.6,0.4-0.8,1.2-0.4,1.8
				c0.4,0.6,1.2,0.8,1.8,0.4c0.6-0.4,0.8-1.2,0.4-1.8C771.1,57.1,770.6,56.9,770.1,57L770.1,57z M167,57.7c-0.3,0-0.9,0.3-1.6,1
				c-0.8,0.8-2.6,1.4-4.2,1.4c-1.5,0-4.7,1.7-7,3.7c-3.4,3-3.7,3.5-1.6,3c1.4-0.4,2.9-0.1,3.3,0.5c0.4,0.6,1.8-0.5,3-2.5
				c1.7-2.8,2.7-3.3,3.8-2.4c1.1,0.9,2,0.6,3.3-1.4C167.6,59,167.8,57.6,167,57.7L167,57.7z M267.7,57.8c-0.4,0-0.7,0.1-0.9,0.3
				c-0.4,0.4,0.3,0.6,1.5,0.6c1.3-0.1,1.6-0.3,0.7-0.7C268.5,57.9,268.1,57.8,267.7,57.8L267.7,57.8z M749.2,58.2
				c-0.2,0-0.4,0.1-0.5,0.2c-0.6,0.4-0.8,1.2-0.4,1.8c0.4,0.6,1.2,0.8,1.8,0.4c0.6-0.4,0.8-1.2,0.4-1.8
				C750.2,58.3,749.7,58.1,749.2,58.2L749.2,58.2z M801.3,58.2c-0.2,0-0.4,0.1-0.5,0.2c-0.6,0.4-0.8,1.2-0.4,1.8
				c0.4,0.6,1.2,0.8,1.8,0.4c0.6-0.4,0.8-1.2,0.4-1.8C802.3,58.3,801.8,58.1,801.3,58.2L801.3,58.2z M174.2,59.3
				c-0.2,0-0.4,0.1-0.5,0.2c-0.6,0.4-0.8,1.2-0.4,1.8c0.4,0.6,1.2,0.8,1.8,0.4c0.6-0.4,0.8-1.2,0.4-1.8
				C175.2,59.4,174.7,59.2,174.2,59.3L174.2,59.3z M293.4,59.3c-0.2,0-0.4,0.1-0.5,0.2c-0.6,0.4-0.8,1.2-0.4,1.8
				c0.4,0.6,1.2,0.8,1.8,0.4c0.6-0.4,0.8-1.2,0.4-1.8C294.4,59.4,293.9,59.2,293.4,59.3L293.4,59.3z M569.9,60.5
				c-0.2,0-0.4,0.1-0.5,0.2c-0.6,0.4-0.8,1.2-0.4,1.8c0.4,0.6,1.2,0.8,1.8,0.4c0.6-0.4,0.8-1.2,0.4-1.8
				C570.9,60.6,570.4,60.4,569.9,60.5L569.9,60.5z M919.3,60.5c-0.2,0-0.4,0.1-0.5,0.2c-0.6,0.4-0.8,1.2-0.4,1.8
				c0.4,0.6,1.2,0.8,1.8,0.4c0.6-0.4,0.8-1.2,0.4-1.8C920.3,60.6,919.8,60.4,919.3,60.5L919.3,60.5z M224.5,61.3
				c-0.8,0-0.9,0.3-0.7,1.1c0.3,0.9,2.7,1.9,5.6,2.2c4.3,0.5,5.2,1,5.7,3.5c0.6,2.8,1.7,3.3,7.7,3.8c1.4,0.1,2.9,0.7,3.5,1.2
				c0.5,0.5,4.6,0.7,9.1,0.3c4.5-0.4,9.8-0.7,11.9-0.7c2.4,0,3.5-0.5,3.1-1.2c-0.4-0.7-0.1-2.1,0.8-3.2c1.3-1.7,1.3-1.8-0.2-0.7
				c-1,0.7-3,1.3-4.6,1.3c-1.6,0-7.3,0.2-12.7,0.5c-10.1,0.6-15-0.9-15-4.3c0-0.8-1.9-1.8-4.3-2.1c-2.4-0.3-5.8-1-7.7-1.4
				C225.7,61.4,225,61.3,224.5,61.3L224.5,61.3z M772.4,61.6c-0.2,0-0.4,0.1-0.5,0.2c-0.6,0.4-0.8,1.2-0.4,1.8
				c0.4,0.6,1.2,0.8,1.8,0.4c0.6-0.4,0.8-1.2,0.4-1.8C773.4,61.8,772.9,61.6,772.4,61.6z M691.1,61.9c-1.4,0-3.9,0.5-6.4,1.7
				c-3.3,1.5-6.9,2.2-9.1,1.9c-2.1-0.3-5.7,0.3-8.6,1.6c-2.8,1.2-6.7,2.2-8.6,2.2c-2.8,0-3.3,0.3-2.2,1.4s0.6,2.1-2.2,4.7
				c-2.4,2.2-3,3.4-2,3.7c4,1.3,4.7,1.8,1.9,1.4c-3.7-0.5-4.4-0.1-7.2,4.3c-1.8,2.8-1.8,3.2-0.3,2.7c1.9-0.7,4.9,1.9,3.9,3.5
				c-0.3,0.5,1.8,1,4.8,1.1c3,0.1,4.6-0.1,3.7-0.5c-2.3-0.8-4.6-3.8-4.6-6c0-2.4,9-12.4,13.2-14.5c1.8-0.9,4.2-1.7,5.4-1.7
				c2.3,0,15.3-4,18.1-5.6C692.7,62.5,692.4,61.9,691.1,61.9L691.1,61.9z M189,62.4c-0.6,0.1-1,1.1-0.9,3.1c0.2,2.5-0.3,3.2-2.5,3.5
				c-1.5,0.2-3.8-0.3-5.2-1.3c-1.4-0.9-4.7-2.1-7.2-2.5c-4.4-0.7-4.7-0.6-4.7,2.2c0,2.9,2.2,4.1,3.5,1.9c0.8-1.3,6.3,0.1,6.5,1.6
				c0,0.6-1.1,1.5-2.6,1.9c-2.3,0.6-2.2,0.8,1,0.9c2,0.1,5.2-0.5,6.9-1.2c1.8-0.7,5.3-1.6,7.8-2c2.5-0.4,4.7-1.3,5-2.1
				c0.3-0.9-0.4-1.2-2-0.9c-1.8,0.3-2.7-0.3-3.5-2.4C190.5,63.2,189.6,62.4,189,62.4L189,62.4z M211.5,62.6c-0.7,0-1.4,0.2-2.1,0.5
				c-1.9,0.9-1.9,1.2,0.9,4.1c3.8,4.1,7.5,4.2,7.5,0.3C217.8,64.8,214.6,62.5,211.5,62.6L211.5,62.6z M203.2,62.8
				c-0.2,0-0.4,0.1-0.5,0.2c-0.6,0.4-0.8,1.2-0.4,1.8c0.4,0.6,1.2,0.8,1.8,0.4c0.6-0.4,0.8-1.2,0.4-1.8
				C204.2,62.9,203.7,62.7,203.2,62.8L203.2,62.8z M928.6,62.8c-0.2,0-0.4,0.1-0.5,0.2c-0.6,0.4-0.8,1.2-0.4,1.8
				c0.4,0.6,1.2,0.8,1.8,0.4c0.6-0.4,0.8-1.2,0.4-1.8C929.6,62.9,929.1,62.7,928.6,62.8L928.6,62.8z M210.9,64.1
				c0.6-0.2,1.5,0.3,2.2,1.1c0.8,1,0.9,1.9,0.3,2.3c-0.6,0.4-1.7,0-2.4-0.9c-0.8-1-0.9-1.9-0.3-2.3
				C210.8,64.1,210.8,64.1,210.9,64.1L210.9,64.1z M889.7,65c-0.1,0-0.2,0.1-0.4,0.1c-1.7,0.6-2.3,4.3-0.9,5.7
				c1.2,1.2,4.8,0.9,5.6-0.4c0.4-0.7,1.7-0.7,3.6,0c4,1.5,4.5,1.4,2.8-0.6c-0.8-0.9-1.1-2.2-0.7-2.9c0.4-0.7,0.2-1.2-0.4-1.2
				c-0.6,0-1.5,0.6-1.9,1.2c-0.5,0.8-1.7,0.6-3.6-0.7C892.5,65.4,890.7,64.9,889.7,65L889.7,65z M882.3,65.2c-1.1,0-1.8,1.6-0.9,3
				c0.6,0.9,1.1,0.9,2,0c0.9-0.9,0.9-1.6,0-2.5C883,65.3,882.7,65.2,882.3,65.2L882.3,65.2z M904.2,65.8c-2.5,0-2.7,0.3-1.5,1.7
				c1.7,2,1.5,2,3.9,1C909.3,67.6,907.7,65.8,904.2,65.8z M161.5,66.3c-0.2,0-0.4,0.1-0.5,0.2c-0.6,0.4-0.8,1.2-0.4,1.8
				c0.4,0.6,1.2,0.8,1.8,0.4c0.6-0.4,0.8-1.2,0.4-1.8C162.5,66.4,162,66.2,161.5,66.3L161.5,66.3z M221.7,66.3
				c-0.2,0-0.4,0.1-0.5,0.2c-0.6,0.4-0.8,1.2-0.4,1.8c0.4,0.6,1.2,0.8,1.8,0.4c0.6-0.4,0.8-1.2,0.4-1.8
				C222.7,66.4,222.2,66.2,221.7,66.3L221.7,66.3z M205.2,66.4c-0.1,0-0.2,0.1-0.3,0.1c-0.6,0.4-0.5,1.4,0.3,2.3
				c0.7,0.9,1.8,1.3,2.4,0.9c0.6-0.4,0.5-1.3-0.3-2.3C206.7,66.7,205.8,66.2,205.2,66.4L205.2,66.4z M446.1,67.4
				c-0.2,0-0.4,0.1-0.5,0.2c-0.6,0.4-0.8,1.2-0.4,1.8c0.4,0.6,1.2,0.8,1.8,0.4c0.6-0.4,0.8-1.2,0.4-1.8
				C447.1,67.5,446.6,67.3,446.1,67.4L446.1,67.4z M913.4,68.2c-0.6,0-0.3,0.3,0.9,1c1,0.6,3,1.1,4.6,1l2.9-0.1l-2.9-0.9
				c-1.6-0.5-3.7-1-4.6-1C913.9,68.2,913.6,68.2,913.4,68.2L913.4,68.2z M200.8,68.6c-0.2,0-0.4,0.1-0.5,0.2
				c-0.6,0.4-0.8,1.2-0.4,1.8c0.4,0.6,1.2,0.8,1.8,0.4c0.6-0.4,0.8-1.2,0.4-1.8C201.8,68.7,201.3,68.5,200.8,68.6L200.8,68.6z
				 M729.6,68.6c-0.2,0-0.4,0.1-0.5,0.2c-0.6,0.4-0.8,1.2-0.4,1.8c0.4,0.6,1.2,0.8,1.8,0.4c0.6-0.4,0.8-1.2,0.4-1.8
				C730.6,68.7,730.1,68.5,729.6,68.6L729.6,68.6z M227.5,68.6c-0.2,0-0.4,0-0.7,0c-0.6,0.1-1.1,0.2-1.4,0.6
				c-0.9,0.9-0.8,1.6,0.5,2.4c2,1.3,3.7,0.9,4.3-0.8C230.6,69.6,229,68.7,227.5,68.6L227.5,68.6z M449.6,69.7
				c-0.2,0-0.4,0.1-0.5,0.2c-0.6,0.4-0.8,1.2-0.4,1.8c0.4,0.6,1.2,0.8,1.8,0.4c0.6-0.4,0.8-1.2,0.4-1.8
				C450.6,69.9,450.1,69.7,449.6,69.7L449.6,69.7z M552.6,70.9c-0.2,0-0.4,0.1-0.5,0.2c-0.6,0.4-0.8,1.2-0.4,1.8
				c0.4,0.6,1.2,0.8,1.8,0.4c0.6-0.4,0.8-1.2,0.4-1.8C553.5,71,553,70.8,552.6,70.9L552.6,70.9L552.6,70.9z M881.1,73.2
				c-0.2,0-0.4,0.1-0.5,0.2c-0.6,0.4-0.8,1.2-0.4,1.8c0.4,0.6,1.2,0.8,1.8,0.4c0.6-0.4,0.8-1.2,0.4-1.8
				C882.1,73.3,881.6,73.1,881.1,73.2z M897.2,74c-0.5,0-0.9,1-1,2.8c-0.1,2.6,0.3,2.9,3.8,2.9c2.4,0,3.7-0.5,3.3-1.2
				c-0.4-0.6-1.5-1.2-2.4-1.2c-0.9,0-2-0.8-2.4-1.7C898.1,74.5,897.6,73.9,897.2,74L897.2,74z M154.4,74.1c-2.7,0-6.1,1.5-5.9,3.1
				c0.4,4.4-0.2,6.1-2.7,7.1c-2,0.8-2.1,1.1-0.6,1.1c1.1,0,2.6,1.1,3.4,2.2c1.5,2.4,4.7,2.1,6.9-0.5c0.7-0.9,2.1-1.6,2.9-1.6
				c0.9,0,1.6-0.5,1.6-1.1c0-0.6,1.6-1.9,3.4-2.9c4.3-2.2,6.2-2.3,2.4,0c-1.6,0.9-2.4,1.7-1.7,1.7c2,0,4.5-2,4.7-3.9
				c0.3-2.4-3.4-4.4-7.4-3.9c-1.7,0.2-3.8-0.1-4.6-0.6C156.1,74.2,155.3,74.1,154.4,74.1L154.4,74.1z M697.2,75.5
				c-0.2,0-0.4,0.1-0.5,0.2c-0.6,0.4-0.8,1.2-0.4,1.8c0.4,0.6,1.2,0.8,1.8,0.4c0.6-0.4,0.8-1.2,0.4-1.8
				C698.2,75.6,697.7,75.4,697.2,75.5L697.2,75.5z M236,75.6c-2.7,0.1-6.1,0.8-7,1.7c-0.6,0.6-0.7,3-0.3,5.3c0.7,3.5,1.1,4,2.5,2.9
				c0.9-0.8,1.4-1.9,1-2.4c-0.4-0.6,0.3-1.4,1.4-1.8c3-1.1,6.2-4,5.5-5.1C238.9,75.7,237.6,75.5,236,75.6L236,75.6z M220.6,75.9
				c-0.5,0-1.4,0.4-2.6,1c-1.7,0.9-3.8,1.6-4.7,1.6c-1.2,0-1.3,0.4-0.2,1.6c1.9,2.3-0.4,3.5-3.7,1.8c-3.5-1.8-1.6,0.2,4.3,4.4
				c2.5,1.9,4.8,2.9,5,2.4c0.2-0.5,1.3-1,2.5-1c3,0,3.4-2.4,0.8-5c-1.5-1.5-1.9-2.6-1-3.4c0.7-0.7,0.9-1.9,0.6-2.7
				C221.4,76.2,221.2,75.9,220.6,75.9z M712.2,76.7c-0.2,0-0.4,0.1-0.5,0.2c-0.6,0.4-0.8,1.2-0.4,1.8c0.4,0.6,1.2,0.8,1.8,0.4
				c0.6-0.4,0.8-1.2,0.4-1.8C713.2,76.8,712.7,76.6,712.2,76.7L712.2,76.7z M198.1,77.4c-0.6,0-1,0.6-0.9,1.4
				c0.2,0.8-0.9,1.6-2.3,1.8c-1.9,0.3-2.6,1.2-2.6,3.1c0,3.3-2,4.9-3,2.4c-0.4-1-2.2-2.5-4-3.4c-2.9-1.4-3.4-1.4-3.9,0.1
				c-0.6,1.5-1,1.5-2.5,0.2c-1.5-1.3-2-1.2-3,0.5c-1.4,2.6-3.6,1.3-2.7-1.6c0.4-1.2,0.3-2.2-0.1-2.2c-0.6,0-6.7,3.4-9.5,5.2
				c-0.2,0.1,0.2,1.7,0.9,3.4c1.1,3,1.5,3.1,6.7,2.6c5.6-0.6,10.1,0.8,8.9,2.7c-0.4,0.6-4.2,1.1-8.4,1.2c-7.3,0.1-7.5,0.2-3.5,1.3
				c2.3,0.6,5.1,2.1,6.1,3.2c2.3,2.5,8.9,2.1,16.2-1c4-1.7,5.3-1.8,9.7-0.5c2.8,0.8,5.9,2.1,6.9,2.9c1.5,1.2,1.4,1-0.2-0.9
				c-2.1-2.5-1.5-3.9,2.6-5.4c1-0.4,0.1-0.7-1.8-0.7c-1.9-0.1-4.4-0.8-5.5-1.6c-2.6-1.9-5.5-10.3-4.1-11.8
				C199.6,78.9,199.6,77.4,198.1,77.4L198.1,77.4z M271.4,77.5c-1.6,0-2.7,0.4-2.7,1.4c0,2.4,1.4,3.3,4,2.6c1.3-0.3,3.4-0.7,4.7-0.7
				c2.1-0.1,2-0.2-0.6-1.7C275,78,272.9,77.5,271.4,77.5L271.4,77.5z M250.7,78.5c-3.5,0-8.6,4.3-8.6,7.1c0,3.3,3.6,9.1,5.7,9.1
				c1,0,7,0.2,13.3,0.4c8,0.2,13,1,16.2,2.4c2.5,1.1,5.6,2.2,6.7,2.3c3.5,0.3,4.9,2.5,3,4.9c-1.5,1.9-1.4,1.9,0.3,0.5
				c1.7-1.3,2.1-1.2,3.2,0.8c0.7,1.3,1.2,3,1.2,3.9c0,1.1,0.9,1.5,2.7,1.2c3.4-0.6,4.8,1.2,2.4,3.2c-1.4,1.2-2.1,1.1-3.8-0.4
				c-1.9-1.7-2.3-1.7-4.7,0c-2.1,1.4-2.3,2.1-1.2,3.4c0.7,0.9,0.9,1.7,0.3,1.7c-0.6,0-3.3,0.2-6.2,0.3c-3.9,0.2-5.3,0.7-5.6,2.2
				c-0.3,1.5,0.4,2,2.3,2c1.5,0,3.4-0.5,4.2-1c1.7-1.1,10.6,2.6,10.6,4.4c0,0.6,1.4,1.4,3.1,1.8c2.4,0.6,2.8,1,1.5,1.8
				c-1.1,0.7-0.6,1,1.9,0.9c2-0.1,5.6,1,8.1,2.2c5.8,3,5.8,3,3.3,0.3c-2.1-2.3-2.1-2.4,0.2-3c3.7-1,2.5-4.9-3.1-10.5
				c-4.9-4.9-5.1-5.1-2.9-6.8c3-2.3,3.3-2.2,7.6,1.8c2.9,2.7,4.1,3.2,5.3,2.2c0.9-0.7,1.3-1.8,0.9-2.4c-0.4-0.6,0.4-1.4,1.8-1.7
				c2.3-0.6,2.3-0.8,0.6-2.7c-1-1.1-2.5-1.9-3.3-1.6c-0.8,0.3-2.4-0.5-3.5-1.8c-1.2-1.3-3.6-2.4-5.4-2.4c-3.9,0-6.7-3.9-4-5.5
				c0.9-0.5,1.4-1.5,0.9-2.1c-1-1.5-7.4-4.5-8.8-4.2c-0.6,0.1-1.9-0.1-2.9-0.5c-1.6-0.6-1.6-0.9,0.4-2.4c1.9-1.4,1.9-1.7,0.4-1.7
				c-1,0-2.2,0.5-2.6,1.2c-0.4,0.7-1.5,0.8-2.7,0.1c-1.1-0.6-2.5-1.1-3.1-1.2c-0.6-0.1-1.2-0.7-1.2-1.4c0-2.3-3.9-4.1-7.4-3.6
				c-1.9,0.3-3.2,1-2.9,1.6c1,1.7-2.8,2.6-4.7,1c-0.9-0.8-2.2-1.1-2.8-0.7c-1.6,1-3-1.7-2.6-4.8c0.3-2.1-0.2-2.6-2.4-2.6
				c-1.5,0-3.5,0.7-4.4,1.4c-2,1.6-2.6,7.7-1,9.7c0.7,0.9,0.6,1.6-0.3,2.2c-2.1,1.3-4.5-2.9-4.3-7.5l0.1-4.1l0.7,4.6
				c0.6,4,0.8,4.3,1.5,1.9C256.1,82.9,253.8,78.5,250.7,78.5L250.7,78.5z M426.8,80.1c-0.4,0-0.7,0-0.7,0.3c0,0.3,1.2,1,2.6,1.6
				c3.4,1.4,3.4,1.4,2.7,0.2C430.9,81.3,428.1,80.3,426.8,80.1L426.8,80.1z M420.7,87.1c0.5-0.1,1,0.1,1.3,0.6
				c0.4,0.6,0.2,1.4-0.4,1.8c-0.6,0.4-1.4,0.2-1.8-0.4c-0.4-0.6-0.2-1.4,0.4-1.8C420.3,87.2,420.5,87.1,420.7,87.1L420.7,87.1z
				 M1018.8,88.2c-0.2,0-0.4,0.1-0.5,0.2c-0.6,0.4-0.8,1.2-0.4,1.8c0.4,0.6,1.2,0.8,1.8,0.4c0.6-0.4,0.8-1.2,0.4-1.8
				C1019.8,88.4,1019.3,88.2,1018.8,88.2z M229.4,88.6c-0.4,0-0.8,0.1-1.2,0.3c-4.2,2.3-4.3,8.1-0.1,8.1c3.1,0,3.5,1,1.7,4.7
				c-2.2,4.4-3.3,5-6.1,3.3c-1.7-1.1-2.9-1.1-5-0.1c-4.8,2.3-12.3,2.8-16.6,1c-2.2-0.9-4-2.2-4-2.9c0-1.3-5.6-1.7-8.7-0.5
				c-1.5,0.6-1.6,1-0.4,1.7c0.8,0.5,2.3,0.9,3.3,0.9c1.1,0,0.9-0.4-0.6-1c-1.9-0.8-2-1-0.4-1.1c3-0.1,3.8,2.3,1,3
				c-1.8,0.5-2.4,1.4-2.1,3.6c0.4,3.9-2.3,4.7-3.7,1c-1.3-3.4-5.2-4.7-11.6-3.9c-5.2,0.7-8.5-1.6-5.1-3.6c1.8-1,1.8-1.2-0.6-2.5
				c-1.9-1-3-1.1-4.2-0.1c-1.2,1-2.5,0.8-5.4-0.7c-5.1-2.7-12.7-4-14.5-2.6c-0.9,0.8-2.5,0.5-4.8-0.7c-3.3-1.7-3.8-1.7-7.3,0.5
				c-9.3,5.6-12.8,7.1-13.8,6.1c-0.7-0.7,0.8-2.2,3.9-4.1c2.7-1.7,4.4-3,3.6-3.1c-0.8,0-3.1,1-5.1,2.2c-3,1.8-4.1,2-5.5,0.9
				c-1.5-1.2-1.6-1.1-0.5,0.3c1.6,2.1,2.9,8.7,2,9.7c-1.3,1.3-3.8-1.8-3.8-4.6c0-1.5-0.4-2.8-0.9-2.8c-1.9-0.2-4.6-1-9.4-2.7
				c-2.8-1-6.3-1.8-7.7-1.8c-1.5,0-3-0.5-3.3-1c-0.4-0.6-3.8-1.1-7.6-1.1c-3.8-0.1-8-0.6-9.3-1.3c-1.6-0.8-3-0.9-4.5-0.1
				c-1.6,0.9-2.5,0.7-3.6-0.5c-0.8-0.9-2.9-1.7-4.7-1.7s-3.6-0.6-4-1.2c-0.5-0.8-1.2-0.8-2.3,0.1c-1,0.9-1.8,0.9-2.3,0.1
				c-0.5-0.8-1.7-0.6-3.6,0.7c-1.6,1-2.8,1.4-2.8,0.9c0-0.6-0.5-0.3-1.1,0.7c-0.6,0.9-2.5,1.9-4.2,2.1c-1.7,0.2-4.2,1.7-5.4,3.3
				s-2.6,2.6-2.9,2.3c-0.3-0.3-2.1,0.2-3.9,1.1l-3.3,1.7l3.8,3.2c3.6,3.1,7.1,5.1,9.4,5.3c2.1,0.2,1.9,2.9-0.2,4
				c-1.6,0.8-3,0.7-5.3-0.5c-2.1-1.1-3.9-1.3-5.1-0.6c-1.1,0.6-3,1.4-4.3,1.8c-2.2,0.8-2.2,0.8,0.3,1.8c1.5,0.6,2.3,1.6,2,2.6
				c-1,2.5,9.9,3.5,11.7,1.1c1.7-2.3,3.6-1.1,3.4,2.2c-0.2,2.5-6,7-7.8,6c-0.5-0.3-1.9,0.6-3.2,1.9c-1.7,1.7-2.2,3.2-1.7,5
				c1.2,3.9,4.2,6.8,6.5,6.2c1.1-0.3,2.5,0.2,3.1,1.2c1.4,2.4,8.7,4.9,11,3.6c2.4-1.4,3.4,0.5,2,4c-1.2,3.3-5.6,6.7-12.1,9.4
				c-2.5,1-4.3,2.1-3.9,2.5c0.5,0.5,6.6-1.9,10.2-4.2c1-0.6,3.6-2.1,5.9-3.3c4.7-2.6,11.7-9.3,10.9-10.6c-0.3-0.5,0.2-1.5,1.2-2.3
				c0.9-0.8,1.7-2.1,1.7-2.9c0-2.3,3.3-4.4,5.5-3.5c1.9,0.8,1.9,0.9,0,2.3c-1.8,1.3-2.9,5.3-1.5,5.3c2.6,0,6.6-2.6,6-4
				c-1.1-2.9,4.1-5,5.9-2.4c1.5,2,6.5,3.9,12.5,4.6c3.3,0.4,8.4,2,11.5,3.5c3.8,1.9,6,2.5,6.9,1.7c1-0.8,1.9-0.3,3.3,1.7
				c1,1.6,1.9,3.2,1.9,3.6c0,1.2,5.1,5.1,6.7,5.1c2.5,0.1,5.1,7.7,3.5,10c-0.6,0.8,0.2,1.8,2.1,2.6c3,1.4,3,1.4,0.9,3.9
				c-1.2,1.4-1.4,2-0.5,1.2c2.2-1.9,6.6,0.3,4.8,2.4c-1.4,1.7-0.5,3,2.3,3c2.9,0,12.7,9.6,12.7,12.5c0,2.7-1.8,4.4-2.9,2.6
				c-1.6-2.6-2.3-0.8-2.4,6c-0.1,4-0.3,10.4-0.5,14.2c-0.4,7.2,2.4,15.8,5.1,15.3c0.7-0.1,1.4,0.9,1.4,2.2c0.3,3.8,5.1,10.8,8.2,12
				c1.6,0.6,2.5,1.6,2.1,2.3c-0.5,0.7,0.1,1.1,1.4,0.9c1.7-0.3,2.6,1,4.2,6c1.2,3.5,3.1,7.4,4.3,8.7c1.6,1.7,1.9,2.7,1,3.7
				c-0.9,0.9-0.3,2.1,2.3,4.4c2,1.8,3.6,4.3,3.7,5.6c0.1,2.6,6.4,8.4,7.8,7.1c0.4-0.4-0.1-1.3-1.2-1.9c-1.1-0.6-2-1.7-2-2.4
				c0-0.7-1.6-3.5-3.5-6.4c-1.9-2.8-3.5-5.5-3.5-6c0-0.4-1.1-3-2.6-5.7c-2-3.8-2.3-5.2-1.2-6.3c1.6-1.6,5,0.5,5,3
				c0,0.8,2.3,4.7,5.2,8.6s5.2,7.5,5.2,8s1.7,3,3.9,5.5c5.1,6,6.6,8.9,5.8,11.7c-0.8,3,2.9,6,15.5,12.2c8,4,10.1,4.6,11.8,3.5
				c1.8-1.1,2.9-0.8,6.3,1.5c5.4,3.7,12.9,7.4,14.7,7.4c2.9,0,7.9,6.1,7.9,9.6c0,2.9,0.3,3.2,1.7,2c1.4-1.2,1.9-0.9,3,1.3
				c0.8,1.7,2.4,2.8,4.3,3c1.6,0.1,3.6,0.7,4.3,1.3c0.9,0.7,1.8,0.4,2.7-1.1c3.1-5,8.3,2.5,8.2,11.6c-0.1,4.1-0.9,6.2-3.9,9.9
				c-2.1,2.6-4.5,7.2-5.2,10.3c-1.3,5.1-1.2,5.7,0.7,6.8c2,1.1,1.9,1.3-0.4,3l-2.4,1.9l3.8,8.7c2.1,4.8,5.1,12.6,6.6,17.3
				c2.3,7.3,3.4,9.1,7.2,11.6c2.4,1.6,6.3,4.6,8.6,6.7l4.2,3.8l-1.4,19.9c-0.8,11-1.6,22.8-1.7,26.3c-0.2,4.2-1.4,8.5-3.5,12.6
				c-2.3,4.5-3,7.2-2.5,9.7c0.4,1.9,0.1,5.2-0.7,7.3c-1.1,3-1.1,4.4,0,6.5c1.7,3.2,1.2,15.4-0.7,17.3c-1,1-1.5,0.8-2.1-0.7
				c-0.6-1.6-1-1.7-1.8-0.5c-1.2,2-1.3,3.6-0.1,2.9c1.3-0.8,7.5,5.9,6.6,7.3c-0.4,0.6-1.4,0.9-2.2,0.5c-1.2-0.5-1.5,0.6-1.2,4.9
				c0.2,3-0.2,6.3-0.9,7.1c-1,1.2-0.9,1.5,0.4,1.2c2.5-0.5,8.3,3.7,7.6,5.5c-1.1,2.8,1.2,1.6,2.6-1.3c0.7-1.6,1.8-2.9,2.5-2.9
				s1.2-1.2,1.2-2.7s1-3.7,2.3-4.8c1.3-1.2,2.1-2.4,1.8-2.7s1.1-2.4,3-4.6c3.5-4,3.5-4.1,1.2-5c-4.7-1.7-4.2-10.3,0.5-10.3
				c1,0,1.6-1.3,1.6-3.6c0-2.6,0.6-3.7,2.4-4.2c2-0.5,2.1-0.8,0.7-1.9c-0.9-0.7-1.9-2.3-2.1-3.6c-0.3-1.9,0.3-2.3,3-2.3
				c3.2,0,4.5-1.2,5.8-5.5c0.4-1.4,2.4-2.2,6.5-2.7c9.5-1.3,11.7-5.4,6.4-11.8c-3.5-4.1-2.7-5.3,1.7-2.8c3,1.7,3.6,1.7,7.3,0
				c4-1.9,6.9-5.9,13-18.1c2.5-4.9,2.9-6.7,1.9-8.8c-0.7-1.4-0.8-3.2-0.4-3.9c0.9-1.4,9.1-7.2,10.2-7.2c0.4,0,1.3-0.8,2-1.7
				c0.7-0.9,3.3-1.9,5.9-2.1c4.4-0.4,4.7-0.7,7.7-7.8c2.6-6,3.2-9.1,3.3-16.9c0-6.7,0.5-9.8,1.6-10.4c0.9-0.5,3.5-3.7,5.8-7.2
				c5.6-8.2,5.9-14.3,0.8-16.9c-1.9-1-4.1-2.7-4.9-3.9c-1.1-1.6-3.4-2.3-8.6-2.7c-6.1-0.4-7.6-1.1-10.8-4.2
				c-4.5-4.5-6.5-4.6-9.5-0.7c-1.6,2.1-3.2,2.9-5.4,2.6c-3.7-0.4-3.6-2.4,0.1-3.3c1.5-0.3,2.8-1.5,3-2.6c0.6-2.9-1.5-2.4-5.9,1.4
				c-2.2,1.9-4.2,3.1-4.6,2.7c-1.2-1.2,6.2-10.9,7.7-10.1c0.8,0.4,0.3-0.4-0.9-1.8c-1.3-1.4-2.2-3-2.1-3.4
				c1.4-4.3-6.2-10.6-12.6-10.6c-3.2,0-5-0.9-8.3-4.3c-2.3-2.4-5.5-5.6-7.1-7.1s-2.5-3.3-2.1-3.9c0.5-0.8-1.3-0.9-5.2-0.4
				c-3.7,0.5-6.1,0.3-6.6-0.4c-0.4-0.7-1.3-1.1-2.1-1c-2.3,0.4-7.7-2.3-7.8-3.9c0-0.8-0.5-0.3-1.1,1.1c-0.6,1.4-1.5,2.6-2.1,2.6
				c-0.6,0-0.8,1-0.5,2.2c0.8,3.1-1.6,4.1-3.1,1.3c-1-1.9-0.9-3,0.6-5.2c2.4-3.6,0.6-3.6-2.8,0c-1.5,1.5-3.4,2.5-4.2,2.2
				c-1.5-0.6-2,0.3-4.6,7.6c-0.4,1.2-1.2,1-3.5-1.1c-2.6-2.5-3.3-2.6-7.5-1.5c-4.4,1.2-4.8,1.1-7.6-2.3c-2.8-3.3-2.9-4.2-2.3-10.7
				c0.7-7.1,0.7-7.2-2.5-8.1c-1.8-0.5-5-0.9-7.3-1c-3.8-0.1-4-0.3-3.7-3.6c0.2-1.9,0.8-4,1.3-4.6c0.5-0.6,1.3-3.4,1.7-6.1
				c0.7-4.4,0.5-4.9-1.5-4.9c-5.1,0-8,2.1-8.4,6c-0.3,3.5-0.7,3.9-5.5,4.7c-6.4,1.1-9.5-0.7-12.8-7.4c-2.3-4.7-3.2-14.7-1.5-16.4
				c0.5-0.5,0.7-2.6,0.5-4.7c-0.3-3.4,0.2-4.2,4-6.5c5.2-3.2,6.5-3.5,10.6-2.2c1.7,0.5,4.9,1.3,7,1.6c3.5,0.6,3.7,0.5,2.4-1.2
				c-1.3-1.6-1.2-2.1,0.7-3.5c1.5-1.1,3.3-1.4,5.2-0.8c1.6,0.5,4.3,0.8,6,0.7c3.5-0.2,6.6,3.5,7.2,8.7c0.4,4,3.1,8.4,5.1,8.4
				c2,0,1.8-1.5-0.9-11c-1.3-4.5-2.3-8.8-2.3-9.7c0-0.9,2.8-4.3,6.2-7.8s6-6.5,5.6-6.8c-0.3-0.3,0.3-0.9,1.3-1.3
				c1-0.4,1.6-1.1,1.3-1.7c-0.3-0.5,0-1.3,0.6-1.7c0.8-0.5,0.8-1.5-0.1-3c-1.4-2.7-1-8.5,0.6-8.5c0.6,0,1.4,1.3,1.9,2.9
				c0.7,2.4,0.8,2.5,0.9,0.5c0.2-3.6,5.7-11,8.2-11c4.3,0,5.8-1.2,4.4-3.5c-1-1.6-0.9-2.7,0.7-5.1c1.1-1.7,2.8-3,3.7-3
				c1,0,4.2-1.2,7.2-2.7c3.7-1.9,6.2-2.4,7.8-1.8c1.3,0.5,1.6,1,0.7,1c-2.3,0.1-5.9,3.6-5.9,5.7c0,1.4,0.5,1.3,2.6-0.6
				c1.4-1.3,4.3-3,6.3-3.8c2-0.8,4-2.2,4.3-3.1c0.4-0.9,1.2-1.4,1.8-1c0.6,0.4,1.2,0.2,1.2-0.3c0-2.4-1.5-2.2-4.2,0.5
				c-2.3,2.3-3.2,2.6-4.6,1.5c-0.9-0.8-1.3-2-0.9-2.7c0.6-1,0.3-1-0.9,0c-1.3,1-2.3,0.6-4.8-1.9c-3.3-3.4-3.2-4.6,0.4-4.6
				c1.2,0,2.1-0.8,2.1-1.9c0-2.9-7.8-1.2-11.8,2.6c-2.3,2.2-3.7,2.8-4.5,2c-1.7-1.7,8.2-10.3,12.9-11.2c2-0.4,6.2-0.7,9.3-0.7
				c3.1,0,6.9-0.6,8.2-1.4s4.1-1.7,6-2.1c3-0.6,3.5-1.2,3.5-4.5c0-5.1-1.5-6-6.7-4.2c-2.9,1-4.6,1.1-5.1,0.3
				c-0.9-1.5,2.8-4.3,5.9-4.4c1.7-0.1,1.9-0.3,0.7-0.7c-1-0.4-3.1-1.6-4.7-2.8c-1.7-1.2-3.3-1.8-3.6-1.5c-0.3,0.3-1.4-0.7-2.5-2.4
				s-1.6-2.9-1.1-2.9c0.4,0-0.4-1.2-1.8-2.7c-1.4-1.5-2.8-4.2-3.1-6c-0.9-5.2-1.6-5.5-5.1-1.7c-2,2.1-4,3.3-5,2.9
				c-1-0.4-2.1-0.1-2.5,0.7c-0.6,0.9-1.6,0.5-3.3-1.3c-2.7-2.9-3.4-5.3-1.8-6.3c1.6-1,1.3-4-0.5-4c-0.9,0-3.1-1.4-4.9-3.1
				c-2.6-2.5-4.6-3.2-8.9-3.4c-5.2-0.2-5.7,0.1-7.1,3.5c-1,2.4-1.1,4.3-0.4,5.7c0.7,1.4,0.6,2.7-0.3,3.8c-0.8,0.9-1,1.7-0.5,1.7
				s0.3,0.7-0.4,1.6c-1,1.2-0.8,2.3,1,4.6c2.9,3.6,2.9,7.5,0.3,11.3c-1.3,1.9-2.1,5.3-2.2,9.7c-0.1,5.1-0.7,7.2-2.2,8.3
				c-1.8,1.3-2.7,0.9-6.6-2.8c-4.2-3.9-4.5-4.7-4-9.1l0.5-4.8l-5.1-0.6c-3.4-0.4-7.3-2-11.4-4.8c-3.4-2.4-6.7-4-7.3-3.6
				c-1.4,0.9-2.9-1.5-3-4.6c0-1.7-0.7-2.2-2.6-2c-1.9,0.3-2.9-0.4-3.7-2.6c-1.6-4.2-0.3-7,7.2-14.9c1.8-1.8,2.9-3.8,2.6-4.3
				c-0.8-1.4,3.5-3.6,5.6-2.8c0.9,0.3,2.9-0.4,4.4-1.7c3-2.5,3.2-2.3-3.5-4.3c-3.1-0.9,0.6-2.9,4.7-2.5c3.6,0.3,3.9,0.7,4.3,4.7
				c0.3,3.2-0.1,4.5-1.5,5.1c-1.5,0.6-1.2,1.1,1.4,2.4c3,1.6,3.4,1.5,5.4-1.2c2-2.7,2.3-2.8,4.8-1.2c1.5,1,3.2,1.4,3.8,1
				c1.8-1.1-3.9-6.4-7.8-7.2c-2-0.4-4.4-2-5.4-3.5c-1.9-2.9-1.7-3.1,2.5-2.8c2.7,0.2,9.6-2.9,9.6-4.4c0-0.5-0.7-1.9-1.6-3.1
				c-1.2-1.6-1.3-2.7-0.4-3.7c1.7-2-2.1-4.8-6.4-4.8c-2.8,0-3,0.3-2.1,2.1c0.9,1.6,0.4,3-1.9,5.9c-2.8,3.6-3.1,3.7-4.5,1.7
				c-0.8-1.2-1.6-3.2-1.6-4.6s-0.8-3.1-1.7-3.9c-1.3-1.1-2-0.8-3.6,1.6c-2.1,3.2-4,3-4-0.4c0-1.2-1.1-2.4-2.5-2.8
				c-2-0.5-2.2-1-1.2-2.2C236.7,93.4,232.5,88.7,229.4,88.6L229.4,88.6z M255.3,88.9c-0.3,0-0.5,0.5-0.5,1.2c0,0.6,0.6,1.2,1.2,1.2
				c0.7,0,0.9-0.5,0.5-1.2C256.2,89.5,255.6,88.9,255.3,88.9L255.3,88.9z M1009.2,89.4c-2.3,0.1-5.3,0.9-6.4,2.1
				c-0.9,0.9,5,0.8,9.6-0.1c0.2,0,0-0.6-0.4-1.3C1011.7,89.5,1010.6,89.3,1009.2,89.4L1009.2,89.4z M133.7,90.6
				c-0.2,0-0.4,0.1-0.5,0.2c-0.6,0.4-0.8,1.2-0.4,1.8c0.4,0.6,1.2,0.8,1.8,0.4c0.6-0.4,0.8-1.2,0.4-1.8
				C134.7,90.7,134.2,90.5,133.7,90.6L133.7,90.6z M476.2,90.6c-0.2,0-0.4,0.1-0.5,0.2c-0.6,0.4-0.8,1.2-0.4,1.8
				c0.4,0.6,1.2,0.8,1.8,0.4c0.6-0.4,0.8-1.2,0.4-1.8C477.2,90.7,476.7,90.5,476.2,90.6L476.2,90.6z M472.7,92.9
				c-0.2,0-0.4,0.1-0.5,0.2c-0.6,0.4-0.8,1.2-0.4,1.8c0.4,0.6,1.2,0.8,1.8,0.4c0.6-0.4,0.8-1.2,0.4-1.8
				C473.7,93,473.2,92.8,472.7,92.9z M665,93.3c-0.5,0-0.9,0.1-1.2,0.4c-0.8,0.9-0.5,1.7,1,2.9c2.6,1.9,3.7,2.1,4.7,0.6
				C670.4,95.7,667.1,93.3,665,93.3L665,93.3z M550.2,94c-0.2,0-0.4,0.1-0.5,0.2c-0.6,0.4-0.8,1.2-0.4,1.8c0.4,0.6,1.2,0.8,1.8,0.4
				c0.6-0.4,0.8-1.2,0.4-1.8C551.2,94.2,550.7,94,550.2,94L550.2,94z M219.3,96.5c-0.5,0.1-1.1,0.6-2,1.6c-1.8,2-1.8,2.2-0.1,2.9
				c1,0.4,1.6,1.2,1.2,1.8c-0.4,0.7,0.7,0.7,3,0c2-0.6,4.1-1.7,4.6-2.5c0.7-1.2,1-1.2,1,0c0,0.8-0.8,1.8-1.7,2.1
				c-1,0.4-1.4,1.1-1.1,1.7c1.2,1.9,2.6,1.1,4.4-2.6l1.8-3.6l-3.7,0.7c-2.5,0.5-4.3,0.2-5.6-1C220.4,96.8,219.8,96.4,219.3,96.5
				L219.3,96.5z M638.1,97.4c-1.7,0-4.2,2.7-3.3,4.2c0.6,0.9,1.5,0.9,3,0.1c2.5-1.3,2.9-2.9,1-4.1C638.6,97.4,638.4,97.4,638.1,97.4
				L638.1,97.4z M345.6,98.2c-1,0-1.5,0.5-1.1,1.2c0.4,0.6,1.2,1.2,1.8,1.2c0.6,0,1.1-0.5,1.1-1.2C347.4,98.7,346.6,98.2,345.6,98.2
				z M271.4,98.7c-0.2,0-0.4,0.1-0.5,0.2c-0.6,0.4-0.8,1.2-0.4,1.8c0.4,0.6,1.2,0.8,1.8,0.4c0.6-0.4,0.8-1.2,0.4-1.8
				C272.4,98.8,271.9,98.6,271.4,98.7z M123.5,100.5c-0.6,0-1.9,0.5-2.9,1.1c-1,0.6-1.2,1.1-0.6,1.1c0.6,0,1.9-0.5,2.9-1.1
				C123.9,101,124.1,100.5,123.5,100.5L123.5,100.5z M539.8,101c-0.2,0-0.4,0.1-0.5,0.2c-0.6,0.4-0.8,1.2-0.4,1.8
				c0.4,0.6,1.2,0.8,1.8,0.4c0.6-0.4,0.8-1.2,0.4-1.8C540.8,101.1,540.3,100.9,539.8,101L539.8,101z M272.6,103.3
				c-0.2,0-0.4,0.1-0.5,0.2c-0.6,0.4-0.8,1.2-0.4,1.8c0.4,0.6,1.2,0.8,1.8,0.4c0.6-0.4,0.8-1.2,0.4-1.8
				C273.5,103.4,273.1,103.2,272.6,103.3L272.6,103.3z M535.2,103.3c-0.2,0-0.4,0.1-0.5,0.2c-0.6,0.4-0.8,1.2-0.4,1.8
				c0.4,0.6,1.2,0.8,1.8,0.4c0.6-0.4,0.8-1.2,0.4-1.8C536.2,103.4,535.7,103.2,535.2,103.3L535.2,103.3z M281.1,105.3
				c-0.1,0-0.3,0-0.4,0.1c-2.9,0.6-3.3,3.3-0.5,3.3c1.4,0,2.4-0.7,2.4-1.8C282.6,105.8,282,105.3,281.1,105.3L281.1,105.3z
				 M295.3,112.1c-1.3,0-2.1,0.5-1.7,1.2c0.4,0.6,1.2,1.2,1.7,1.2c0.6,0,1.3-0.5,1.7-1.2C297.4,112.6,296.7,112.1,295.3,112.1z
				 M453.2,113.6c-0.8,0-2,0.1-3.7,0.4c-3,0.5-6.4,0.8-7.6,0.7c-1.1-0.1-1.8,0.3-1.4,0.8c0.9,1.4-4.7,4.7-8.3,4.8l-3.2,0.1l3.5,0.7
				c1.9,0.4,3.2,1.2,2.9,1.8c-0.7,1.2,2.9,2.8,6.5,2.9c1.3,0,5.3-1.1,8.7-2.5c7-2.8,8.7-4.5,6.2-5.9c-0.9-0.5-1.7-1.7-1.7-2.7
				C455,113.9,454.6,113.6,453.2,113.6L453.2,113.6z M434.5,114.4c-1.1,0-2.7,0.4-3.8,1.1c-1.4,0.9-1.1,1.1,1.4,1.2
				c1.7,0,3.4-0.5,3.8-1.2C436.3,114.8,435.6,114.4,434.5,114.4z M524.8,123c-0.2,0-0.4,0.1-0.5,0.2c-0.6,0.4-0.8,1.2-0.4,1.8
				c0.4,0.6,1.2,0.8,1.8,0.4c0.6-0.4,0.8-1.2,0.4-1.8C525.8,123.1,525.3,122.9,524.8,123z M301.9,126.2c1.6-0.1,5.9,1.9,6.7,3.1
				c0.4,0.7,0.3,1.2-0.2,1.2c-1.6-0.1-7.5-3.6-7-4.1C301.5,126.3,301.7,126.2,301.9,126.2L301.9,126.2z M15.5,126.4
				c-0.3,0-0.6,0-0.9,0c-0.3,0-0.5,0.1-0.7,0.2c-0.6,0.3-0.4,1.4,0.4,2.3c1.5,1.8,7.6,1.7,7.1-0.1C21.1,127.8,17.7,126.5,15.5,126.4
				L15.5,126.4z M279.5,126.4c-0.2,0-0.4,0.1-0.5,0.2c-0.6,0.4-0.8,1.2-0.4,1.8c0.4,0.6,1.2,0.8,1.8,0.4c0.6-0.4,0.8-1.2,0.4-1.8
				C280.5,126.5,280,126.3,279.5,126.4L279.5,126.4L279.5,126.4z M274.9,127.6c-0.2,0-0.4,0.1-0.5,0.2c-0.6,0.4-0.8,1.2-0.4,1.8
				c0.4,0.6,1.2,0.8,1.8,0.4c0.6-0.4,0.8-1.2,0.4-1.8C275.9,127.7,275.4,127.5,274.9,127.6L274.9,127.6z M270.6,130.9
				c-0.3,0-0.6,0.2-0.9,0.6c-0.7,0.7-0.9,2.2-0.5,3.3c0.6,1.5,1.1,1.7,2,0.8c0.7-0.7,0.9-2.2,0.5-3.3
				C271.4,131.3,271,130.9,270.6,130.9L270.6,130.9z M261.7,131c-1.6,0.2-3.5,1.9-2.7,3.2c0.4,0.6,1.7,0.5,3-0.3
				c1.7-0.9,2-1.6,1.2-2.5C262.7,131.1,262.2,131,261.7,131L261.7,131z M477.4,132.2c-0.9,0.1-1.6,1.2-1.2,2.5
				c0.3,0.9,0.1,1.9-0.5,2.3c-0.6,0.4-0.8,1.2-0.4,1.8c0.4,0.6,1.2,0.8,1.8,0.4c0.6-0.4,0.9-1,0.5-1.3c-0.4-0.4-0.1-1.3,0.6-2.2
				c0.7-0.8,0.9-2,0.5-2.7c-0.3-0.4-0.6-0.7-0.9-0.7C477.7,132.2,477.6,132.2,477.4,132.2L477.4,132.2z M584.7,136.3
				c0.2,0,0.4,0,0.7,0c1.5,0.1,3.1,1,3.8,2.3c1.6,3,1.5,3.9-0.4,3.2c-0.9-0.3-2-0.2-2.6,0.4c-0.6,0.6-1.6-0.2-2.3-1.8
				c-0.7-1.5-1-3-0.7-3.4C583.5,136.6,584.1,136.4,584.7,136.3L584.7,136.3z M493.6,139.2c-1.1,0-1.8,1.6-0.9,3c0.6,0.9,1.1,0.9,2,0
				c0.9-0.9,0.9-1.6,0-2.5C494.3,139.3,493.9,139.2,493.6,139.2L493.6,139.2z M303.8,140.3c-0.2,0-0.4,0.1-0.5,0.2
				c-0.6,0.4-0.8,1.2-0.4,1.8c0.4,0.6,1.2,0.8,1.8,0.4c0.6-0.4,0.8-1.2,0.4-1.8C304.8,140.4,304.3,140.2,303.8,140.3L303.8,140.3z
				 M553.7,140.3c-0.2,0-0.4,0.1-0.5,0.2c-0.6,0.4-0.8,1.2-0.4,1.8c0.4,0.6,1.2,0.8,1.8,0.4c0.6-0.4,0.8-1.2,0.4-1.8
				C554.7,140.4,554.2,140.2,553.7,140.3L553.7,140.3z M26.1,141.5c-0.2,0-0.4,0.1-0.5,0.2c-0.6,0.4-0.8,1.2-0.4,1.8
				c0.4,0.6,1.2,0.8,1.8,0.4c0.6-0.4,0.8-1.2,0.4-1.8C27.1,141.6,26.6,141.4,26.1,141.5L26.1,141.5z M489,146.1
				c-0.5,0.1-1.8,1-3.6,2.7c-3.7,3.4-5.5,8-3.7,9.1c0.7,0.4,0.7,1.2,0.1,2c-1.2,1.5,1.7,4.8,4.3,4.8c0.9,0,1.8,1.4,2,3.3
				c0.3,2.4-0.3,3.5-2.2,4.3c-1.4,0.6-2.1,1-1.5,1.1c0.6,0,0.4,0.9-0.4,1.8c-1.2,1.4-1.1,1.7,0.9,1.7c4,0,4.2,2.3,0.3,3.8
				c-4.9,1.8-4.5,3.2,0.5,1.8c2.2-0.6,4.7-1,5.5-0.9c5.4,0.7,8.3-0.6,9.5-4.4c0.6-1.9,0.3-2.6-0.9-2.6c-2,0-3-1.3-3.7-4.8
				c-0.5-2.5-4.4-7.6-7.2-9.4c-1.1-0.7-1-1.6,0.6-4c2-3,2-3-0.6-2.4c-3.7,1-4.3-0.9-1.5-4.5C489.2,147.1,489.7,146,489,146.1
				L489,146.1z M38.9,148.4c-0.2,0-0.4,0.1-0.5,0.2c-0.6,0.4-0.8,1.2-0.4,1.8c0.4,0.6,1.2,0.8,1.8,0.4c0.6-0.4,0.8-1.2,0.4-1.8
				C39.9,148.5,39.4,148.3,38.9,148.4L38.9,148.4z M477.4,148.4c-0.2,0-0.4,0.1-0.5,0.2c-0.6,0.4-0.8,1.2-0.4,1.8
				c0.4,0.6,1.2,0.8,1.8,0.4c0.6-0.4,0.8-1.2,0.4-1.8C478.3,148.5,477.9,148.3,477.4,148.4L477.4,148.4z M560.7,148.4
				c-0.2,0-0.4,0.1-0.5,0.2c-0.6,0.4-0.8,1.2-0.4,1.8c0.4,0.6,1.2,0.8,1.8,0.4s0.8-1.2,0.4-1.8C561.6,148.5,561.2,148.3,560.7,148.4
				L560.7,148.4z M67.4,149.9c-1.7,0.1-6.9,3.6-6.9,4.9c0,0.5,0.4,1.2,0.8,1.7c1,1,7.4-5.1,6.6-6.4l0.1-0.1l-0.2,0.1
				C67.7,149.9,67.6,149.9,67.4,149.9L67.4,149.9z M111.8,151.9c-0.2,0-0.4,0.1-0.5,0.2c-0.6,0.4-0.8,1.2-0.4,1.8
				c0.4,0.6,1.2,0.8,1.8,0.4c0.6-0.4,0.8-1.2,0.4-1.8C112.7,152,112.3,151.8,111.8,151.9L111.8,151.9z M477.4,153
				c-0.2,0-0.4,0.1-0.5,0.2c-0.6,0.4-0.8,1.2-0.4,1.8c0.4,0.6,1.2,0.8,1.8,0.4c0.6-0.4,0.8-1.2,0.4-1.8
				C478.3,153.2,477.9,153,477.4,153L477.4,153z M549.1,153.1c-1.1,0-1.8,1.6-0.9,3c0.6,0.9,1.1,0.9,2,0c0.9-0.9,0.9-1.6,0-2.5
				C549.8,153.2,549.4,153.1,549.1,153.1L549.1,153.1z M16.9,156.5c-0.2,0-0.4,0.1-0.5,0.2c-0.6,0.4-0.8,1.2-0.4,1.8
				c0.4,0.6,1.2,0.8,1.8,0.4c0.6-0.4,0.8-1.2,0.4-1.8C17.9,156.6,17.4,156.4,16.9,156.5L16.9,156.5z M59.7,157.7
				c-0.2,0-0.4,0.1-0.5,0.2c-0.6,0.4-0.8,1.2-0.4,1.8c0.4,0.6,1.2,0.8,1.8,0.4c0.6-0.4,0.8-1.2,0.4-1.8
				C60.7,157.8,60.2,157.6,59.7,157.7L59.7,157.7z M270.3,158.8c-0.2,0-0.4,0.1-0.5,0.2c-0.6,0.4-0.8,1.2-0.4,1.8
				c0.4,0.6,1.2,0.8,1.8,0.4c0.6-0.4,0.8-1.2,0.4-1.8C271.2,158.9,270.8,158.7,270.3,158.8L270.3,158.8z M120.2,160.3
				c-0.1,0-0.2,0-0.3,0c-1.1,0.3-1.5,2.6-0.8,4.1c0.2,0.5,0.9,0.6,1.4,0.3C121.8,164,121.4,160.5,120.2,160.3L120.2,160.3z
				 M57.4,161.1c-0.2,0-0.4,0.1-0.5,0.2c-0.6,0.4-0.8,1.2-0.4,1.8c0.4,0.6,1.2,0.8,1.8,0.4c0.6-0.4,0.8-1.2,0.4-1.8
				C58.4,161.3,57.9,161.1,57.4,161.1L57.4,161.1z M965.6,161.1c-0.2,0-0.4,0.1-0.5,0.2c-0.6,0.4-0.8,1.2-0.4,1.8
				c0.4,0.6,1.2,0.8,1.8,0.4s0.8-1.2,0.4-1.8C966.6,161.3,966.1,161.1,965.6,161.1L965.6,161.1z M529.4,162.4c-1.1,0-1.8,1.6-0.9,3
				c0.6,0.9,1.1,0.9,2,0c0.9-0.9,0.9-1.6,0-2.5C530.2,162.5,529.8,162.3,529.4,162.4L529.4,162.4z M538.7,163.4
				c-0.2,0-0.4,0.1-0.5,0.2c-0.6,0.4-0.8,1.2-0.4,1.8c0.4,0.6,1.2,0.8,1.8,0.4c0.6-0.4,0.8-1.2,0.4-1.8
				C539.7,163.6,539.2,163.4,538.7,163.4L538.7,163.4z M475.1,163.7c-0.6,0.1-1.1,0.4-1.5,0.9c-0.7,0.8-0.9,1.8-0.4,2.3
				c0.4,0.4-0.4,1.1-1.8,1.5c-1.9,0.5-2.3,1-1.3,2.2c0.9,1,0.9,1.7,0,2.2c-1.1,0.7-1.8,5.2-0.9,5.2c0.2,0,2.5-1,5.1-2.3
				c3.9-1.9,4.8-2.9,5.2-6.3c0.4-3.3,0-4.2-2.1-5.2C476.5,163.9,475.7,163.6,475.1,163.7L475.1,163.7L475.1,163.7z M33.1,164.6
				c-0.2,0-0.4,0.1-0.5,0.2c-0.6,0.4-0.8,1.2-0.4,1.8c0.4,0.6,1.2,0.8,1.8,0.4c0.6-0.4,0.8-1.2,0.4-1.8
				C34.1,164.7,33.6,164.5,33.1,164.6L33.1,164.6z M901.6,165.3c-0.7,0-1.1,0.5-0.7,1c0.3,0.6-0.2,2.7-1.2,4.7
				c-1.5,3.1-1.6,4.2-0.3,7.3c0.9,2.1,1.4,7.3,1.2,12.5c-0.2,7.3,0,8.9,1.5,8.9c1,0,1.8-0.6,1.8-1.4s-0.5-1.8-1.2-2.2
				c-1.3-0.8-1.6-6.7-0.4-7.9c0.4-0.4,1.5-0.2,2.3,0.5c1.7,1.4,2.2-0.2,0.6-2c-1.9-2.2-3.8-13.1-3-17.2
				C902.8,166.6,902.6,165.3,901.6,165.3L901.6,165.3z M971.4,165.8c-0.2,0-0.4,0.1-0.5,0.2c-0.6,0.4-0.8,1.2-0.4,1.8
				c0.4,0.6,1.2,0.8,1.8,0.4c0.6-0.4,0.8-1.2,0.4-1.8C972.4,165.9,971.9,165.7,971.4,165.8L971.4,165.8z M25.7,166.7
				c-1.2,0-2.3,1.1-1.7,2.1c0.4,0.6,1.1,1.1,1.7,1.1c1.6,0,2.5-2.1,1.2-2.9C26.6,166.8,26.1,166.7,25.7,166.7L25.7,166.7z
				 M119.9,167c-1.1,0-1.8,1.6-0.9,3c0.6,0.9,1.1,0.9,2,0c0.9-0.9,0.9-1.6,0-2.5C120.6,167.1,120.2,167,119.9,167L119.9,167z
				 M20.4,170.4c-0.2,0-0.4,0.1-0.5,0.2c-0.6,0.4-0.8,1.2-0.4,1.8c0.4,0.6,1.2,0.8,1.8,0.4c0.6-0.4,0.8-1.2,0.4-1.8
				C21.3,170.5,20.9,170.3,20.4,170.4L20.4,170.4z M985.3,171.5c-0.2,0-0.4,0.1-0.5,0.2c-0.6,0.4-0.8,1.2-0.4,1.8
				c0.4,0.6,1.2,0.8,1.8,0.4c0.6-0.4,0.8-1.2,0.4-1.8C986.2,171.7,985.8,171.5,985.3,171.5z M264.7,171.6c-0.3,0-0.6,0.1-0.9,0.5
				c-0.9,0.9-0.8,1.7,0.3,3c2.1,2.5,3.8,1,2.2-1.8C265.7,172.2,265.2,171.6,264.7,171.6L264.7,171.6z M121.3,173.6
				c-0.1,0-0.1,0-0.1,0c-0.3,0.3,0.1,2.2,0.9,4.3c0.8,2.1,1.6,3.2,1.8,2.7c0.2-0.6-0.2-2.5-0.9-4.3
				C122.3,174.7,121.7,173.6,121.3,173.6L121.3,173.6z M936.7,180.9c-1.1,0-1.8,1.6-0.9,3c0.6,0.9,1.1,0.9,2,0
				c0.9-0.9,0.9-1.6,0-2.5C937.4,181,937,180.9,936.7,180.9L936.7,180.9z M135.6,183.3c-0.5,0.1-0.7,0.3-0.5,0.6
				c0.4,0.6,1.6,1,2.9,1s2.8,1,3.4,2.3s1.8,2.3,2.4,2.3c2,0-4-5.5-6.8-6.1c-0.4-0.1-0.7-0.1-0.9-0.1
				C135.9,183.3,135.8,183.3,135.6,183.3L135.6,183.3z M338.2,183.4c-1.1,0.1-3.3,1.4-5.7,3.6c-4.3,3.9-4.6,4.6-3.2,6.5
				c1.6,2.1,3.7,2.1,9.5-0.1c1.4-0.5,1.8-0.4,1.2,0.6c-0.5,0.8-0.5,2.3-0.1,3.4c0.7,1.8,0.8,1.8,2.3-0.1c1-1.3,1.8-1.6,2.3-0.8
				c0.4,0.7,1.3,0.9,1.9,0.5c0.6-0.4,0.8-1.2,0.4-1.8c-0.4-0.6-1.2-0.7-1.9-0.3c-0.8,0.5-0.9-0.1-0.5-1.6c1-3.2-2.9-6.6-6.5-5.5
				c-2.6,0.8-2.6,0.8-0.6-1.5C339.2,184.2,339.2,183.3,338.2,183.4L338.2,183.4z M245.6,185c0.6,0,1.2,0.5,1.2,1.2
				c0,0.6-0.5,1.2-1.2,1.2c-0.6,0-1.2-0.5-1.2-1.2C244.4,185.5,244.9,185,245.6,185z M317.3,186.5c-0.4,0-0.6,0.1-0.9,0.2
				c-1.7,0.7-1.7,0.9,0.3,2.4c2.6,1.9,4.8,2.2,5.8,0.6C323.3,188.3,319.7,186.3,317.3,186.5L317.3,186.5z M934.3,186.6
				c-0.2,0-0.4,0.1-0.5,0.2c-0.6,0.4-0.8,1.2-0.4,1.8c0.4,0.6,1.2,0.8,1.8,0.4s0.8-1.2,0.4-1.8C935.3,186.7,934.8,186.5,934.3,186.6
				L934.3,186.6z M930.9,190.1c-0.2,0-0.4,0.1-0.5,0.2c-0.6,0.4-0.8,1.2-0.4,1.8c0.4,0.6,1.2,0.8,1.8,0.4c0.6-0.4,0.8-1.2,0.4-1.8
				C931.9,190.2,931.4,190,930.9,190.1L930.9,190.1z M248.3,191.3c0.6,0,1.3,0.3,2.3,0.7c1.6,0.8,3.8,3.1,4.8,5.1
				c1.5,3.1,2.7,3.9,7.2,4.8c3,0.5,5.6,1.6,5.9,2.5c0.3,0.8-0.2,1.3-1,1.2c-0.9-0.2-1.8,1.2-2.2,3.1c-0.7,3.5-0.7,3.5-2.2,0.8
				c-0.8-1.4-1.9-2.4-2.4-2c-0.5,0.3-0.8-0.4-0.4-1.6c0.4-1.4-0.2-2.7-1.7-3.5c-1.9-1-2.6-0.7-4.4,2c-1.2,1.7-2.4,5.5-2.7,8.4
				c-0.4,3.3-1,4.7-1.6,3.7c-0.5-0.8-0.8-2.9-0.6-4.6c0.2-1.7,0-3.7-0.4-4.3c-1-1.6,1.6-4.9,4.3-5.4c6.6-1.3-3.6-5.7-11.4-4.9
				c-4.3,0.4-4.5,0.3-2-0.8c1.6-0.7,4-2.3,5.4-3.5C246.4,191.7,247.2,191.2,248.3,191.3L248.3,191.3z M279.1,194.5
				c0.4,0,0.8,0.1,1.2,0.3c1.3,0.8,0.4,2.9-1.2,2.9c-0.6,0-1.3-0.5-1.7-1.1C276.8,195.6,277.9,194.6,279.1,194.5L279.1,194.5z
				 M927.4,194.7c-0.2,0-0.4,0.1-0.5,0.2c-0.6,0.4-0.8,1.2-0.4,1.8c0.4,0.6,1.2,0.8,1.8,0.4c0.6-0.4,0.8-1.2,0.4-1.8
				C928.4,194.8,927.9,194.6,927.4,194.7L927.4,194.7z M336.2,195.8c-0.2,0-0.4,0.1-0.5,0.2c-0.6,0.4-0.8,1.2-0.4,1.8
				c0.4,0.6,1.2,0.8,1.8,0.4c0.6-0.4,0.8-1.2,0.4-1.8C337.2,196,336.7,195.8,336.2,195.8L336.2,195.8z M644.8,198.2
				c1.9,0,2.3,0.6,2.3,2.7c0,2-0.5,2.6-1.7,2.2c-0.9-0.3-2.2,0.1-3,1c-0.8,0.9-1,1.7-0.5,1.7c0.5,0,0.3,0.7-0.4,1.6
				c-1,1.2-0.6,2.3,1.5,4.6c1.5,1.6,2.5,3.3,2.2,3.6c-0.3,0.3-0.3,1.5,0.2,2.7c0.7,1.9,0.9,1.9,2.2,0.1c1.3-1.8,1.5-1.8,2.8,0.3
				c1.2,1.9,1.1,2.2-0.9,2.2c-3.1,0-4,1.9-1.6,3.4c1.1,0.7,1.7,1.2,1.3,1.2c-0.4,0-0.3,2.1,0.1,4.6c0.7,4,0.5,4.6-1.6,5.2
				c-4.5,1.2-7.3,0.7-9.4-1.7c-2.1-2.3-2.1-2.7-0.3-7.6c1.6-4.3,1.6-5.3,0.3-5.8c-2.2-0.8-6.5-12.9-5.7-15.6
				c0.8-2.6,6.8-5.9,11.2-6.2C644.2,198.2,644.5,198.2,644.8,198.2L644.8,198.2z M270.3,199.3c0.5-0.1,1,0.1,1.3,0.6
				c0.4,0.6,0.2,1.4-0.4,1.8s-1.4,0.2-1.8-0.4c-0.4-0.6-0.2-1.4,0.4-1.8C269.9,199.4,270.1,199.3,270.3,199.3L270.3,199.3z
				 M920.5,199.3c-0.2,0-0.4,0.1-0.5,0.2c-0.6,0.4-0.8,1.2-0.4,1.8c0.4,0.6,1.2,0.8,1.8,0.4c0.6-0.4,0.8-1.2,0.4-1.8
				C921.5,199.4,921,199.2,920.5,199.3L920.5,199.3z M668,201.2c1.5,0,1.2,5.1-0.4,6.7c-1.9,1.9-2.9,1.7-3.7-0.5
				C663.2,205.5,666.1,201.2,668,201.2L668,201.2z M916.6,202.6c-1.2,0-2.3,1.1-1.7,2.1c0.4,0.6,1.1,1.1,1.7,1.1
				c1.6,0,2.5-2.1,1.2-2.9C917.4,202.7,917,202.6,916.6,202.6L916.6,202.6z M898.1,203L898.1,203c-0.8,0.4-1.2,1.7-1.2,4
				c0,2.2-0.6,3.4-1.7,3.4c-2.5,0-3.1,1.8-1.8,5.2c1.1,3,4.4,3.5,3.7,0.7c-0.2-0.9,0.5-1.2,1.9-0.7c1.3,0.4,2.8,0,3.7-1
				c0.8-1,2.1-1.8,3-1.8c2,0,4.3-4.2,2.9-5.1c-0.6-0.4-1.8-0.4-2.7,0c-0.9,0.3-2.8-0.7-4.3-2.3C900.1,203.6,898.9,202.9,898.1,203
				L898.1,203L898.1,203z M912.4,205.1c-0.2,0-0.4,0.1-0.5,0.2c-0.6,0.4-0.8,1.2-0.4,1.8c0.4,0.6,1.2,0.8,1.8,0.4
				c0.6-0.4,0.8-1.2,0.4-1.8C913.4,205.2,912.9,205,912.4,205.1L912.4,205.1z M280.1,208.3c0.1,0,0.2,0,0.3,0c0.2,0,0.3,0.2,0.2,0.5
				c-0.3,0.9-2.4,2.1-4.5,2.7c-2.1,0.6-5.6,2.4-7.8,4.1c-2.2,1.7-4.6,3-5.4,3c-2.2,0,3.1-3.7,11.2-7.8
				C277.1,209.2,279.2,208.4,280.1,208.3L280.1,208.3z M911.2,209.7c-0.2,0-0.4,0.1-0.5,0.2c-0.6,0.4-0.8,1.2-0.4,1.8
				c0.4,0.6,1.2,0.8,1.8,0.4c0.6-0.4,0.8-1.2,0.4-1.8C912.2,209.8,911.7,209.6,911.2,209.7L911.2,209.7z M522.5,213.3
				c-1.1,0-1.8,1.6-0.9,3c0.6,0.9,1.1,0.9,2,0c0.9-0.9,0.9-1.6,0-2.5C523.2,213.4,522.8,213.3,522.5,213.3L522.5,213.3z
				 M895.1,220.2c-1.3,0.1-2.4,1.1-2.6,3c-0.8,6.8-1.4,8.3-3.1,7c-1-0.8-1.9-0.9-2.3-0.2c-0.4,0.6-0.1,1.5,0.5,1.9
				c0.9,0.5,0.8,1.2-0.1,2.4c-1,1.2-1.8,1.3-2.9,0.4c-1.2-1-1.8-0.7-2.6,1.6c-0.8,2.2-2.1,3-6,3.5c-3.2,0.4-5.9,1.7-7.7,3.7
				c-2.1,2.2-3.2,2.7-4.3,1.8c-2.6-2.2-3,0.2-0.5,3.5c1.3,1.8,2,3.8,1.6,4.5c-0.4,0.7-0.5,2-0.1,2.9c1.1,3,3.2,1.8,5-2.8
				c1.3-3.3,2.3-4.4,3.8-4c1.1,0.3,2.6-0.3,3.5-1.3c1.3-1.5,1.1-2-1.2-2.9c-2.7-1.1-2.7-1.1-0.2-1.2c1.5,0,3.1,1,3.9,2.5
				c1.3,2.5,1.4,2.5,3.3,0.3c1.3-1.5,3.3-2.3,6.5-2.3h4.6l1.7-7.1c1-3.9,2.1-7.5,2.6-8c1.4-1.4,1-7-0.6-8.2
				C896.8,220.5,895.9,220.1,895.1,220.2L895.1,220.2z M522.3,221.1c-0.7,0-1.4,0.9-1.4,2.5c0,2.2,0.5,2.8,1.8,2.3
				c1-0.4,1.6-1.5,1.4-2.5C523.9,221.8,523.1,221.1,522.3,221.1L522.3,221.1z M510,222.5c-0.1,0-0.3,0-0.4,0c-0.2,0-0.4,0.1-0.6,0.3
				c-0.8,0.5-1.8,0.9-2.2,0.9c-0.5,0-0.9,0.4-0.9,0.9v1.5c0,0.4,0.7,0.2,1.4-0.3c0.8-0.5,1.8-1,2.3-1s1.2-0.2,1.5-0.3
				c0.4-0.1,0.3-0.7-0.1-1.3C510.9,222.7,510.5,222.5,510,222.5L510,222.5z M501.7,227.1c-0.2,0-0.4,0.1-0.5,0.2
				c-0.6,0.4-0.8,1.2-0.4,1.8c0.4,0.6,1.2,0.8,1.8,0.4c0.6-0.4,0.8-1.2,0.4-1.8C502.6,227.2,502.2,227,501.7,227.1L501.7,227.1z
				 M537.1,231.2c-4.1,0-4.5,1.5-0.9,3.2c3.8,1.8,4.3,1.7,4.3-0.9C540.6,231.7,539.8,231.2,537.1,231.2L537.1,231.2z M554.9,231.7
				c-0.2,0-0.4,0.1-0.5,0.2c-0.6,0.4-0.8,1.2-0.4,1.8c0.4,0.6,1.2,0.8,1.8,0.4c0.6-0.4,0.8-1.2,0.4-1.8
				C555.9,231.8,555.4,231.6,554.9,231.7z M530.6,235.2c-0.2,0-0.4,0.1-0.5,0.2c-0.6,0.4-0.8,1.2-0.4,1.8c0.4,0.6,1.2,0.8,1.8,0.4
				c0.6-0.4,0.8-1.2,0.4-1.8C531.6,235.3,531.1,235.1,530.6,235.2L530.6,235.2z M572.2,235.2c-0.2,0-0.4,0.1-0.5,0.2
				c-0.6,0.4-0.8,1.2-0.4,1.8c0.4,0.6,1.2,0.8,1.8,0.4c0.6-0.4,0.8-1.2,0.4-1.8C573.2,235.3,572.7,235.1,572.2,235.2L572.2,235.2z
				 M566.4,236.3c-0.2,0-0.4,0.1-0.5,0.2c-0.6,0.4-0.8,1.2-0.4,1.8c0.4,0.6,1.2,0.8,1.8,0.4c0.6-0.4,0.8-1.2,0.4-1.8
				C567.4,236.5,566.9,236.3,566.4,236.3L566.4,236.3z M590.7,239.5c-0.5,0-1.1,0.1-1.5,0.4c-0.7,0.4-0.9,1.3-0.6,1.8
				c0.9,1.4,3.7,1.4,4.6-0.1C593.9,240.6,592.3,239.5,590.7,239.5L590.7,239.5z M536.4,239.8c-0.2,0-0.4,0.1-0.5,0.2
				c-0.6,0.4-0.8,1.2-0.4,1.8c0.4,0.6,1.2,0.8,1.8,0.4c0.6-0.4,0.8-1.2,0.4-1.8C537.4,239.9,536.9,239.7,536.4,239.8L536.4,239.8z
				 M531.7,241c-0.2,0-0.4,0.1-0.5,0.2c-0.6,0.4-0.8,1.2-0.4,1.8c0.4,0.6,1.2,0.8,1.8,0.4c0.6-0.4,0.8-1.2,0.4-1.8
				C532.7,241.1,532.2,240.9,531.7,241L531.7,241z M567.3,241.8c-0.4,0-0.7,0.1-0.9,0.3c-0.4,0.4,0.3,0.6,1.5,0.6
				c1.3-0.1,1.6-0.3,0.7-0.7C568.2,241.8,567.7,241.8,567.3,241.8L567.3,241.8z M855.7,247.9c-0.2,0-0.4,0.1-0.5,0.2
				c-0.6,0.4-0.8,1.2-0.4,1.8c0.4,0.6,1.2,0.8,1.8,0.4c0.6-0.4,0.8-1.2,0.4-1.8C856.7,248,856.2,247.8,855.7,247.9L855.7,247.9z
				 M311.9,250.2c-0.2,0-0.4,0.1-0.5,0.2c-0.6,0.4-0.8,1.2-0.4,1.8c0.4,0.6,1.2,0.8,1.8,0.4c0.6-0.4,0.8-1.2,0.4-1.8
				C312.9,250.3,312.4,250.1,311.9,250.2L311.9,250.2z M448.4,251.4c-0.2,0-0.4,0.1-0.5,0.2c-0.6,0.4-0.8,1.2-0.4,1.8
				c0.4,0.6,1.2,0.8,1.8,0.4c0.6-0.4,0.8-1.2,0.4-1.8C449.4,251.5,448.9,251.3,448.4,251.4L448.4,251.4z M860.3,251.4
				c-0.2,0-0.4,0.1-0.5,0.2c-0.6,0.4-0.8,1.2-0.4,1.8c0.4,0.6,1.2,0.8,1.8,0.4c0.6-0.4,0.8-1.2,0.4-1.8
				C861.3,251.5,860.8,251.3,860.3,251.4L860.3,251.4z M446.1,265.3c-0.2,0-0.4,0.1-0.5,0.2c-0.6,0.4-0.8,1.2-0.4,1.8
				c0.4,0.6,1.2,0.8,1.8,0.4c0.6-0.4,0.8-1.2,0.4-1.8C447.1,265.4,446.6,265.2,446.1,265.3L446.1,265.3z M456.5,266.4
				c-0.2,0-0.4,0.1-0.5,0.2c-0.6,0.4-0.8,1.2-0.4,1.8c0.4,0.6,1.2,0.8,1.8,0.4c0.6-0.4,0.8-1.2,0.4-1.8
				C457.5,266.5,457,266.3,456.5,266.4L456.5,266.4z M863.8,266.4c-0.2,0-0.4,0.1-0.5,0.2c-0.6,0.4-0.8,1.2-0.4,1.8
				c0.4,0.6,1.2,0.8,1.8,0.4c0.6-0.4,0.8-1.2,0.4-1.8C864.8,266.5,864.3,266.3,863.8,266.4L863.8,266.4z M450.8,267.6
				c-0.2,0-0.4,0.1-0.5,0.2c-0.6,0.4-0.8,1.2-0.4,1.8c0.4,0.6,1.2,0.8,1.8,0.4c0.6-0.4,0.8-1.2,0.4-1.8
				C451.7,267.7,451.3,267.5,450.8,267.6L450.8,267.6z M273.7,269.9c-0.2,0-0.4,0.1-0.5,0.2c-0.6,0.4-0.8,1.2-0.4,1.8
				c0.4,0.6,1.2,0.8,1.8,0.4c0.6-0.4,0.8-1.2,0.4-1.8C274.7,270,274.2,269.8,273.7,269.9L273.7,269.9z M446.1,269.9
				c-0.2,0-0.4,0.1-0.5,0.2c-0.6,0.4-0.8,1.2-0.4,1.8c0.4,0.6,1.2,0.8,1.8,0.4c0.6-0.4,0.8-1.2,0.4-1.8
				C447.1,270,446.6,269.8,446.1,269.9L446.1,269.9z M278.4,271c-0.2,0-0.4,0.1-0.5,0.2c-0.6,0.4-0.8,1.2-0.4,1.8
				c0.4,0.6,1.2,0.8,1.8,0.4c0.6-0.4,0.8-1.2,0.4-1.8C279.4,271.2,278.9,271,278.4,271z M859.4,271.3c-1.5,0-3.3,2.4-2.3,4
				c0.6,0.9,1.4,0.8,2.7-0.5c1.3-1.3,1.5-2.2,0.6-3C860.1,271.4,859.7,271.3,859.4,271.3L859.4,271.3z M650.9,274.5
				c-0.2,0-0.4,0.1-0.5,0.2c-0.6,0.4-0.8,1.2-0.4,1.8c0.4,0.6,1.2,0.8,1.8,0.4c0.6-0.4,0.8-1.2,0.4-1.8
				C651.9,274.6,651.4,274.4,650.9,274.5z M273.7,275.7c-0.2,0-0.4,0.1-0.5,0.2c-0.6,0.4-0.8,1.2-0.4,1.8c0.4,0.6,1.2,0.8,1.8,0.4
				c0.6-0.4,0.8-1.2,0.4-1.8C274.7,275.8,274.2,275.6,273.7,275.7L273.7,275.7z M279.5,275.7c-0.2,0-0.4,0.1-0.5,0.2
				c-0.6,0.4-0.8,1.2-0.4,1.8c0.4,0.6,1.2,0.8,1.8,0.4c0.6-0.4,0.8-1.2,0.4-1.8C280.5,275.8,280,275.6,279.5,275.7L279.5,275.7z
				 M852.2,278c-0.2,0-0.4,0.1-0.5,0.2c-0.6,0.4-0.8,1.2-0.4,1.8c0.4,0.6,1.2,0.8,1.8,0.4c0.6-0.4,0.8-1.2,0.4-1.8
				C853.2,278.1,852.7,277.9,852.2,278z M276.1,279.1c-0.2,0-0.4,0.1-0.5,0.2c-0.6,0.4-0.8,1.2-0.4,1.8c0.4,0.6,1.2,0.8,1.8,0.4
				c0.6-0.4,0.8-1.2,0.4-1.8C277,279.3,276.6,279.1,276.1,279.1L276.1,279.1z M281.8,279.1c-0.2,0-0.4,0.1-0.5,0.2
				c-0.6,0.4-0.8,1.2-0.4,1.8c0.4,0.6,1.2,0.8,1.8,0.4c0.6-0.4,0.8-1.2,0.4-1.8C282.8,279.3,282.3,279.1,281.8,279.1L281.8,279.1z
				 M847.6,279.1c-0.2,0-0.4,0.1-0.5,0.2c-0.6,0.4-0.8,1.2-0.4,1.8c0.4,0.6,1.2,0.8,1.8,0.4c0.6-0.4,0.8-1.2,0.4-1.8
				C848.6,279.3,848.1,279.1,847.6,279.1L847.6,279.1z M840.4,279.4c-0.2,0-0.5,0.2-0.8,0.5c-1.7,1.4-2.3,7-0.9,8.4
				c1.1,1.1,1.2,0.8,1.9-4.8C841,280.4,841,279.3,840.4,279.4L840.4,279.4z M279.5,282.6c-0.2,0-0.4,0.1-0.5,0.2
				c-0.6,0.4-0.8,1.2-0.4,1.8c0.4,0.6,1.1,0.8,1.7,0.5c0.5-0.3,1.3-0.1,1.7,0.6c0.4,0.7,1.2,0.9,1.8,0.5c0.6-0.4,0.8-1.2,0.4-1.8
				c-0.4-0.6-1.1-0.8-1.7-0.5c-0.5,0.3-1.3,0.1-1.7-0.6C280.6,282.8,280,282.6,279.5,282.6L279.5,282.6z M263.4,284.6
				c-1.8,0-3.3,0.5-4.6,1.5c-2.2,1.6-2.2,1.7,0.7,2.7c1.6,0.6,2.8,1.4,2.6,1.8c-0.6,1.5-0.2,2,0.9,1.3c0.8-0.5,0.8-1.3-0.1-2.4
				c-0.9-1.1-1-1.6-0.1-1.6c1.9,0,14,5.9,13.9,6.8c-0.1,0.4,0,1.1,0,1.6c0.2,1.5,6.8,0.9,8.1-0.7c1.1-1.3-0.5-2.5-8.1-6.4
				C270.5,286.1,266.5,284.6,263.4,284.6L263.4,284.6z M287.6,286.1c-0.2,0-0.4,0.1-0.5,0.2c-0.6,0.4-0.8,1.2-0.4,1.8
				c0.4,0.6,1.2,0.8,1.8,0.4c0.6-0.4,0.8-1.2,0.4-1.8C288.6,286.2,288.1,286,287.6,286.1z M45.8,287.2c-0.2,0-0.4,0.1-0.5,0.2
				c-0.6,0.4-0.8,1.2-0.4,1.8c0.4,0.6,1.2,0.8,1.8,0.4c0.6-0.4,0.8-1.2,0.4-1.8C46.8,287.4,46.3,287.2,45.8,287.2L45.8,287.2z
				 M292.3,287.2c-0.2,0-0.4,0.1-0.5,0.2c-0.6,0.4-0.8,1.2-0.4,1.8c0.4,0.6,1.2,0.8,1.8,0.4c0.6-0.4,0.8-1.2,0.4-1.8
				C293.2,287.4,292.8,287.2,292.3,287.2L292.3,287.2z M50,289.4c-1.2,0-2.3,1.1-1.7,2.1c0.4,0.6,1.1,1.1,1.7,1.1
				c1.6,0,2.5-2.1,1.2-2.9C50.9,289.4,50.4,289.4,50,289.4L50,289.4z M289.9,290.7c-0.2,0-0.4,0.1-0.5,0.2c-0.6,0.4-0.8,1.2-0.4,1.8
				c0.4,0.6,1.2,0.8,1.8,0.4c0.6-0.4,0.8-1.2,0.4-1.8C290.9,290.8,290.4,290.6,289.9,290.7L289.9,290.7z M55,291.9
				c-0.2,0-0.4,0.1-0.5,0.2c-0.7,0.5-0.7,1.2,0.1,2.2c0.7,0.8,0.9,1.8,0.5,2.1c-0.4,0.4-0.3,1.2,0.1,1.9c1,1.6,2.6,1.6,3.6-0.1
				c0.5-0.7-0.1-2-1.3-2.9c-1.2-0.9-1.7-1.6-1.3-1.6c0.5,0,0.5-0.5,0.1-1.2C56.1,292,55.6,291.8,55,291.9L55,291.9z M807.5,296.1
				c-0.9,0.1-2,0.7-2.4,1.8c-0.5,1.3-0.1,1.7,1.2,1.4c1.1-0.2,2.1-1,2.4-1.8C809.1,296.4,808.4,296,807.5,296.1L807.5,296.1z
				 M292.8,297.8c-1.8,0-2.9,0.2-2.5,0.8c0.3,0.5-0.4,1.3-1.6,1.7c-3.2,1.3,4,2.4,8.2,1.3c1.8-0.5,3.8-0.6,4.3-0.3
				c0.5,0.3,1,0.1,1-0.5c0-0.6-1.4-1.5-3.2-2C297,298.2,294.6,297.8,292.8,297.8L292.8,297.8z M308,299.8c-1.2,0-2.3,1.1-1.7,2.1
				c0.4,0.6,1.1,1.1,1.7,1.1c1.6,0,2.5-2.1,1.2-2.9C308.9,299.8,308.4,299.8,308,299.8L308,299.8z M276,300.8
				c-0.5,0-1.1,0.1-1.5,0.4c-0.7,0.4-0.9,1.3-0.6,1.8c0.9,1.4,3.7,1.4,4.6-0.1C279.2,301.9,277.6,300.8,276,300.8L276,300.8z
				 M840.1,301.1c-1.7,0.1-2.1,1.1-2.7,5.6c-0.8,6.4,0.1,8.4,4.6,9.5c2.9,0.7,6.8,6.7,5.4,8.2c-0.5,0.5-0.2,0.5,0.7,0.1
				c0.8-0.5,1.1-1.5,0.7-2.2h0c-0.5-0.8,0-0.7,1.2,0.2c4,3.3,1.7-0.2-3.8-5.7c-6.3-6.3-6.6-7-4-9.1c2.8-2.3,2.2-6.3-1-6.5
				C840.7,301.1,840.4,301,840.1,301.1L840.1,301.1z M313.1,302.3c-0.2,0-0.4,0.1-0.5,0.2c-0.6,0.4-0.8,1.2-0.4,1.8
				c0.4,0.6,1.2,0.8,1.8,0.4c0.6-0.4,0.8-1.2,0.4-1.8C314.1,302.4,313.6,302.2,313.1,302.3L313.1,302.3z M255.2,303.4
				c-0.2,0-0.4,0.1-0.5,0.2c-0.6,0.4-0.8,1.2-0.4,1.8c0.4,0.6,1.2,0.8,1.8,0.4c0.6-0.4,0.8-1.2,0.4-1.8
				C256.2,303.6,255.7,303.4,255.2,303.4L255.2,303.4z M317.7,303.4c-0.2,0-0.4,0.1-0.5,0.2c-0.6,0.4-0.8,1.2-0.4,1.8
				c0.4,0.6,1.2,0.8,1.8,0.4c0.6-0.4,0.8-1.2,0.4-1.8C318.7,303.6,318.2,303.4,317.7,303.4L317.7,303.4z M322.3,304.6
				c-0.2,0-0.4,0.1-0.5,0.2c-0.6,0.4-0.8,1.2-0.4,1.8c0.4,0.6,1.2,0.8,1.8,0.4c0.6-0.4,0.8-1.2,0.4-1.8
				C323.3,304.7,322.8,304.5,322.3,304.6L322.3,304.6z M425.3,306.9c-0.2,0-0.4,0.1-0.5,0.2c-0.6,0.4-0.8,1.2-0.4,1.8
				c0.4,0.6,1.2,0.8,1.8,0.4c0.6-0.4,0.8-1.2,0.4-1.8C426.3,307,425.8,306.8,425.3,306.9L425.3,306.9z M432.2,308.1
				c-0.2,0-0.4,0.1-0.5,0.2c-0.6,0.4-0.8,1.2-0.4,1.8c0.4,0.6,1.2,0.8,1.8,0.4c0.6-0.4,0.8-1.2,0.4-1.8
				C433.2,308.2,432.7,308,432.2,308.1L432.2,308.1z M322.3,309.2c-0.2,0-0.4,0.1-0.5,0.2c-0.6,0.4-0.8,1.2-0.4,1.8
				c0.4,0.6,1.2,0.8,1.8,0.4c0.6-0.4,0.8-1.2,0.4-1.8C323.3,309.3,322.8,309.1,322.3,309.2L322.3,309.2z M910.1,310.4
				c-0.2,0-0.4,0.1-0.5,0.2c-0.6,0.4-0.8,1.2-0.4,1.8c0.4,0.6,1.2,0.8,1.8,0.4c0.6-0.4,0.8-1.2,0.4-1.8
				C911,310.5,910.6,310.3,910.1,310.4L910.1,310.4z M971.4,311.5c-0.2,0-0.4,0.1-0.5,0.2c-0.6,0.4-0.8,1.2-0.4,1.8
				c0.4,0.6,1.2,0.8,1.8,0.4c0.6-0.4,0.8-1.2,0.4-1.8C972.4,311.7,971.9,311.5,971.4,311.5L971.4,311.5z M427.6,312.7
				c-0.2,0-0.4,0.1-0.5,0.2c-0.6,0.4-0.8,1.2-0.4,1.8c0.4,0.6,1.2,0.8,1.8,0.4c0.6-0.4,0.8-1.2,0.4-1.8
				C428.6,312.8,428.1,312.6,427.6,312.7L427.6,312.7z M432.2,312.7c-0.2,0-0.4,0.1-0.5,0.2c-0.6,0.4-0.8,1.2-0.4,1.8
				c0.4,0.6,1.2,0.8,1.8,0.4c0.6-0.4,0.8-1.2,0.4-1.8C433.2,312.8,432.7,312.6,432.2,312.7L432.2,312.7z M323.5,313.9
				c-0.2,0-0.4,0.1-0.5,0.2c-0.6,0.4-0.8,1.1-0.5,1.7c0.3,0.5,0.1,1.3-0.6,1.7c-0.7,0.4-0.9,1.2-0.5,1.8c0.4,0.6,1.2,0.8,1.8,0.4
				c0.6-0.4,0.8-1.1,0.5-1.7c-0.3-0.5-0.1-1.3,0.6-1.7c0.7-0.4,0.9-1.2,0.5-1.8C324.5,314,324,313.8,323.5,313.9L323.5,313.9z
				 M849.9,313.9c-0.2,0-0.4,0.1-0.5,0.2c-0.6,0.4-0.8,1.2-0.4,1.8c0.4,0.6,1.2,0.8,1.8,0.4c0.6-0.4,0.8-1.2,0.4-1.8
				C850.9,314,850.4,313.8,849.9,313.9L849.9,313.9z M906.6,315c-0.2,0-0.4,0.1-0.5,0.2c-0.6,0.4-0.8,1.2-0.4,1.8
				c0.4,0.6,1.2,0.8,1.8,0.4c0.6-0.4,0.8-1.2,0.4-1.8C907.6,315.1,907.1,314.9,906.6,315L906.6,315z M328.1,318.5
				c-0.2,0-0.4,0.1-0.5,0.2c-0.6,0.4-0.8,1.2-0.4,1.8c0.4,0.6,1.2,0.8,1.8,0.4c0.6-0.4,0.8-1.2,0.4-1.8
				C329.1,318.6,328.6,318.4,328.1,318.5L328.1,318.5z M839.5,318.6c-1.1,0-1.8,1.6-0.9,3c0.6,0.9,1.1,0.9,2,0
				c0.9-0.9,0.9-1.6,0-2.5C840.2,318.7,839.8,318.5,839.5,318.6L839.5,318.6z M302.6,319.6c-0.2,0-0.4,0.1-0.5,0.2
				c-0.6,0.4-0.8,1.2-0.4,1.8c0.4,0.6,1.2,0.8,1.8,0.4c0.6-0.4,0.8-1.2,0.4-1.8C303.6,319.8,303.1,319.6,302.6,319.6L302.6,319.6z
				 M758.5,319.6c-0.2,0-0.4,0.1-0.5,0.2c-0.6,0.4-0.8,1.2-0.4,1.8c0.4,0.6,1.2,0.8,1.8,0.4c0.6-0.4,0.8-1.2,0.4-1.8
				C759.5,319.8,759,319.6,758.5,319.6L758.5,319.6z M307.3,320.8c-0.2,0-0.4,0.1-0.5,0.2c-0.6,0.4-0.8,1.2-0.4,1.8
				c0.4,0.6,1.2,0.8,1.8,0.4c0.6-0.4,0.8-1.2,0.4-1.8C308.3,320.9,307.8,320.7,307.3,320.8L307.3,320.8z M648.6,320.8
				c-0.2,0-0.4,0.1-0.5,0.2c-0.6,0.4-0.8,1.2-0.4,1.8c0.4,0.6,1.2,0.8,1.8,0.4c0.6-0.4,0.8-1.2,0.4-1.8
				C649.6,320.9,649.1,320.7,648.6,320.8L648.6,320.8z M321.2,321.9c-0.2,0-0.4,0.1-0.5,0.2c-0.6,0.4-0.8,1.2-0.4,1.8
				c0.4,0.6,1.2,0.8,1.8,0.4c0.6-0.4,0.8-1.2,0.4-1.8C322.1,322.1,321.7,321.9,321.2,321.9L321.2,321.9z M836,321.9
				c-0.2,0-0.4,0.1-0.5,0.2c-0.6,0.4-0.8,1.2-0.4,1.8c0.4,0.6,1.2,0.8,1.8,0.4s0.8-1.2,0.4-1.8C837,322.1,836.5,321.9,836,321.9
				L836,321.9z M758.5,324.3c-0.2,0-0.4,0.1-0.5,0.2c-0.6,0.4-0.8,1.2-0.4,1.8c0.4,0.6,1.2,0.8,1.8,0.4c0.6-0.4,0.8-1.2,0.4-1.8
				C759.5,324.4,759,324.2,758.5,324.3L758.5,324.3z M842.9,324.3c-0.2,0-0.4,0.1-0.5,0.2c-0.6,0.4-0.8,1.2-0.4,1.8
				c0.4,0.6,1.2,0.8,1.8,0.4c0.6-0.4,0.8-1.2,0.4-1.8C843.9,324.4,843.4,324.2,842.9,324.3L842.9,324.3z M324.6,325.4
				c-0.2,0-0.4,0.1-0.5,0.2c-0.6,0.4-0.8,1.2-0.4,1.8c0.4,0.6,1.2,0.8,1.8,0.4c0.6-0.4,0.8-1.2,0.4-1.8
				C325.6,325.5,325.1,325.3,324.6,325.4z M292.5,326.3c0,0-0.1,0-0.1,0.1c-0.3,0.3-0.3,1.5,0.1,2.5c0.4,1.1,1,1.7,1.3,1.4
				c0.3-0.3,0.2-1.5-0.2-2.5C293.3,326.8,292.8,326.2,292.5,326.3L292.5,326.3z M833.5,327.3c-0.9,0-3.7,4.9-3.7,6.4
				c0,1.5,1.3,0.1,2.9-3C833.7,328.8,834,327.3,833.5,327.3L833.5,327.3z M853.3,327.7c-0.2,0-0.4,0.1-0.5,0.2
				c-0.6,0.4-0.8,1.2-0.4,1.8c0.4,0.6,1.2,0.8,1.8,0.4c0.6-0.4,0.8-1.2,0.4-1.8C854.3,327.9,853.8,327.7,853.3,327.7L853.3,327.7z
				 M789.7,328.9c-0.2,0-0.4,0.1-0.5,0.2c-0.6,0.4-0.8,1.2-0.4,1.8c0.4,0.6,1.2,0.8,1.8,0.4c0.6-0.4,0.8-1.2,0.4-1.8
				C790.7,329,790.2,328.8,789.7,328.9L789.7,328.9z M932,332.4c-0.2,0-0.4,0.1-0.5,0.2c-0.6,0.4-0.8,1.2-0.4,1.8
				c0.4,0.6,1.2,0.8,1.8,0.4c0.6-0.4,0.8-1.2,0.4-1.8C933,332.5,932.5,332.3,932,332.4L932,332.4z M980.6,332.4
				c-0.2,0-0.4,0.1-0.5,0.2c-0.6,0.4-0.8,1.2-0.4,1.8c0.4,0.6,1.2,0.8,1.8,0.4c0.6-0.4,0.8-1.2,0.4-1.8
				C981.6,332.5,981.1,332.3,980.6,332.4L980.6,332.4z M852.9,333.2c-0.7,0-1.8,0.5-3.7,1.5c-2.3,1.2-3.2,1.3-3.2,0.3
				c0-1.6-3.4,2.6-3.4,4.2c0,0.6,0.8,0.4,1.7-0.3c1.9-1.6,4.1-0.7,4.1,1.7c0,2.4,2.5,2.7,4.6,0.7c1.1-1.1,1.6-3.1,1.4-5
				C854,334.2,853.8,333.2,852.9,333.2L852.9,333.2z M724.2,333.5c-0.8-0.1-1.5,0.9-1.8,2.9c-0.7,4.9,1,6.9,4.2,4.9
				c1.1-0.7,1.2-1.8,0.1-4.7C726,334.6,725.1,333.5,724.2,333.5L724.2,333.5z M702.9,334.7c-0.2,0-0.4,0.1-0.5,0.2
				c-0.6,0.4-0.8,1.2-0.4,1.8c0.4,0.6,1.2,0.8,1.8,0.4c0.6-0.4,0.8-1.2,0.4-1.8C703.9,334.8,703.4,334.6,702.9,334.7L702.9,334.7z
				 M923.9,334.7c-0.2,0-0.4,0.1-0.5,0.2c-0.6,0.4-0.8,1.2-0.4,1.8c0.4,0.6,1.2,0.8,1.8,0.4s0.8-1.2,0.4-1.8
				C924.9,334.8,924.4,334.6,923.9,334.7z M928.5,335.8c-0.2,0-0.4,0.1-0.5,0.2c-0.6,0.4-0.8,1.2-0.4,1.8c0.4,0.6,1.2,0.8,1.8,0.4
				c0.6-0.4,0.8-1.2,0.4-1.8C929.5,336,929,335.8,928.5,335.8L928.5,335.8z M878,339.2c-0.3,0-0.6,0.2-0.9,0.6
				c-0.7,0.7-0.9,2.2-0.5,3.3c0.6,1.5,1.1,1.7,2,0.8c0.7-0.7,0.9-2.2,0.5-3.3C878.7,339.5,878.4,339.1,878,339.2L878,339.2z
				 M702.9,339.3c-0.2,0-0.4,0.1-0.5,0.2c-0.6,0.4-0.8,1.2-0.4,1.8c0.4,0.6,1.2,0.8,1.8,0.4c0.6-0.4,0.8-1.2,0.4-1.8
				C703.9,339.4,703.4,339.2,702.9,339.3L702.9,339.3z M761.9,340.5c-0.2,0-0.4,0.1-0.5,0.2c-0.6,0.4-0.8,1.2-0.4,1.8
				c0.4,0.6,1.2,0.8,1.8,0.4c0.6-0.4,0.8-1.2,0.4-1.8C762.9,340.6,762.4,340.4,761.9,340.5L761.9,340.5z M896.2,340.5
				c-0.2,0-0.4,0.1-0.5,0.2c-0.6,0.4-0.8,1.2-0.4,1.8c0.4,0.6,1.2,0.8,1.8,0.4c0.6-0.4,0.8-1.2,0.4-1.8
				C897.1,340.6,896.6,340.4,896.2,340.5z M915.8,340.5c-0.2,0-0.4,0.1-0.5,0.2c-0.6,0.4-0.8,1.2-0.4,1.8c0.4,0.6,1.2,0.8,1.8,0.4
				c0.6-0.4,0.8-1.2,0.4-1.8C916.8,340.6,916.3,340.4,915.8,340.5L915.8,340.5z M827.6,341.4l-6.3,6.3c-3.5,3.4-7.1,6.3-8,6.3
				c-0.9,0-2,1-2.3,2.2c-0.3,1.2-1.8,2.4-3.3,2.6c-2.3,0.3-2.7,1-2.4,3.8c0.2,1.9,1.8,5.5,3.5,8.1c2.7,4,3.7,4.7,7.3,4.7
				c2.3,0,4.6,0.4,5,0.9c0.5,0.5,1.5,0.3,2.2-0.3c0.8-0.6,1.7-0.8,2.1-0.4c0.4,0.4,0.5-0.8,0.1-2.7c-0.4-2.1-0.2-3.9,0.6-4.3
				c0.7-0.4,2.1-2.6,3-4.8c0.9-2.2,2.3-4,3-4c1,0,1-0.4,0-1.7c-0.8-0.9-1.1-2.2-0.7-2.7c0.4-0.6-0.5-1.4-1.8-1.7
				c-2.5-0.6-2.5-0.7,0.7-3.9l3.2-3.2l-3-2.5L827.6,341.4L827.6,341.4z M838.3,342.8c-0.2,0-0.4,0.1-0.5,0.2
				c-0.6,0.4-0.8,1.2-0.4,1.8c0.4,0.6,1.2,0.8,1.8,0.4c0.6-0.4,0.8-1.2,0.4-1.8C839.3,342.9,838.8,342.7,838.3,342.8L838.3,342.8z
				 M911.2,342.8c-0.2,0-0.4,0.1-0.5,0.2c-0.6,0.4-0.8,1.2-0.4,1.8c0.4,0.6,1.2,0.8,1.8,0.4c0.6-0.4,0.8-1.2,0.4-1.8
				C912.2,342.9,911.7,342.7,911.2,342.8z M704.1,343.9c-0.2,0-0.4,0.1-0.5,0.2c-0.6,0.4-0.8,1.2-0.4,1.8c0.4,0.6,1.2,0.8,1.8,0.4
				c0.6-0.4,0.8-1.2,0.4-1.8C705.1,344.1,704.6,343.9,704.1,343.9L704.1,343.9z M958.6,345.1c-0.2,0-0.4,0.1-0.5,0.2
				c-0.6,0.4-0.8,1.2-0.4,1.8c0.4,0.6,1.2,0.8,1.8,0.4c0.6-0.4,0.8-1.2,0.4-1.8C959.6,345.2,959.1,345,958.6,345.1L958.6,345.1z
				 M767.3,345.9l4.7,5.9c2.6,3.2,4.7,6.8,4.7,7.8s1.3,3.2,2.9,4.7s2.9,3.6,2.9,4.6c0,2.3,9.4,12.8,11,12.4c0.6-0.2,1.3-1.6,1.6-3.1
				c0.2-1.5,0.9-3.5,1.6-4.2c1.3-1.6,0.1-4.1-1.5-3.1c-1.3,0.8-8.1-5.3-7.3-6.6c0.3-0.5-2.3-3.6-5.7-7c-3.4-3.4-6.4-6.8-6.7-7.6
				s-2.2-1.9-4.3-2.5L767.3,345.9L767.3,345.9z M702.9,348.6c-0.2,0-0.4,0.1-0.5,0.2c-0.6,0.4-0.8,1.2-0.4,1.8
				c0.4,0.6,1.2,0.8,1.8,0.4c0.6-0.4,0.8-1.2,0.4-1.8C703.9,348.7,703.4,348.5,702.9,348.6L702.9,348.6z M802.4,349.7
				c-0.2,0-0.4,0.1-0.5,0.2c-0.6,0.4-0.8,1.2-0.4,1.8c0.4,0.6,1.2,0.8,1.8,0.4c0.6-0.4,0.8-1.2,0.4-1.8
				C803.4,349.8,802.9,349.6,802.4,349.7L802.4,349.7z M519,350.9c-0.2,0-0.4,0.1-0.5,0.2c-0.6,0.4-0.8,1.2-0.4,1.8
				c0.4,0.6,1.2,0.8,1.8,0.4c0.6-0.4,0.8-1.2,0.4-1.8C520,351,519.5,350.8,519,350.9L519,350.9z M767.7,353.2
				c-0.2,0-0.4,0.1-0.5,0.2c-0.6,0.4-0.8,1.2-0.4,1.8c0.4,0.6,1.2,0.8,1.8,0.4c0.6-0.4,0.8-1.2,0.4-1.8
				C768.7,353.3,768.2,353.1,767.7,353.2L767.7,353.2z M860.3,353.2c-0.2,0-0.4,0.1-0.5,0.2c-0.6,0.4-0.8,1.2-0.4,1.8
				c0.4,0.6,1.2,0.8,1.8,0.4c0.6-0.4,0.8-1.2,0.4-1.8C861.3,353.3,860.8,353.1,860.3,353.2L860.3,353.2z M516.7,355.5
				c-0.2,0-0.4,0.1-0.5,0.2c-0.6,0.4-0.8,1.2-0.4,1.8c0.4,0.6,1.2,0.8,1.8,0.4c0.6-0.4,0.8-1.2,0.4-1.8
				C517.7,355.6,517.2,355.4,516.7,355.5L516.7,355.5z M239,357.8c-0.2,0-0.4,0.1-0.5,0.2c-0.6,0.4-0.8,1.2-0.4,1.8
				c0.4,0.6,1.2,0.8,1.8,0.4c0.6-0.4,0.8-1.2,0.4-1.8C240,357.9,239.5,357.7,239,357.8L239,357.8z M859.4,358.9
				c-1.3,0-1.7,1.1-1.6,3.9c0.2,4.3,1.5,3.8,2.6-0.9C861,359.6,860.7,358.9,859.4,358.9L859.4,358.9z M772.4,359
				c-0.2,0-0.4,0.1-0.5,0.2c-0.6,0.4-0.8,1.2-0.4,1.8c0.4,0.6,1.2,0.8,1.8,0.4c0.6-0.4,0.8-1.2,0.4-1.8
				C773.3,359.1,772.9,358.9,772.4,359L772.4,359z M982.9,359c-0.2,0-0.4,0.1-0.5,0.2c-0.6,0.4-0.8,1.2-0.4,1.8
				c0.4,0.6,1.2,0.8,1.8,0.4c0.6-0.4,0.8-1.2,0.4-1.8C983.9,359.1,983.4,358.9,982.9,359L982.9,359z M847.5,360.1c-0.8,0-1.7,0-3,0
				c-3.6,0.1-7,0.7-7.6,1.3c-2,2.1-3.8,13.4-2.4,15.1c0.7,0.8,1,2,0.6,2.7c-0.6,1,1.5,5.9,2.5,5.9c0.2,0,0-2.1-0.4-4.6
				c-1.4-8.8,2.3-10.8,4-2.2c1,4.8,3,5.1,3.1,0.4c0-2.3-0.9-4.3-2.8-5.9c-3.4-2.9-2.4-5.7,1.7-4.6c1.7,0.4,2.7,0.2,2.7-0.6
				c0-0.8-1.7-1.1-4.2-0.9c-2.9,0.2-4.4-0.2-4.8-1.3c-0.8-2.4,3.1-4.7,6.8-3.9c1.8,0.4,4.1,0.1,5.3-0.5
				C850.2,360.4,849.8,360.1,847.5,360.1L847.5,360.1z M513.2,360.1c-0.2,0-0.4,0.1-0.5,0.2c-0.6,0.4-0.8,1.2-0.4,1.8
				c0.4,0.6,1.2,0.8,1.8,0.4c0.6-0.4,0.8-1.2,0.4-1.8C514.2,360.3,513.7,360.1,513.2,360.1L513.2,360.1z M864.9,362.4
				c-0.2,0-0.4,0.1-0.5,0.2c-0.6,0.4-0.8,1.2-0.4,1.8c0.4,0.6,1.2,0.8,1.8,0.4c0.6-0.4,0.8-1.2,0.4-1.8
				C865.9,362.6,865.4,362.4,864.9,362.4L864.9,362.4z M239,363.6c-0.2,0-0.4,0.1-0.5,0.2c-0.6,0.4-0.8,1.2-0.4,1.8
				c0.4,0.6,1.2,0.8,1.8,0.4c0.6-0.4,0.8-1.2,0.4-1.8C240,363.7,239.5,363.5,239,363.6L239,363.6z M967.9,363.6
				c-0.2,0-0.4,0.1-0.5,0.2c-0.6,0.4-0.8,1.2-0.4,1.8c0.4,0.6,1.2,0.8,1.8,0.4c0.6-0.4,0.8-1.2,0.4-1.8
				C968.9,363.7,968.4,363.5,967.9,363.6L967.9,363.6z M234.4,363.7c-1.1,0-1.8,1.6-0.9,3c0.6,0.9,1.1,0.9,2,0
				c0.9-0.9,0.9-1.6,0-2.5C235.1,363.8,234.7,363.7,234.4,363.7L234.4,363.7z M243.6,364.8c-0.2,0-0.4,0.1-0.5,0.2
				c-0.6,0.4-0.8,1.2-0.4,1.8c0.4,0.6,1.2,0.8,1.8,0.4c0.6-0.4,0.8-1.2,0.4-1.8C244.6,364.9,244.1,364.7,243.6,364.8L243.6,364.8z
				 M869.3,365.9c-1.8,0.1-0.5,1.8,3.1,3.2c2.8,1.1,2.9,1.3,1.1,2.6c-1.2,0.9-1.6,2-1,2.9c0.6,1,1.2,1.1,1.7,0.3
				c1.1-1.7,11.9,4,14.2,7.6c1.7,2.5,1.6,3-0.4,5.2c-1.8,2.1-1.9,2.4-0.3,1.8c1-0.4,3.8,0.3,6.1,1.5c4.7,2.5,8.9,2.9,8.5,0.9
				c-0.2-0.7,1.1-1.9,2.9-2.5c2.5-0.9,3.6-0.7,5.5,1c1.3,1.2,2.3,2.8,2.3,3.7c0,0.8,1.7,2,3.8,2.6c6,1.7,6.3,1.4,2.1-2.2
				c-2.2-1.9-4.1-4.6-4.2-6c-0.2-1.5-0.3-3-0.4-3.4c-0.2-1.8-13.3-9.6-20.4-12.1l-7.8-2.8l-2.7,2.5c-2.6,2.4-2.8,2.5-5,0.5
				c-1.2-1.1-2-2.8-1.6-3.7c0.6-1.7-0.1-2.1-5.8-3.3C870.3,365.9,869.7,365.9,869.3,365.9L869.3,365.9z M985.2,365.9
				c-0.2,0-0.4,0.1-0.5,0.2c-0.6,0.4-0.8,1.2-0.4,1.8c0.4,0.6,1.2,0.8,1.8,0.4c0.6-0.4,0.8-1.2,0.4-1.8
				C986.2,366,985.7,365.8,985.2,365.9L985.2,365.9z M777,367.1c-0.2,0-0.4,0.1-0.5,0.2c-0.6,0.4-0.8,1.2-0.4,1.8
				c0.4,0.6,1.2,0.8,1.8,0.4c0.6-0.4,0.8-1.2,0.4-1.8C778,367.2,777.5,367,777,367.1L777,367.1z M881.1,367.1
				c-0.2,0-0.4,0.1-0.5,0.2c-0.6,0.4-0.8,1.2-0.4,1.8c0.4,0.6,1.2,0.8,1.8,0.4c0.6-0.4,0.8-1.2,0.4-1.8
				C882.1,367.2,881.6,367,881.1,367.1L881.1,367.1z M899.6,367.1c-0.2,0-0.4,0.1-0.5,0.2c-0.6,0.4-0.8,1.2-0.4,1.8
				c0.4,0.6,1.2,0.8,1.8,0.4c0.6-0.4,0.8-1.2,0.4-1.8C900.6,367.2,900.1,367,899.6,367.1L899.6,367.1z M921.6,367.1
				c-0.2,0-0.4,0.1-0.5,0.2c-0.6,0.4-0.8,1.2-0.4,1.8c0.4,0.6,1.2,0.8,1.8,0.4c0.6-0.4,0.8-1.2,0.4-1.8
				C922.6,367.2,922.1,367,921.6,367.1z M864.9,367.1c-1.1,0-1.8,1.6-0.9,3c0.6,0.9,1.1,0.9,2,0c0.9-0.9,0.9-1.6,0-2.5
				C865.7,367.3,865.3,367.1,864.9,367.1L864.9,367.1z M510.9,368.2c-0.2,0-0.4,0.1-0.5,0.2c-0.6,0.4-0.8,1.2-0.4,1.8
				c0.4,0.6,1.2,0.8,1.8,0.4c0.6-0.4,0.8-1.2,0.4-1.8C511.9,368.4,511.4,368.2,510.9,368.2L510.9,368.2z M803.6,368.2
				c-0.2,0-0.4,0.1-0.5,0.2c-0.6,0.4-0.8,1.2-0.4,1.8c0.4,0.6,1.2,0.8,1.8,0.4c0.6-0.4,0.8-1.2,0.4-1.8
				C804.6,368.4,804.1,368.2,803.6,368.2L803.6,368.2z M912.4,368.2c-0.2,0-0.4,0.1-0.5,0.2c-0.6,0.4-0.8,1.2-0.4,1.8
				c0.4,0.6,1.2,0.8,1.8,0.4c0.6-0.4,0.8-1.2,0.4-1.8C913.3,368.4,912.8,368.2,912.4,368.2L912.4,368.2z M849.9,369.4
				c-0.2,0-0.4,0.1-0.5,0.2c-0.6,0.4-0.8,1.2-0.4,1.8c0.4,0.6,1.2,0.8,1.8,0.4c0.6-0.4,0.8-1.2,0.4-1.8
				C850.9,369.5,850.4,369.3,849.9,369.4L849.9,369.4z M854.5,369.4c-0.2,0-0.4,0.1-0.5,0.2c-0.6,0.4-0.8,1.2-0.4,1.8
				c0.4,0.6,1.2,0.8,1.8,0.4c0.6-0.4,0.8-1.2,0.4-1.8C855.5,369.5,855,369.3,854.5,369.4L854.5,369.4z M988.7,369.4
				c-0.2,0-0.4,0.1-0.5,0.2c-0.6,0.4-0.8,1.2-0.4,1.8c0.4,0.6,1.2,0.8,1.8,0.4c0.6-0.4,0.8-1.2,0.4-1.8
				C989.7,369.5,989.2,369.3,988.7,369.4L988.7,369.4z M993.3,370.5c-0.2,0-0.4,0.1-0.5,0.2c-0.6,0.4-0.8,1.2-0.4,1.8
				c0.4,0.6,1.2,0.8,1.8,0.4c0.6-0.4,0.8-1.2,0.4-1.8C994.3,370.7,993.8,370.5,993.3,370.5L993.3,370.5z M801.3,371.7
				c-0.2,0-0.4,0.1-0.5,0.2c-0.6,0.4-0.8,1.2-0.4,1.8c0.4,0.6,1.2,0.8,1.8,0.4c0.6-0.4,0.8-1.2,0.4-1.8
				C802.3,371.8,801.8,371.6,801.3,371.7L801.3,371.7z M928.6,371.8c-1-0.1-1.1,1.3,0.4,3.5c1.3,2,2.3,2.5,3.1,1.7
				c0.8-0.8,0.5-1.9-0.9-3.5C930,372.4,929.1,371.9,928.6,371.8L928.6,371.8z M779.3,372.5c-0.3-0.1-0.2,0.3,0.2,1.4
				c0.4,1.1,1.1,1.8,1.4,1.4c0.4-0.4,0-1.3-0.8-2.1C779.8,372.8,779.5,372.5,779.3,372.5L779.3,372.5z M862.2,372.5
				c-0.7,0-1.3,0.1-1.9,0.4c-1,0.4-1.4,1.2-1,1.9c0.9,1.5,6.9,0.9,6.9-0.7C866.3,373.1,864.2,372.4,862.2,372.5L862.2,372.5z
				 M854.5,374c-0.2,0-0.4,0.1-0.5,0.2c-0.6,0.4-0.8,1.2-0.4,1.8c0.4,0.6,1.2,0.8,1.8,0.4c0.6-0.4,0.8-1.2,0.4-1.8
				C855.5,374.1,855,373.9,854.5,374L854.5,374z M654.4,376.3c-0.2,0-0.4,0.1-0.5,0.2c-0.6,0.4-0.8,1.2-0.4,1.8
				c0.4,0.6,1.2,0.8,1.8,0.4c0.6-0.4,0.8-1.2,0.4-1.8C655.3,376.5,654.9,376.3,654.4,376.3L654.4,376.3z M926.7,376.4
				c-0.5,0.1-1.1,0.4-2,1.2c-1.1,1-2.6,1.8-3.3,1.8c-1.7,0-2.9,2-2,3.5c1.1,1.9,2.8,1.4,5.9-1.7
				C927.8,378.6,928.1,376.2,926.7,376.4L926.7,376.4z M611.5,378.6c-0.2,0-0.4,0.1-0.5,0.2c-0.6,0.4-0.8,1.2-0.4,1.8
				c0.4,0.6,1.2,0.8,1.8,0.4c0.6-0.4,0.8-1.2,0.4-1.8C612.5,378.8,612,378.6,611.5,378.6L611.5,378.6z M873,379.8
				c-0.2,0-0.4,0.1-0.5,0.2c-0.6,0.4-0.8,1.2-0.4,1.8c0.4,0.6,1.2,0.8,1.8,0.4c0.6-0.4,0.8-1.2,0.4-1.8
				C874,379.9,873.5,379.7,873,379.8L873,379.8z M915.8,379.8c-0.2,0-0.4,0.1-0.5,0.2c-0.6,0.4-0.8,1.2-0.4,1.8
				c0.4,0.6,1.2,0.8,1.8,0.4c0.6-0.4,0.8-1.2,0.4-1.8C916.8,379.9,916.3,379.7,915.8,379.8L915.8,379.8z M848.7,381
				c-0.2,0-0.4,0.1-0.5,0.2c-0.6,0.4-0.8,1.2-0.4,1.8c0.4,0.6,1.2,0.8,1.8,0.4c0.6-0.4,0.8-1.2,0.4-1.8
				C849.7,381.1,849.2,380.9,848.7,381L848.7,381z M877.6,381c-0.2,0-0.4,0.1-0.5,0.2c-0.6,0.4-0.8,1.2-0.4,1.8
				c0.4,0.6,1.2,0.8,1.8,0.4c0.6-0.4,0.8-1.2,0.4-1.8C878.6,381.1,878.1,380.9,877.6,381L877.6,381z M935.5,381
				c-0.2,0-0.4,0.1-0.5,0.2c-0.6,0.4-0.8,1.2-0.4,1.8c0.4,0.6,1.2,0.8,1.8,0.4c0.6-0.4,0.8-1.2,0.4-1.8
				C936.5,381.1,936,380.9,935.5,381L935.5,381z M648.6,382.1c-0.2,0-0.4,0.1-0.5,0.2c-0.6,0.4-0.8,1.2-0.4,1.8
				c0.4,0.6,1.2,0.8,1.8,0.4c0.6-0.4,0.8-1.2,0.4-1.8C649.6,382.2,649.1,382,648.6,382.1z M610.4,383.3c-0.2,0-0.4,0.1-0.5,0.2
				c-0.6,0.4-0.8,1.2-0.4,1.8c0.4,0.6,1.2,0.8,1.8,0.4c0.6-0.4,0.8-1.2,0.4-1.8C611.4,383.4,610.9,383.2,610.4,383.3L610.4,383.3z
				 M940.1,383.3c-0.2,0-0.4,0.1-0.5,0.2c-0.6,0.4-0.8,1.2-0.4,1.8c0.4,0.6,1.2,0.8,1.8,0.4c0.6-0.4,0.8-1.2,0.4-1.8
				C941.1,383.4,940.6,383.2,940.1,383.3L940.1,383.3z M797.2,383.7c-0.6,0-0.9,0.2-1.1,0.5c-1,1.6,3.2,3.8,9,4.7
				c9.1,1.5,11.3,1.9,11.8,2.5c0.9,0.9,2.5,0.7,2.5-0.3c0-1.9-7.6-6-10-5.4c-1.3,0.3-4.7-0.1-7.5-1.1
				C799.7,384,798.2,383.7,797.2,383.7L797.2,383.7z M819.4,384.2c-1.2,0-2.3,1.1-1.7,2.1c0.4,0.6,1.1,1.1,1.7,1.1
				c1.6,0,2.5-2.1,1.2-2.9C820.2,384.3,819.8,384.2,819.4,384.2L819.4,384.2z M824.4,384.4c-0.2,0-0.4,0.1-0.5,0.2
				c-0.6,0.4-0.8,1.2-0.4,1.8c0.4,0.6,1.2,0.8,1.8,0.4c0.6-0.4,0.8-1.2,0.4-1.8C825.4,384.6,824.9,384.3,824.4,384.4L824.4,384.4z
				 M994.5,384.4c-0.2,0-0.4,0.1-0.5,0.2c-0.6,0.4-0.8,1.2-0.4,1.8c0.4,0.6,1.2,0.8,1.8,0.4c0.6-0.4,0.8-1.2,0.4-1.8
				C995.5,384.6,995,384.3,994.5,384.4L994.5,384.4z M945.5,385.4c-1.2,0-2.3,1.1-1.7,2.1c0.4,0.6,1.1,1.1,1.7,1.1
				c1.6,0,2.5-2.1,1.2-2.9C946.3,385.5,945.9,385.4,945.5,385.4L945.5,385.4z M841.8,385.6c-0.2,0-0.4,0.1-0.5,0.2
				c-0.6,0.4-0.8,1.2-0.4,1.8c0.4,0.6,1.2,0.8,1.8,0.4c0.6-0.4,0.8-1.2,0.4-1.8C842.8,385.7,842.3,385.5,841.8,385.6L841.8,385.6z
				 M858,386.7c-0.2,0-0.4,0.1-0.5,0.2c-0.6,0.4-0.8,1.2-0.4,1.8c0.4,0.6,1.2,0.8,1.8,0.4c0.6-0.4,0.8-1.2,0.4-1.8
				C859,386.9,858.5,386.7,858,386.7L858,386.7z M868,387.7c-1.2,0-2.3,1.1-1.7,2.1c0.4,0.6,1.1,1.1,1.7,1.1c1.6,0,2.5-2.1,1.2-2.9
				C868.8,387.8,868.4,387.7,868,387.7L868,387.7z M941.3,387.9c-0.2,0-0.4,0.1-0.5,0.2c-0.6,0.4-0.8,1.2-0.4,1.8
				c0.4,0.6,1.2,0.8,1.8,0.4c0.6-0.4,0.8-1.2,0.4-1.8C942.3,388,941.8,387.8,941.3,387.9L941.3,387.9z M1000.3,387.9
				c-0.2,0-0.4,0.1-0.5,0.2c-0.6,0.4-0.8,1.2-0.4,1.8c0.4,0.6,1.2,0.8,1.8,0.4c0.6-0.4,0.8-1.2,0.4-1.8
				C1001.3,388,1000.8,387.8,1000.3,387.9z M951.3,388.8c-0.4,0-0.7,0.1-1.1,0.3c-1,0.6-0.9,1.3,0.1,2.5c1,1.2,1.8,1.3,2.6,0.5
				C954.1,390.8,952.8,388.9,951.3,388.8L951.3,388.8z M611.5,389.1c-0.2,0-0.4,0.1-0.5,0.2c-0.6,0.4-0.8,1.2-0.4,1.8
				c0.4,0.6,1.2,0.8,1.8,0.4c0.6-0.4,0.8-1.2,0.4-1.8C612.5,389.2,612,389,611.5,389.1L611.5,389.1z M862.6,389.1
				c-0.2,0-0.4,0.1-0.5,0.2c-0.6,0.4-0.8,1.2-0.4,1.8c0.4,0.6,1.2,0.8,1.8,0.4c0.6-0.4,0.8-1.2,0.4-1.8
				C863.6,389.2,863.1,389,862.6,389.1L862.6,389.1z M855.2,389.8c-2.9,0.4-9.7,6.1-8.7,7.8c0.5,0.8,2,0.5,4.7-1
				c5.4-3.2,6.9-5.1,5-6.6C855.9,389.8,855.6,389.8,855.2,389.8L855.2,389.8z M823.3,390.2c-0.2,0-0.4,0.1-0.5,0.2
				c-0.6,0.4-0.8,1.2-0.4,1.8c0.4,0.6,1.2,0.8,1.8,0.4s0.8-1.2,0.4-1.8C824.3,390.3,823.8,390.1,823.3,390.2L823.3,390.2z
				 M846.4,390.2c-0.2,0-0.4,0.1-0.5,0.2c-0.6,0.4-0.8,1.2-0.4,1.8c0.4,0.6,1.2,0.8,1.8,0.4s0.8-1.2,0.4-1.8
				C847.4,390.3,846.9,390.1,846.4,390.2L846.4,390.2z M838.3,391.1c-0.5,0-1.1,0.1-1.5,0.4c-0.7,0.4-0.9,1.3-0.6,1.8
				c0.9,1.4,3.7,1.4,4.6-0.1C841.5,392.1,839.9,391.1,838.3,391.1L838.3,391.1z M828.8,391.4c-0.6,0-1.1,0.2-1.6,0.4
				c-0.5,0.2-0.6,0.9-0.3,1.4c0.8,1.3,5.9,0.9,5.2-0.5c-0.4-0.7-1.6-1.2-2.8-1.3C829.1,391.4,829,391.4,828.8,391.4L828.8,391.4z
				 M948.2,392.5c-0.2,0-0.4,0.1-0.5,0.2c-0.6,0.4-0.8,1.2-0.4,1.8c0.4,0.6,1.2,0.8,1.8,0.4c0.6-0.4,0.8-1.2,0.4-1.8
				C949.2,392.7,948.7,392.4,948.2,392.5L948.2,392.5z M834.8,394.8c-0.2,0-0.4,0.1-0.5,0.2c-0.6,0.4-0.8,1.2-0.4,1.8
				c0.4,0.6,1.2,0.8,1.8,0.4c0.6-0.4,0.8-1.2,0.4-1.8C835.8,395,835.3,394.8,834.8,394.8L834.8,394.8z M841.8,396
				c-0.2,0-0.4,0.1-0.5,0.2c-0.6,0.4-0.8,1.2-0.4,1.8c0.4,0.6,1.2,0.8,1.8,0.4c0.6-0.4,0.8-1.2,0.4-1.8
				C842.8,396.1,842.3,395.9,841.8,396L841.8,396z M954,396c-0.2,0-0.4,0.1-0.5,0.2c-0.6,0.4-0.8,1.2-0.4,1.8
				c0.4,0.6,1.2,0.8,1.8,0.4c0.6-0.4,0.8-1.2,0.4-1.8C955,396.1,954.5,395.9,954,396L954,396z M928.6,398.3c-0.2,0-0.4,0.1-0.5,0.2
				c-0.6,0.4-0.8,1.2-0.4,1.8c0.4,0.6,1.2,0.8,1.8,0.4c0.6-0.4,0.8-1.2,0.4-1.8C929.5,398.4,929.1,398.2,928.6,398.3L928.6,398.3z
				 M949.4,399.5c-0.2,0-0.4,0.1-0.5,0.2c-0.6,0.4-0.8,1.2-0.4,1.8c0.4,0.6,1.2,0.8,1.8,0.4c0.6-0.4,0.8-1.2,0.4-1.8
				C950.4,399.6,949.9,399.4,949.4,399.5L949.4,399.5z M870.9,400.4c-0.3,0.1-0.4,0.3-0.1,0.7c0.4,0.7-0.6,2.1-2.2,3.1
				s-2.7,2.3-2.3,2.8c0.3,0.5-0.2,1.6-1.2,2.4c-1.3,1-1.4,1.8-0.5,2.9c0.7,0.8,0.8,1.7,0.3,2.1c-1.8,1.1-8.9-0.1-9.5-1.7
				c-0.9-2.2-3.5-2.5-3.5-0.4c0,1-1.2,2.3-2.8,3c-1.6,0.7-2.6,1.9-2.2,2.8c0.3,0.8,0.2,2.2-0.3,2.9c-0.6,1-1.3,0.8-2.4-0.7
				c-1.5-2.1-1.6-2.1-1.7,0.1c-0.1,1.2-0.1,2.9,0,3.6c0.2,1.4-6.8,7.3-8.7,7.3c-1.1,0-6.4,2.7-12.9,6.5c-4.2,2.5-5,6.4-1.9,9.9
				c1.1,1.3,1.6,2.9,1.1,4.2c-0.8,2-0.9,1.9-2.5-0.2c-1-1.3-1.7-1.6-1.7-0.8c0,0.8,1.1,3,2.4,4.9c2.7,3.8,6.2,18.4,5.4,22.6
				c-0.4,2.1,0.3,3.1,2.8,4.4c3.1,1.6,3.6,1.5,7.6-1.2c2.4-1.6,6-2.9,8-2.9c2.4,0,4.8-1.1,6.8-2.9c1.7-1.6,4.5-2.9,6.1-2.9
				c1.6,0,4.5-0.6,6.5-1.2c5.3-1.8,14.3,1.8,16.8,6.7c1,2,2.1,3.7,2.5,3.7c0.4,0,1.6-1.9,2.7-4.2c1.5-3.1,2.3-3.9,3.3-2.9
				c1,1,1,2.1,0,4.3c-1.8,3.9-1.7,4.6,0.3,2.9c1.2-1,1.8-1,2.4,0c0.4,0.7,0.5,1.6,0.1,2c-0.4,0.4,0.6,2.2,2.2,4
				c1.6,1.9,2.9,4.1,2.9,5c0,2.5,7.1,4,9.5,2c1.7-1.5,2.2-1.4,4,0.7c2.7,3,2.5,3,5.2-0.4c1.3-1.7,3.2-2.8,4.7-2.6
				c1.7,0.2,2.5-0.5,2.7-2.1c0.4-2.9,2.5-9.1,5.2-15c2.7-6,5.6-29.8,3.5-29.2c-1.1,0.3-7.1-3.9-7.1-5c0-0.5-1.3-2.3-2.9-4
				s-2.6-3.5-2.3-4c0.3-0.5-0.5-1.3-1.8-1.7c-3.2-1-6.9-8.7-6.9-14.2c0-3-0.8-5.2-2.2-6.5c-1.2-1.1-2.6-3.7-3-5.7
				c-0.4-2-1.1-4.1-1.4-4.7c-0.9-1.5-3.5,6-3.7,10.3c-0.1,3.5-4,13.3-5.3,13.3c-0.4,0-3.5-2.1-7.1-4.7c-6-4.4-6.4-5-5.6-8.4
				c0.4-2,1.2-4.2,1.8-4.8c1.4-1.5,1.3-4.4,0-3.6c-0.6,0.4-1.4,0.2-1.7-0.4c-0.4-0.6-1.6-1-2.7-1c-1.1,0.1-3.2-0.3-4.7-0.8
				C871.8,400.5,871.2,400.4,870.9,400.4L870.9,400.4z M618.5,401.8c-0.2,0-0.4,0.1-0.5,0.2c-0.6,0.4-0.8,1.2-0.4,1.8
				c0.4,0.6,1.2,0.8,1.8,0.4s0.8-1.2,0.4-1.8C619.5,401.9,619,401.7,618.5,401.8L618.5,401.8z M622,404.1c-0.2,0-0.4,0.1-0.5,0.2
				c-0.6,0.4-0.8,1.2-0.4,1.8c0.4,0.6,1.2,0.8,1.8,0.4c0.6-0.4,0.8-1.2,0.4-1.8C622.9,404.2,622.5,404,622,404.1L622,404.1z
				 M636.1,405.2c-0.4,0.1-0.6,0.5-0.6,1.3c0,3.1-3.5,7.5-7.7,9.5c-4.6,2.2-6.5,6.1-5.5,11.4c0.5,2.6,0.1,4.7-1.2,6.8
				c-2,3.1-1.8,6,0.8,12.6c1.1,2.7,1.7,3.1,4.3,2.4c1.7-0.4,3.4-1.3,3.9-2c1.1-1.5,2.3-6.4,4.9-18.6c1.1-5.1,2.4-10.1,2.9-11.1
				c1.1-2.2,0.1-11.2-1.3-12.1C636.3,405.2,636.2,405.2,636.1,405.2L636.1,405.2z M625.4,407.6c-0.2,0-0.4,0.1-0.5,0.2
				c-0.6,0.4-0.8,1.2-0.4,1.8c0.4,0.6,1.2,0.8,1.8,0.4c0.6-0.4,0.8-1.2,0.4-1.8C626.4,407.7,625.9,407.5,625.4,407.6L625.4,407.6z
				 M884.6,407.6c-0.2,0-0.4,0.1-0.5,0.2c-0.6,0.4-0.8,1.2-0.4,1.8c0.4,0.6,1.2,0.8,1.8,0.4c0.6-0.4,0.8-1.2,0.4-1.8
				C885.6,407.7,885.1,407.5,884.6,407.6L884.6,407.6z M1028,408.7c-0.2,0-0.4,0.1-0.5,0.2c-0.6,0.4-0.8,1.2-0.4,1.8
				c0.4,0.6,1.1,0.8,1.7,0.5c0.5-0.3,1.3-0.1,1.7,0.6c0.4,0.7,1.2,0.9,1.8,0.5c0.6-0.4,0.8-1.2,0.4-1.8c-0.4-0.6-1.1-0.8-1.7-0.5
				s-1.3,0.1-1.7-0.6C1029.1,408.9,1028.6,408.7,1028,408.7z M966.7,413.3c-0.2,0-0.4,0.1-0.5,0.2c-0.6,0.4-0.8,1.2-0.4,1.8
				c0.4,0.6,1.2,0.8,1.8,0.4c0.6-0.4,0.8-1.2,0.4-1.8C967.7,413.5,967.2,413.3,966.7,413.3L966.7,413.3z M650.9,416.8
				c-0.2,0-0.4,0.1-0.5,0.2c-0.6,0.4-0.8,1.2-0.4,1.8c0.4,0.6,1.2,0.8,1.8,0.4c0.6-0.4,0.8-1.2,0.4-1.8
				C651.9,416.9,651.4,416.7,650.9,416.8L650.9,416.8z M967.9,418c-0.2,0-0.4,0.1-0.5,0.2c-0.6,0.4-0.8,1.2-0.4,1.8
				c0.4,0.6,1.2,0.8,1.8,0.4c0.6-0.4,0.8-1.2,0.4-1.8C968.9,418.1,968.4,417.9,967.9,418L967.9,418z M1002.6,418
				c-0.2,0-0.4,0.1-0.5,0.2c-0.6,0.4-0.8,1.2-0.4,1.8c0.4,0.6,1.2,0.8,1.8,0.4c0.6-0.4,0.8-1.2,0.4-1.8
				C1003.6,418.1,1003.1,417.9,1002.6,418L1002.6,418z M971.4,420.3c-0.2,0-0.4,0.1-0.5,0.2c-0.6,0.4-0.8,1.2-0.4,1.8
				c0.4,0.6,1.2,0.8,1.8,0.4c0.6-0.4,0.8-1.2,0.4-1.8C972.3,420.4,971.9,420.2,971.4,420.3L971.4,420.3z M73.6,421.4
				c-0.2,0-0.4,0.1-0.5,0.2c-0.6,0.4-0.8,1.2-0.4,1.8c0.4,0.6,1.2,0.8,1.8,0.4c0.6-0.4,0.8-1.2,0.4-1.8
				C74.5,421.6,74.1,421.4,73.6,421.4L73.6,421.4L73.6,421.4z M999.1,421.4c-0.2,0-0.4,0.1-0.5,0.2c-0.6,0.4-0.8,1.2-0.4,1.8
				c0.4,0.6,1.2,0.8,1.8,0.4c0.6-0.4,0.8-1.2,0.4-1.8C1000.1,421.6,999.6,421.4,999.1,421.4z M77,423.8c-0.2,0-0.4,0.1-0.5,0.2
				c-0.6,0.4-0.8,1.2-0.4,1.8c0.4,0.6,1.2,0.8,1.8,0.4c0.6-0.4,0.8-1.2,0.4-1.8C78,423.9,77.5,423.7,77,423.8L77,423.8z M1020,429.5
				c-0.2,0-0.4,0.1-0.5,0.2c-0.6,0.4-0.8,1.2-0.4,1.8c0.4,0.6,1.2,0.8,1.8,0.4c0.6-0.4,0.8-1.2,0.4-1.8
				C1020.9,429.7,1020.4,429.5,1020,429.5L1020,429.5z M109.4,431.9c-0.2,0-0.4,0.1-0.5,0.2c-0.6,0.4-0.8,1.2-0.4,1.8
				c0.4,0.6,1.2,0.8,1.8,0.4c0.6-0.4,0.8-1.2,0.4-1.8C110.4,432,109.9,431.8,109.4,431.9L109.4,431.9z M659,431.9
				c-0.2,0-0.4,0.1-0.5,0.2c-0.6,0.4-0.8,1.2-0.4,1.8c0.4,0.6,1.2,0.8,1.8,0.4s0.8-1.2,0.4-1.8C660,432,659.5,431.8,659,431.9
				L659,431.9z M962.4,431.9c-0.4,0-0.7,0.2-0.9,0.4c-0.8,0.8-0.4,1.8,1.5,3c3.1,2.2,4,2.3,5,0.8c0.9-1.4-3-4-5.2-4.2
				C962.7,431.9,962.6,431.9,962.4,431.9L962.4,431.9z M654.4,433c-0.2,0-0.4,0.1-0.5,0.2c-0.6,0.4-0.8,1.2-0.4,1.8
				c0.4,0.6,1.2,0.8,1.8,0.4c0.6-0.4,0.8-1.2,0.4-1.8C655.3,433.1,654.8,432.9,654.4,433L654.4,433z M1016.5,433
				c-0.2,0-0.4,0.1-0.5,0.2c-0.6,0.4-0.8,1.2-0.4,1.8c0.4,0.6,1.2,0.8,1.8,0.4c0.6-0.4,0.8-1.2,0.4-1.8
				C1017.5,433.1,1017,432.9,1016.5,433z M97.9,434.2c-0.2,0-0.4,0.1-0.5,0.2c-0.6,0.4-0.8,1.2-0.4,1.8c0.4,0.6,1.2,0.8,1.8,0.4
				c0.6-0.4,0.8-1.2,0.4-1.8C98.8,434.3,98.4,434.1,97.9,434.2L97.9,434.2z M116.4,438.8c-0.2,0-0.4,0.1-0.5,0.2
				c-0.6,0.4-0.8,1.2-0.4,1.8c0.4,0.6,1.2,0.8,1.8,0.4c0.6-0.4,0.8-1.2,0.4-1.8C117.4,438.9,116.9,438.7,116.4,438.8L116.4,438.8z
				 M132.6,443.4c-0.2,0-0.4,0.1-0.5,0.2c-0.6,0.4-0.8,1.2-0.4,1.8c0.4,0.6,1.2,0.8,1.8,0.4c0.6-0.4,0.8-1.2,0.4-1.8
				C133.6,443.6,133.1,443.4,132.6,443.4L132.6,443.4z M143,445.7c-0.2,0-0.4,0.1-0.5,0.2c-0.6,0.4-0.8,1.2-0.4,1.8
				c0.4,0.6,1.2,0.8,1.8,0.4c0.6-0.4,0.8-1.2,0.4-1.8C144,445.9,143.5,445.7,143,445.7L143,445.7z M199.7,450.4
				c-0.2,0-0.4,0.1-0.5,0.2c-0.6,0.4-0.8,1.2-0.4,1.8c0.4,0.6,1.2,0.8,1.8,0.4c0.6-0.4,0.8-1.2,0.4-1.8
				C200.7,450.5,200.2,450.3,199.7,450.4L199.7,450.4z M185.8,452.7c-0.2,0-0.4,0.1-0.5,0.2c-0.6,0.4-0.8,1.2-0.4,1.8
				c0.4,0.6,1.2,0.8,1.8,0.4c0.6-0.4,0.8-1.2,0.4-1.8C186.8,452.8,186.3,452.6,185.8,452.7L185.8,452.7z M271.4,478.1
				c-0.2,0-0.4,0.1-0.5,0.2c-0.6,0.4-0.8,1.2-0.4,1.8c0.4,0.6,1.2,0.8,1.8,0.4c0.6-0.4,0.8-1.2,0.4-1.8
				C272.4,478.3,271.9,478.1,271.4,478.1L271.4,478.1z M985.4,482.7c-0.1,0-0.1,0-0.2,0c-0.3,0.3,0.4,2,1.7,3.8
				c3.6,5.1,4.2,8.2,2.2,11.3c-1.6,2.5-1.6,2.8,0.5,3.3c1.3,0.3,2.2,1.6,2.2,3c0,3.7,2.1,2.9,3.3-1.3c0.6-2.1,1.6-3.6,2.3-3.5
				c0.7,0.2,1.3-0.2,1.3-0.8c0-0.6,0.4-2,0.8-3.1c0.6-1.6,0.3-1.8-1.3-1.2c-1.5,0.6-2.2,0.1-2.7-1.6c-0.5-1.8-0.9-2-2.2-1
				c-1.2,1-1.8,0.8-2.4-0.8C990,487.9,986.4,482.8,985.4,482.7L985.4,482.7z M883.4,485.1c-0.2,0-0.4,0.1-0.5,0.2
				c-0.6,0.4-0.8,1.2-0.4,1.8c0.4,0.6,1.2,0.8,1.8,0.4c0.6-0.4,0.8-1.2,0.4-1.8C884.4,485.2,883.9,485,883.4,485.1L883.4,485.1z
				 M914.7,500.1c-0.2,0-0.4,0.1-0.5,0.2c-0.6,0.4-0.8,1.2-0.4,1.8c0.4,0.6,1.2,0.8,1.8,0.4c0.6-0.4,0.8-1.2,0.4-1.8
				C915.7,500.2,915.2,500,914.7,500.1L914.7,500.1z M904.3,501.3c-0.2,0-0.4,0.1-0.5,0.2c-0.6,0.4-0.8,1.2-0.4,1.8
				c0.4,0.6,1.2,0.8,1.8,0.4c0.6-0.4,0.8-1.2,0.4-1.8C905.2,501.4,904.8,501.2,904.3,501.3L904.3,501.3z M908.4,505.8
				c-1.8,0.1-1.7,0.6-1,2.3c0.5,1.4,1.2,3.4,1.6,4.5c0.7,2.1,5.8,2.2,6,0.2c0.1-0.6,0.5-2,1-3.1c1.2-2.8,0.2-3.6-5.1-3.8
				C909.8,505.9,909,505.8,908.4,505.8L908.4,505.8z M986,506.1c-1.8,0.2-4.6,2.9-4.6,4.8c0,0.7-1.4,2.4-3,3.7
				c-5,3.9-12.5,14.7-8.5,12.2c0.6-0.4,2.1-0.2,3.2,0.5c2.7,1.6,4.4,1.6,5.8-0.2c1.3-1.5,1.4-2,1.4-5c0-1,1.3-3.1,2.9-4.7
				c1.6-1.6,2.6-3.4,2.2-4c-0.4-0.6,0.1-1.4,1.1-1.8c2.3-0.9,2.4-4.6,0.2-5.4c-0.1,0-0.2-0.1-0.3-0.1
				C986.3,506.1,986.1,506.1,986,506.1L986,506.1z M284.1,509.4c-1.1,0-1.8,1.6-0.9,3c0.6,0.9,1.1,0.9,2,0c0.9-0.9,0.9-1.6,0-2.5
				C284.9,509.6,284.5,509.4,284.1,509.4L284.1,509.4z M972.5,530.2c-0.2,0-0.4,0.1-0.5,0.2c-0.6,0.4-0.8,1.2-0.4,1.8
				c0.4,0.6,1.2,0.8,1.8,0.4c0.6-0.4,0.8-1.2,0.4-1.8C973.5,530.3,973,530.1,972.5,530.2L972.5,530.2z M281.8,531.4
				c-0.2,0-0.4,0.1-0.5,0.2c-0.6,0.4-0.8,1.2-0.4,1.8c0.4,0.6,1.2,0.8,1.8,0.4c0.6-0.4,0.8-1.2,0.4-1.8
				C282.8,531.5,282.3,531.3,281.8,531.4L281.8,531.4z M691.4,535c-1.4-0.1-1.9,1.6-0.4,3.4c1.8,2.1,2.8,2.1,4.6,0
				c1.1-1.4,1-2.3-0.1-1.6c0-0.1-0.2-0.1-0.4,0.2c-0.4-0.1-1.2-0.5-2-1.2C692.4,535.2,691.9,535,691.4,535L691.4,535z M281.8,537.1
				c-0.2,0-0.4,0.1-0.5,0.2c-0.6,0.4-0.8,1.2-0.4,1.8c0.4,0.6,1.2,0.8,1.8,0.4c0.6-0.4,0.8-1.2,0.4-1.8
				C282.8,537.3,282.3,537.1,281.8,537.1L281.8,537.1z M965.6,540.6c-0.2,0-0.4,0.1-0.5,0.2c-0.6,0.4-0.8,1.2-0.4,1.8
				c0.4,0.6,1.2,0.8,1.8,0.4c0.6-0.4,0.8-1.2,0.4-1.8C966.6,540.7,966.1,540.5,965.6,540.6L965.6,540.6z M281.8,542.9
				c-0.2,0-0.4,0.1-0.5,0.2c-0.6,0.4-0.8,1.2-0.4,1.8c0.4,0.6,1.2,0.8,1.8,0.4c0.6-0.4,0.8-1.2,0.4-1.8
				C282.8,543.1,282.3,542.9,281.8,542.9L281.8,542.9z M329.3,545.2c-0.2,0-0.4,0.1-0.5,0.2c-0.6,0.4-0.8,1.1-0.5,1.7
				c0.3,0.5,0.1,1.3-0.6,1.7c-0.7,0.4-0.9,1.2-0.5,1.8c0.4,0.6,1.2,0.8,1.8,0.4c0.6-0.4,0.8-1.1,0.5-1.7s-0.1-1.3,0.6-1.7
				s0.9-1.2,0.5-1.8C330.2,545.4,329.8,545.2,329.3,545.2L329.3,545.2z M324.2,546.2c-1.3,0.1-2.6,1.8-1.7,3.2c0.6,1,1.3,1,2.5-0.1
				c1.2-1,1.3-1.8,0.5-2.6C325,546.3,324.6,546.2,324.2,546.2L324.2,546.2z M285.8,550.9c-0.4,0-0.7,0.1-1,0.3
				c-1.1,0.7-0.9,1.3,0.8,2.5c1.2,0.9,2.1,1.8,1.9,2.1c-0.2,0.3-0.3,0.8-0.3,1.2s0.6,0.3,1.2-0.1c0.8-0.5,0.8-1.3-0.1-2.4
				c-0.7-0.9-0.9-1.6-0.4-1.6s0.3-0.6-0.4-1.3C287.1,551.1,286.5,550.9,285.8,550.9L285.8,550.9z M704.1,552.2
				c-0.2,0-0.4,0.1-0.5,0.2c-0.6,0.4-0.8,1.2-0.4,1.8c0.4,0.6,1.2,0.8,1.8,0.4c0.6-0.4,0.8-1.2,0.4-1.8
				C705.1,552.3,704.6,552.1,704.1,552.2z M298.8,553.1c-0.6,0.1-0.7,1.2-0.7,3c0.1,2.7-0.4,3.1-2.6,2.9c-1.5-0.2-2.4,0.2-2,0.9
				c0.4,0.6,2.2,1.2,4,1.2c1.8,0,3.6,0.5,4,1c0.7,1.2,2.8,1.1,4.9-0.2c0.9-0.6,0-2.2-2.7-4.9c-2.4-2.4-3.9-3.7-4.7-3.8
				C299,553.1,298.9,553.1,298.8,553.1L298.8,553.1z M388.9,556.8c-0.5,0-1,0.1-1.3,0.3c-0.8,0.5-0.5,1.3,0.9,2.3
				c2.5,1.8,4.8,2,5.7,0.4C394.9,558.7,391.3,556.9,388.9,556.8L388.9,556.8z M311.9,559.1c-0.2,0-0.4,0.1-0.5,0.2
				c-0.6,0.4-0.8,1.2-0.4,1.8c0.4,0.6,1.2,0.8,1.8,0.4c0.6-0.4,0.8-1.2,0.4-1.8C312.9,559.3,312.4,559,311.9,559.1L311.9,559.1z
				 M298.7,563.6c-1.2,0-2.3,1.1-1.7,2.1c0.4,0.6,1.1,1.1,1.7,1.1c1.6,0,2.5-2.1,1.2-2.9C299.6,563.6,299.2,563.6,298.7,563.6
				L298.7,563.6z"/>
		</g>
	</g>
</g>
</svg>
